{"glyphs":{"0":{"ha":964,"x_min":61,"x_max":903,"o":"m 903 573 q 878 371 903 467 q 801 189 852 275 q 661 36 741 86 q 483 -15 581 -15 q 304 36 385 -15 q 164 189 224 86 q 87 371 113 275 q 61 573 61 467 q 87 775 61 679 q 164 958 113 871 q 304 1112 224 1061 q 483 1163 385 1163 q 661 1112 581 1163 q 801 958 741 1061 q 878 775 852 871 q 903 573 903 679 m 789 542 l 717 547 l 710 616 l 786 621 q 766 740 781 684 q 727 844 751 795 l 632 779 l 593 831 l 686 912 q 613 978 652 956 q 530 1000 574 1000 q 509 1000 518 1000 q 494 997 499 999 l 504 862 l 436 844 l 425 962 q 345 871 378 928 q 291 737 311 815 l 377 703 l 358 641 l 277 669 q 270 605 273 636 q 268 545 268 574 l 340 566 l 368 500 l 274 467 q 287 391 277 429 q 310 313 296 353 l 377 351 l 406 296 l 340 248 q 426 144 379 178 q 528 109 473 109 l 515 227 l 590 236 l 612 132 q 674 183 646 151 q 727 261 703 215 l 608 355 l 657 406 l 758 340 q 781 436 772 386 q 789 542 789 487 m 626 599 q 600 537 626 564 q 538 511 574 511 q 475 537 502 511 q 448 599 448 563 q 475 661 448 635 q 538 687 502 687 q 600 661 574 687 q 626 599 626 635 z "},"1":{"ha":566,"x_min":-8,"x_max":419,"o":"m 419 1174 l 367 17 l 220 -3 l 135 981 l 26 951 l -8 1059 l 419 1174 m 343 865 l 275 873 q 237 681 250 770 q 226 518 224 591 l 227 483 l 263 497 q 289 686 269 594 q 343 865 309 779 z "},"2":{"ha":776,"x_min":8,"x_max":766,"o":"m 766 0 l 8 48 q 52 213 24 135 q 116 360 79 292 q 197 485 148 418 q 313 625 247 551 q 439 804 397 718 q 481 969 481 890 q 469 1023 481 998 q 433 1068 457 1048 q 386 1096 412 1086 q 329 1106 359 1106 q 257 1097 290 1106 q 199 1069 224 1087 q 155 1019 170 1048 q 140 952 140 989 q 145 916 140 933 q 159 885 151 899 q 184 859 170 867 q 216 850 199 850 q 272 868 254 850 q 291 920 291 885 q 289 938 291 928 q 282 959 286 948 q 342 924 322 948 q 361 863 361 900 q 349 812 361 834 q 309 773 336 789 q 261 753 288 760 q 205 746 235 746 q 79 795 127 746 q 31 920 31 844 q 57 1027 31 979 q 135 1109 83 1074 q 235 1154 180 1139 q 351 1168 289 1168 q 494 1148 431 1168 q 602 1090 556 1128 q 675 988 650 1048 q 699 850 699 928 q 669 735 699 793 q 581 615 640 676 q 464 513 522 564 q 347 410 405 462 q 234 291 277 347 q 175 183 191 234 l 718 284 l 766 0 m 641 905 q 628 941 641 928 q 591 954 616 954 q 555 941 568 954 q 543 905 543 928 q 555 869 543 880 q 591 857 568 857 q 628 869 616 857 q 641 905 641 880 m 609 753 q 591 797 609 779 q 547 815 573 815 q 503 797 522 815 q 484 753 484 779 q 503 709 484 727 q 547 690 522 690 q 591 709 573 690 q 609 753 609 727 m 494 628 q 481 665 494 652 q 444 677 469 677 q 409 665 421 677 q 396 628 396 652 q 409 592 396 604 q 444 580 421 580 q 481 592 469 580 q 494 628 494 604 z "},"3":{"ha":941,"x_min":17,"x_max":880,"o":"m 880 272 l 865 205 l 798 216 q 754 133 782 172 q 687 62 727 95 l 732 -14 l 673 -61 l 625 23 q 531 -12 581 0 q 425 -23 481 -23 l 405 -114 l 332 -100 l 355 -15 q 280 9 315 -8 q 215 54 245 26 l 142 -8 l 96 40 l 175 99 q 141 155 157 125 q 114 221 126 186 l 35 205 l 17 261 l 104 277 q 99 307 100 292 q 97 337 97 322 l 147 348 q 246 186 165 250 q 428 123 327 123 q 575 183 515 123 q 635 330 635 243 q 558 525 635 459 q 327 595 481 591 l 684 997 l 155 903 l 104 1156 l 804 1122 l 850 1016 l 536 656 q 586 653 564 656 q 621 646 607 650 l 673 707 l 725 666 l 680 619 q 732 575 709 601 q 773 514 755 549 l 848 552 l 873 502 l 796 459 q 815 364 811 408 q 812 282 819 320 l 880 272 z "},"4":{"ha":992,"x_min":31,"x_max":975,"o":"m 679 947 q 654 887 679 912 q 593 862 629 862 q 534 887 559 862 q 509 947 509 913 q 534 1006 509 981 q 593 1031 559 1031 q 654 1007 629 1031 q 679 947 679 982 m 975 395 l 749 343 l 737 54 l 656 50 l 656 319 l 591 304 l 601 -124 l 505 -151 l 488 281 l 256 224 l 31 299 l 59 379 l 151 350 l 175 405 l 79 437 l 102 505 l 199 474 l 216 536 l 124 568 l 147 635 l 227 606 l 248 669 l 168 696 l 353 1230 l 474 1208 l 340 509 l 479 507 l 473 664 l 581 690 l 585 505 l 656 504 l 656 783 l 768 786 l 756 502 l 951 498 l 975 395 z "},"5":{"ha":882,"x_min":26,"x_max":814,"o":"m 814 368 q 781 222 814 289 q 680 102 747 155 q 545 27 616 53 q 391 1 473 1 q 256 25 319 1 q 138 96 193 48 q 55 204 83 144 q 26 336 26 264 l 111 355 q 115 322 113 338 q 123 292 118 307 l 185 322 l 212 275 l 144 236 q 182 181 159 205 q 237 140 205 157 l 264 206 l 319 192 l 296 119 q 336 113 316 115 q 375 111 356 111 q 417 114 397 111 q 457 124 437 117 l 416 231 l 476 258 l 528 163 q 604 251 579 202 q 629 358 629 299 l 542 343 l 532 399 l 623 425 q 591 497 612 465 q 536 552 570 529 l 486 463 l 434 500 l 476 581 q 435 588 458 586 q 386 591 413 591 q 362 590 374 591 q 337 588 350 589 l 348 511 l 286 504 l 275 581 q 243 575 260 579 q 208 566 226 571 l 175 789 l 233 798 l 230 848 l 168 838 l 157 899 l 230 905 l 223 955 l 151 945 l 142 1007 l 223 1021 l 220 1074 l 134 1065 l 119 1156 l 486 1139 q 659 1100 593 1135 q 789 981 725 1065 l 689 913 q 637 984 671 956 q 555 1028 604 1013 q 480 1044 526 1038 q 372 1052 434 1050 l 320 675 q 425 697 379 690 q 505 705 471 705 q 633 680 576 705 q 732 606 690 655 q 793 498 772 557 q 814 368 814 439 z "},"6":{"ha":865,"x_min":61,"x_max":836,"o":"m 836 323 q 807 176 836 241 q 720 63 779 111 q 597 -5 665 18 q 444 -28 528 -28 q 284 7 356 -28 q 159 111 213 41 q 85 252 109 174 q 61 422 61 330 q 99 659 61 544 q 214 883 138 774 q 378 1064 285 985 q 585 1202 471 1144 l 705 989 q 506 883 595 945 q 346 741 416 821 q 224 550 264 650 q 183 345 183 451 q 199 244 183 291 q 248 157 216 197 q 325 91 282 113 q 421 69 368 69 q 600 140 533 69 q 666 323 666 210 q 655 398 666 364 q 623 463 645 433 q 567 509 599 494 q 495 525 535 525 q 400 491 437 525 q 363 401 363 458 q 380 342 363 361 q 431 322 397 322 q 469 340 454 322 q 485 381 485 357 q 483 398 485 391 q 474 413 480 406 q 527 379 509 403 q 545 317 545 355 q 536 275 545 294 q 507 241 526 256 q 470 221 490 228 q 426 215 450 215 q 364 228 392 215 q 315 269 336 241 q 285 324 294 294 q 275 389 275 354 q 295 491 275 446 q 353 572 315 536 q 438 624 391 607 q 542 641 486 641 q 661 617 608 641 q 755 546 714 593 q 815 445 795 500 q 836 323 836 389 z "},"7":{"ha":876,"x_min":35,"x_max":824,"o":"m 315 663 q 290 603 315 628 q 230 578 265 578 q 170 603 195 578 q 145 663 145 628 q 170 723 145 698 q 230 748 195 748 q 290 723 265 748 q 315 663 315 698 m 824 1095 l 526 -40 l 236 61 l 669 1006 l 35 910 l 85 1187 l 824 1095 m 585 504 l 561 535 q 475 369 514 459 q 406 173 436 278 l 469 147 q 513 330 484 241 q 585 504 543 419 z "},"8":{"ha":892,"x_min":62,"x_max":848,"o":"m 848 348 q 819 202 848 269 q 729 81 789 135 q 603 1 670 29 q 456 -26 535 -26 q 308 1 376 -26 q 181 81 240 28 q 92 202 121 135 q 62 348 62 269 q 114 532 62 447 q 253 669 165 618 q 158 766 190 710 q 127 892 127 821 q 151 1002 127 951 q 221 1093 174 1052 q 320 1151 267 1132 q 434 1170 374 1170 q 549 1151 496 1170 q 648 1093 602 1131 q 719 1002 696 1052 q 743 892 743 951 q 716 774 743 827 q 635 680 690 721 q 790 544 732 633 q 848 348 848 454 m 597 1024 q 495 1090 549 1069 q 381 1112 441 1112 l 363 1112 l 319 760 q 371 722 340 734 q 443 709 402 709 q 480 713 463 709 q 512 725 497 717 l 597 1024 m 639 422 l 553 403 l 540 444 l 626 479 q 596 545 616 515 q 547 599 576 574 l 498 486 l 454 509 l 500 626 q 459 642 481 636 q 412 648 437 648 q 385 645 399 648 q 357 639 371 643 l 385 532 l 329 525 l 304 618 q 231 549 260 591 q 190 452 203 508 l 272 459 l 275 406 l 186 398 q 193 340 186 368 q 212 289 199 313 l 279 340 l 312 301 l 246 233 q 306 183 274 202 q 372 159 337 165 l 374 264 l 431 264 l 433 157 q 503 176 470 160 q 566 221 536 192 l 509 292 l 533 323 l 595 258 q 628 330 618 289 q 639 422 639 371 z "},"9":{"ha":958,"x_min":26,"x_max":879,"o":"m 879 8 l 591 -61 l 599 20 l 707 40 l 707 94 l 604 76 l 609 138 l 707 151 l 703 206 l 616 199 l 621 258 l 701 267 l 701 322 l 626 320 l 648 545 q 566 503 610 518 q 471 486 522 488 l 460 381 l 393 391 l 399 488 q 312 512 353 494 q 231 559 270 530 l 151 471 l 99 514 l 190 599 q 153 650 168 624 q 127 703 137 675 l 47 672 l 26 739 l 109 766 q 106 794 107 782 q 106 817 106 807 q 111 877 106 848 q 127 931 117 905 l 33 979 l 62 1044 l 157 994 q 214 1060 182 1031 q 288 1112 247 1090 l 251 1194 l 306 1219 l 340 1133 q 391 1146 364 1141 q 448 1151 418 1151 q 491 1148 470 1151 q 533 1141 513 1146 l 564 1225 l 628 1204 l 590 1122 q 648 1090 621 1108 q 697 1048 674 1072 l 710 1164 l 817 1177 l 879 8 m 672 784 q 610 937 672 873 q 459 1000 547 1000 q 309 937 370 1000 q 248 784 248 873 q 309 632 248 696 q 459 568 371 568 q 609 632 547 568 q 672 784 672 696 z "}," ":{"ha":346,"x_min":0,"x_max":0,"o":""},"!":{"ha":545,"x_min":138,"x_max":406,"o":"m 406 1175 l 322 326 l 218 313 l 168 819 l 231 831 l 231 873 l 165 859 l 159 900 l 228 917 l 224 961 l 155 945 l 151 992 l 224 1010 l 221 1052 l 147 1034 l 138 1112 l 406 1175 m 389 99 q 354 11 389 47 q 267 -26 318 -26 q 179 11 216 -26 q 142 99 142 47 q 178 188 142 151 q 267 224 215 224 q 354 188 318 224 q 389 99 389 151 m 310 116 q 294 159 310 140 q 254 178 277 178 q 215 159 231 178 q 199 116 199 140 q 215 73 199 92 q 254 54 231 54 q 294 73 278 54 q 310 116 310 92 z "},"\"":{"ha":673,"x_min":121,"x_max":535,"o":"m 323 1146 l 264 648 l 189 648 l 159 842 l 210 857 l 206 897 l 154 885 l 147 931 l 197 943 l 192 981 l 140 972 l 137 1014 l 185 1028 l 183 1067 l 130 1054 l 121 1108 l 323 1146 m 535 588 l 340 570 l 403 1086 l 486 1083 l 535 588 m 483 831 q 473 860 483 850 q 443 870 463 870 q 413 860 423 870 q 403 831 403 850 q 413 801 403 810 q 443 791 423 791 q 473 801 463 791 q 483 831 483 810 m 490 694 q 477 732 490 719 q 437 745 464 745 q 402 732 414 745 q 389 694 389 719 q 402 656 389 669 q 437 644 414 644 q 477 656 464 644 q 490 694 490 669 z "},"#":{"ha":814,"x_min":24,"x_max":800,"o":"m 800 386 l 625 386 l 625 15 l 511 38 l 511 345 l 313 345 l 313 38 l 199 15 l 199 386 l 24 386 l 24 444 l 201 444 l 201 746 l 24 746 l 24 804 l 199 804 l 165 1151 l 313 1153 l 313 846 l 511 846 l 511 1153 l 659 1151 l 625 804 l 800 804 l 800 746 l 623 746 l 623 444 l 800 444 l 800 386 m 570 718 q 553 759 570 741 q 512 776 536 776 q 472 759 489 776 q 456 718 456 741 q 472 678 456 696 q 512 661 489 661 q 553 678 536 661 q 570 718 570 696 m 370 718 q 353 759 370 741 q 313 776 336 776 q 273 759 290 776 q 256 718 256 741 q 273 678 256 696 q 313 661 290 661 q 353 678 336 661 q 370 718 370 696 m 570 467 q 553 508 570 490 q 512 525 536 525 q 472 508 489 525 q 456 467 456 490 q 472 427 456 444 q 512 410 489 410 q 553 427 536 410 q 570 467 570 444 m 370 467 q 353 508 370 490 q 313 525 336 525 q 273 508 290 525 q 256 467 256 490 q 273 427 256 444 q 313 410 290 410 q 353 427 336 410 q 370 467 370 444 z "},"$":{"ha":677,"x_min":41,"x_max":616,"o":"m 616 879 q 582 795 616 829 q 497 762 547 762 q 471 765 484 762 q 446 775 458 768 q 426 793 433 783 q 418 817 418 803 q 429 844 418 831 q 463 867 440 857 l 461 861 q 469 836 457 844 q 500 827 480 827 q 535 840 524 827 q 547 879 547 852 q 520 921 547 907 q 439 935 494 935 q 352 901 389 935 q 315 817 315 867 q 334 766 315 790 q 389 721 353 742 q 481 666 446 687 q 526 634 515 644 q 581 552 563 599 q 599 447 599 505 q 567 323 599 378 q 471 227 535 269 l 514 0 l 422 -20 l 389 189 q 358 181 374 183 q 326 178 342 178 l 319 -7 l 231 -3 l 246 183 q 126 229 178 195 q 41 322 75 264 l 99 368 q 187 285 141 313 q 282 258 233 258 q 388 295 353 258 q 422 406 422 332 q 416 468 422 441 q 395 514 409 495 q 362 546 385 529 q 304 581 339 563 q 192 673 229 621 q 154 787 154 724 q 188 907 154 855 q 291 994 222 958 l 258 1196 l 351 1208 l 379 1019 l 422 1021 l 436 1156 l 530 1143 l 504 1007 q 588 957 560 989 q 616 879 616 925 z "},"%":{"ha":1404,"x_min":69,"x_max":1326,"o":"m 602 905 q 525 709 602 792 q 336 626 448 626 q 146 709 223 626 q 69 905 69 792 q 146 1101 69 1019 q 336 1184 223 1184 q 525 1101 448 1184 q 602 905 602 1019 m 1034 1146 l 467 -81 l 231 52 l 304 175 l 385 127 l 412 180 l 336 227 l 372 291 l 443 248 l 471 292 l 401 340 l 439 406 l 502 365 l 530 410 l 467 454 l 907 1204 l 1034 1146 m 1326 339 l 1258 323 q 1266 289 1263 307 q 1268 253 1268 271 q 1264 205 1268 229 q 1251 157 1260 182 l 1305 138 l 1283 81 l 1227 113 q 1177 56 1206 79 q 1109 17 1147 32 l 1125 -62 l 1061 -66 l 1050 1 q 982 6 1013 1 q 931 20 952 10 l 907 -52 l 836 -33 l 879 48 q 831 94 852 68 q 798 152 811 119 l 743 134 l 720 189 l 781 208 q 778 227 779 216 q 777 253 777 237 q 781 299 777 276 q 793 343 785 322 l 739 357 l 749 413 l 815 389 q 867 446 838 422 q 931 484 896 470 l 902 564 l 954 585 l 988 500 q 1007 503 999 502 q 1023 504 1016 504 q 1061 500 1042 504 q 1099 490 1080 497 l 1135 571 l 1192 543 l 1151 467 q 1200 427 1178 450 q 1240 372 1223 403 l 1319 396 l 1326 339 m 481 916 q 475 963 481 940 q 457 1007 469 985 l 412 955 l 370 986 l 419 1048 q 372 1074 396 1065 q 322 1083 347 1083 q 305 1082 315 1083 q 281 1077 294 1080 l 312 979 l 267 962 l 231 1055 q 177 994 195 1029 q 159 916 159 959 q 161 893 159 906 q 166 865 163 880 l 248 902 l 274 862 l 193 814 q 248 765 217 782 q 317 748 279 749 l 309 819 l 355 827 l 370 756 q 421 784 399 766 q 457 827 444 802 l 398 865 l 422 905 l 477 879 q 480 893 479 884 q 481 916 481 903 m 1189 268 q 1149 373 1189 328 q 1050 418 1109 418 q 997 406 1022 418 q 952 371 972 394 q 923 323 933 349 q 913 268 913 298 q 924 213 913 238 q 952 168 934 189 q 997 134 972 144 q 1050 123 1022 123 q 1149 166 1109 123 q 1189 268 1189 210 z "},"&":{"ha":1009,"x_min":104,"x_max":923,"o":"m 923 528 l 770 535 l 732 106 q 585 30 657 55 q 441 5 512 5 q 310 21 368 5 q 205 68 251 37 q 129 157 155 104 q 104 281 104 210 q 159 478 104 391 q 323 632 214 566 q 235 714 264 663 q 205 839 205 766 q 304 1059 205 961 q 525 1156 403 1156 q 593 1146 561 1156 q 650 1116 625 1135 q 695 1066 680 1095 q 710 1002 710 1037 q 679 918 710 951 q 585 869 648 885 l 538 917 q 571 954 560 933 q 581 1000 581 975 q 561 1050 581 1034 q 499 1067 541 1067 q 434 1048 463 1067 q 385 995 405 1030 q 361 931 369 966 q 353 855 353 896 q 367 782 353 814 q 408 727 381 749 q 468 694 435 705 q 543 684 502 684 q 585 686 564 684 q 629 694 607 689 l 642 639 l 682 649 l 670 701 l 711 708 l 725 650 l 765 657 l 753 715 l 794 722 l 810 661 l 846 672 l 832 728 l 877 735 l 923 528 m 298 456 q 286 492 298 479 q 250 504 274 504 q 214 492 226 504 q 201 456 201 479 q 214 419 201 431 q 250 406 226 406 q 286 419 274 406 q 298 456 298 431 m 608 100 l 547 552 q 481 559 515 552 q 412 581 447 566 q 339 460 363 532 q 315 296 315 389 q 325 204 315 245 q 355 134 334 164 q 415 79 379 97 q 498 61 451 61 q 549 71 522 61 q 608 100 576 80 m 270 302 q 252 347 270 329 q 208 365 233 365 q 163 347 182 365 q 145 302 145 329 q 163 259 145 277 q 208 241 182 241 q 252 259 233 241 q 270 302 270 277 m 298 147 q 286 183 298 171 q 250 195 274 195 q 214 183 226 195 q 201 147 201 171 q 214 111 201 123 q 250 99 226 99 q 286 111 274 99 q 298 147 298 123 z "},"'":{"ha":459,"x_min":114,"x_max":355,"o":"m 355 1204 l 288 601 l 195 601 l 161 839 l 218 854 l 218 903 l 154 886 l 145 947 l 205 958 l 199 1006 l 137 994 l 128 1047 l 190 1061 l 189 1108 l 124 1092 l 114 1160 l 355 1204 z "},"(":{"ha":779,"x_min":224,"x_max":635,"o":"m 635 20 l 410 -147 q 271 199 318 22 q 224 561 224 376 q 250 765 224 659 q 326 989 275 872 q 444 1200 380 1112 q 581 1343 508 1289 l 635 1298 q 551 1172 588 1244 q 488 1009 514 1099 q 452 848 464 928 q 441 686 441 767 q 490 383 441 549 q 635 20 538 216 m 393 470 q 380 504 393 492 q 344 516 368 516 q 308 504 320 516 q 296 467 296 492 q 310 434 296 449 q 342 419 323 419 q 380 432 368 419 q 393 470 393 444 m 444 295 q 426 339 444 320 q 381 357 408 357 q 338 338 356 357 q 319 294 319 319 q 338 252 319 270 q 382 233 357 233 q 426 252 408 233 q 444 295 444 271 m 483 123 q 471 158 483 146 q 435 170 459 170 q 398 157 411 170 q 386 120 386 144 q 398 85 386 96 q 434 73 411 73 q 471 86 459 73 q 483 123 483 98 z "},")":{"ha":779,"x_min":144,"x_max":553,"o":"m 553 635 q 528 430 553 538 q 452 207 503 323 q 335 -4 399 85 q 197 -147 271 -93 l 144 -102 q 229 24 192 -48 q 292 186 267 96 q 327 348 315 268 q 339 511 339 429 q 290 815 339 648 q 144 1177 241 981 l 368 1343 q 507 997 461 1174 q 553 635 553 820 m 394 1074 q 382 1110 394 1098 q 345 1122 370 1122 q 309 1110 321 1122 q 296 1074 296 1098 q 308 1038 296 1050 q 343 1026 320 1026 q 381 1038 368 1026 q 394 1074 394 1050 m 460 901 q 442 945 460 927 q 397 962 423 962 q 354 944 372 962 q 336 901 336 926 q 354 857 336 876 q 398 838 372 838 q 442 857 423 838 q 460 901 460 876 m 484 727 q 470 762 484 746 q 436 777 456 777 q 399 765 412 777 q 387 728 387 753 q 399 692 387 704 q 434 680 411 680 q 471 691 459 680 q 484 727 484 703 z "},"*":{"ha":696,"x_min":86,"x_max":644,"o":"m 644 1035 l 535 997 q 536 987 536 992 q 536 976 536 982 q 527 921 536 947 q 498 872 518 895 l 566 765 l 474 713 l 426 821 q 397 812 412 814 q 365 810 382 810 q 332 813 348 810 q 299 824 315 817 l 213 710 l 132 773 l 230 876 q 202 925 212 896 q 195 992 193 954 l 86 1024 l 121 1106 l 221 1067 q 266 1114 240 1095 q 326 1141 292 1133 l 317 1270 l 419 1270 l 412 1139 q 467 1113 443 1131 q 511 1068 492 1095 l 606 1112 l 644 1035 z "},"+":{"ha":682,"x_min":69,"x_max":619,"o":"m 619 514 l 372 514 l 372 282 l 317 282 l 317 514 l 69 514 l 78 644 l 317 644 l 317 869 l 372 869 l 372 644 l 611 644 l 619 514 m 454 549 l 454 604 l 228 604 l 228 549 l 454 549 z "},",":{"ha":459,"x_min":64,"x_max":393,"o":"m 393 155 l 340 134 q 344 101 344 120 q 340 59 344 83 l 389 47 l 381 -10 l 329 7 q 306 -51 319 -24 q 277 -102 293 -78 l 322 -144 l 282 -186 l 246 -142 q 225 -163 237 -152 q 199 -185 214 -174 l 159 -149 q 211 -84 195 -120 q 228 -5 228 -48 l 228 0 q 196 4 212 0 q 168 15 181 7 l 128 -33 l 85 7 l 138 47 q 125 77 130 58 q 123 119 121 95 l 64 137 l 85 189 l 140 161 q 164 190 151 178 q 197 208 178 201 l 185 251 l 248 260 l 251 213 q 289 203 271 212 q 320 178 306 195 l 368 210 l 393 155 z "},"-":{"ha":682,"x_min":106,"x_max":576,"o":"m 576 279 l 419 251 l 406 317 l 365 312 l 375 244 l 332 236 l 317 302 l 277 299 l 289 228 l 244 221 l 233 292 l 186 286 l 197 213 l 145 205 l 106 439 l 573 399 l 576 279 z "},".":{"ha":459,"x_min":106,"x_max":353,"o":"m 353 99 q 317 11 353 47 q 230 -26 281 -26 q 142 11 179 -26 q 106 99 106 47 q 142 188 106 151 q 230 224 178 224 q 317 188 281 224 q 353 99 353 151 m 274 116 q 257 159 274 140 q 218 178 241 178 q 179 159 195 178 q 163 116 163 140 q 179 73 163 92 q 218 54 195 54 q 258 73 241 54 q 274 116 274 92 z "},"/":{"ha":921,"x_min":76,"x_max":951,"o":"m 951 1201 l 386 -147 l 76 45 l 104 102 l 180 54 l 236 157 l 159 206 l 190 251 l 261 208 l 320 315 l 246 358 l 274 406 l 343 361 l 389 446 l 319 498 l 343 540 l 413 492 l 463 587 l 391 628 l 412 670 l 484 628 l 538 727 l 467 773 l 488 815 l 564 776 l 609 861 l 533 899 l 557 937 l 632 902 l 672 979 l 599 1017 l 623 1062 l 699 1028 l 739 1105 l 669 1139 l 689 1184 l 762 1147 l 801 1222 l 730 1257 l 751 1298 l 951 1201 z "},":":{"ha":459,"x_min":106,"x_max":353,"o":"m 353 463 q 317 374 353 411 q 230 337 281 337 q 142 374 178 337 q 106 463 106 411 q 142 551 106 514 q 230 588 178 588 q 317 551 281 588 q 353 463 353 514 m 353 99 q 317 11 353 47 q 230 -26 281 -26 q 142 11 179 -26 q 106 99 106 47 q 142 188 106 151 q 230 224 178 224 q 317 188 281 224 q 353 99 353 151 m 274 477 q 257 520 274 501 q 218 540 241 540 q 179 520 195 540 q 163 477 163 501 q 179 435 163 454 q 218 416 195 416 q 257 435 241 416 q 274 477 274 454 m 274 116 q 257 159 274 140 q 218 178 241 178 q 179 159 195 178 q 163 116 163 140 q 179 73 163 92 q 218 54 195 54 q 258 73 241 54 q 274 116 274 92 z "},";":{"ha":459,"x_min":64,"x_max":393,"o":"m 357 463 q 321 374 357 411 q 233 337 286 337 q 145 374 182 337 q 109 463 109 411 q 145 551 109 514 q 233 588 182 588 q 321 551 285 588 q 357 463 357 514 m 393 155 l 340 134 q 344 101 344 120 q 340 59 344 83 l 389 47 l 381 -10 l 329 7 q 306 -51 319 -24 q 277 -102 293 -78 l 322 -144 l 282 -186 l 246 -142 q 225 -163 237 -152 q 199 -185 214 -174 l 159 -149 q 211 -84 195 -120 q 228 -5 228 -48 l 228 0 q 196 4 212 0 q 168 15 181 7 l 128 -33 l 85 7 l 138 47 q 125 77 130 58 q 123 119 121 95 l 64 137 l 85 189 l 140 161 q 164 190 151 178 q 197 208 178 201 l 185 251 l 248 260 l 251 213 q 289 203 271 212 q 320 178 306 195 l 368 210 l 393 155 m 277 477 q 261 520 277 501 q 221 540 244 540 q 182 520 199 540 q 166 477 166 501 q 182 435 166 454 q 221 416 199 416 q 261 435 244 416 q 277 477 277 454 z "},"<":{"ha":705,"x_min":61,"x_max":632,"o":"m 632 718 l 336 474 l 626 256 l 553 168 l 161 365 l 61 528 l 119 563 l 161 495 l 203 517 l 161 588 l 210 618 l 254 545 l 296 576 l 256 644 l 306 673 l 339 614 l 382 641 l 350 699 l 555 825 l 632 718 z "},"=":{"ha":682,"x_min":38,"x_max":646,"o":"m 646 682 l 637 543 l 52 611 l 43 682 l 646 682 m 635 358 l 38 337 l 47 476 l 626 456 l 635 358 m 593 637 l 306 650 l 306 625 l 576 587 l 593 637 m 180 406 q 168 445 180 432 q 130 457 155 457 q 92 445 105 457 q 79 406 79 432 q 92 370 79 382 q 130 358 105 358 q 168 370 155 358 q 180 406 180 382 z "},">":{"ha":705,"x_min":75,"x_max":545,"o":"m 545 413 l 151 168 l 75 275 l 370 519 l 79 737 l 152 825 l 545 628 l 545 413 m 490 593 q 474 631 490 615 q 436 648 458 648 q 398 631 414 648 q 382 593 382 615 q 398 556 382 572 q 436 540 414 540 q 474 556 458 540 q 490 593 490 572 m 477 443 q 462 481 477 465 q 425 497 446 497 q 386 481 402 497 q 370 443 370 465 q 386 405 370 421 q 425 389 402 389 q 462 405 446 389 q 477 443 477 421 z "},"?":{"ha":800,"x_min":66,"x_max":800,"o":"m 800 855 l 722 857 q 710 783 722 818 q 675 717 699 748 l 755 670 l 711 612 l 644 677 q 601 642 628 659 q 538 609 574 625 l 597 526 l 528 486 l 484 587 q 457 578 470 581 q 431 573 444 574 l 410 327 l 309 304 l 248 590 q 368 614 313 595 q 467 663 422 633 q 545 749 519 700 q 571 859 571 798 q 560 937 571 902 q 525 1000 549 972 q 467 1041 500 1027 q 389 1055 433 1055 q 337 1048 361 1055 q 292 1028 313 1041 q 255 992 267 1013 q 243 945 243 971 q 262 886 243 906 q 319 867 281 867 q 361 877 341 867 q 396 909 380 887 l 429 882 q 399 845 416 862 q 360 817 382 829 l 391 753 l 322 728 l 302 796 q 287 793 296 793 q 267 792 278 792 q 202 805 230 792 q 157 842 175 817 l 85 803 l 66 872 l 138 895 q 136 907 137 901 q 135 921 135 913 q 149 982 135 952 q 189 1038 162 1012 l 128 1090 l 176 1153 l 236 1077 q 306 1108 269 1096 q 385 1126 343 1120 l 379 1204 l 443 1212 l 443 1128 q 520 1117 484 1126 q 587 1088 556 1107 l 641 1158 l 689 1115 l 628 1061 q 686 991 663 1028 q 717 912 708 954 l 794 935 l 800 855 m 481 102 q 445 13 481 51 q 357 -24 408 -24 q 270 13 306 -24 q 233 102 233 51 q 270 190 233 153 q 357 227 306 227 q 444 190 408 227 q 481 102 481 153 m 401 85 q 386 128 401 109 q 347 147 370 147 q 305 132 319 147 q 291 85 291 116 q 307 42 291 61 q 347 23 323 23 q 386 42 370 23 q 401 85 401 62 z "},"@":{"ha":1135,"x_min":24,"x_max":1097,"o":"m 1097 616 q 966 515 1035 561 q 821 433 897 469 q 655 369 734 391 q 504 348 576 348 q 424 358 460 348 q 357 388 387 368 q 303 443 321 411 q 285 515 285 474 q 309 602 285 560 q 380 682 333 643 q 463 735 418 713 q 557 772 507 758 q 526 816 547 801 q 473 831 505 831 q 391 811 430 831 q 319 751 353 791 l 275 796 q 389 902 321 867 q 545 938 456 938 q 665 902 612 938 q 755 795 718 866 q 800 676 783 741 q 822 533 817 610 q 920 588 876 559 q 999 649 964 617 q 858 939 985 821 q 559 1057 731 1057 q 249 927 378 1057 q 119 616 119 798 q 249 304 119 434 q 561 175 379 175 l 561 79 q 182 237 339 79 q 24 616 24 395 q 182 995 24 838 q 561 1153 339 1153 q 940 995 783 1153 q 1097 616 1097 838 m 966 263 l 899 197 l 842 279 l 888 323 l 966 263 m 854 165 l 773 121 l 739 213 l 796 243 l 854 165 m 717 100 l 635 85 l 621 178 l 684 193 l 717 100 m 705 682 q 696 708 705 699 q 670 717 688 717 q 644 708 653 717 q 635 682 635 699 q 644 656 635 664 q 670 648 653 648 q 696 656 688 648 q 705 682 705 664 m 616 464 l 616 473 q 608 587 616 531 q 581 697 600 643 q 497 668 535 684 q 431 635 460 652 l 486 434 q 557 441 525 434 q 616 464 590 449 m 763 549 q 747 585 763 570 q 711 601 732 601 q 675 585 690 601 q 659 549 659 570 q 675 513 659 528 q 711 497 690 497 q 747 513 732 497 q 763 549 763 528 z "},"A":{"ha":1105,"x_min":0,"x_max":1070,"o":"m 1070 35 l 950 7 l 869 254 l 382 261 l 261 -69 l 0 111 l 511 1158 l 699 1174 l 1070 35 m 762 578 l 634 1034 l 459 509 l 762 578 m 829 374 l 789 492 l 425 401 l 403 347 l 829 374 m 327 446 l 302 477 q 216 306 254 396 q 151 116 178 216 l 213 90 q 255 272 227 182 q 327 446 284 361 z "},"B":{"ha":945,"x_min":96,"x_max":885,"o":"m 885 357 q 848 194 885 264 q 739 73 812 123 q 597 9 677 31 q 420 -12 517 -12 q 288 -3 357 -12 q 144 23 219 5 l 96 1174 q 160 1179 128 1177 q 220 1181 191 1181 q 376 1166 304 1181 q 508 1120 448 1151 q 622 1023 584 1080 q 659 889 659 965 q 651 822 659 856 q 626 753 643 787 q 813 593 742 703 q 885 357 885 483 m 469 724 l 439 1072 q 408 1090 430 1081 q 351 1108 386 1099 l 301 621 q 400 665 358 640 q 469 724 443 691 m 646 467 q 624 578 646 528 q 555 669 601 628 q 436 589 501 621 q 294 542 371 557 l 254 111 q 399 139 332 113 q 524 212 467 165 q 616 327 586 263 q 646 467 646 391 m 800 365 q 788 401 800 389 q 751 413 776 413 q 715 401 727 413 q 703 365 703 389 q 715 329 703 340 q 751 317 727 317 q 788 329 776 317 q 800 365 800 340 m 749 206 q 731 250 749 231 q 687 268 713 268 q 643 250 661 268 q 625 206 625 231 q 643 162 625 180 q 687 144 661 144 q 731 162 713 144 q 749 206 749 180 m 597 102 q 585 138 597 126 q 549 151 573 151 q 513 138 525 151 q 500 102 500 126 q 513 66 500 78 q 549 54 525 54 q 585 66 573 54 q 597 102 597 78 m 549 514 q 437 361 487 441 q 350 197 388 282 l 310 195 q 386 373 341 285 q 490 547 431 460 l 549 514 z "},"C":{"ha":1040,"x_min":43,"x_max":994,"o":"m 994 388 l 931 388 q 925 329 931 358 q 907 270 920 299 l 979 237 l 958 192 l 885 224 q 840 166 865 193 q 783 119 814 140 l 817 37 l 763 5 l 725 90 q 638 66 681 72 q 555 68 595 61 l 536 -30 l 476 -14 l 500 75 q 443 91 471 81 q 391 111 416 100 l 345 33 l 296 71 l 337 142 q 280 190 307 163 q 230 251 254 217 l 149 208 l 121 254 l 201 301 q 162 410 176 353 q 147 532 149 467 l 59 517 l 43 578 l 149 591 q 166 702 153 648 q 199 808 178 756 l 116 864 l 154 917 l 227 865 q 267 927 247 899 q 309 979 288 956 l 248 1062 l 292 1097 l 351 1023 q 418 1073 385 1051 q 486 1108 452 1095 l 467 1189 l 532 1201 l 542 1125 q 586 1133 564 1130 q 632 1135 609 1135 q 679 1132 656 1135 q 724 1122 701 1128 l 743 1201 l 796 1187 l 770 1099 q 821 1058 797 1082 q 864 1002 844 1034 l 924 1044 l 959 989 l 892 950 q 909 907 902 926 q 921 872 917 887 l 857 846 q 749 964 810 924 q 609 1004 687 1004 q 486 976 543 1004 q 385 890 430 947 q 323 777 343 838 q 302 648 302 715 q 321 510 302 572 q 379 399 340 448 q 479 318 422 345 q 609 291 536 291 q 770 349 707 291 q 834 504 834 408 l 895 528 q 914 486 907 508 q 926 437 922 463 l 994 437 l 994 388 z "},"D":{"ha":994,"x_min":96,"x_max":924,"o":"m 924 631 q 855 366 924 484 q 645 159 785 248 q 397 43 534 88 q 96 -20 260 -1 l 170 1210 q 479 1168 348 1198 q 693 1088 610 1137 q 867 905 809 1020 q 924 631 924 791 m 715 629 l 715 697 l 618 701 l 609 789 l 703 793 l 699 855 l 599 865 l 576 1062 q 466 1104 526 1086 q 337 1132 406 1122 l 351 100 q 482 140 418 115 q 606 199 546 165 l 612 456 l 703 460 l 711 530 l 614 533 l 616 623 l 715 629 m 505 631 q 502 522 505 574 q 490 422 498 469 l 456 441 q 457 485 457 463 q 458 531 458 507 q 450 680 458 608 q 428 817 443 751 l 495 817 q 503 725 500 772 q 505 631 505 679 z "},"E":{"ha":842,"x_min":96,"x_max":825,"o":"m 591 917 l 571 737 l 413 776 l 466 886 l 591 917 m 825 872 l 717 841 q 686 960 711 913 q 614 1030 661 1007 q 533 1053 589 1042 q 391 1070 477 1063 l 339 623 l 686 641 l 599 446 l 322 505 l 261 52 l 515 48 l 604 178 l 746 186 l 749 -30 l 96 7 l 134 715 l 224 710 l 239 768 l 135 770 l 140 852 l 239 844 l 250 917 l 144 917 l 147 997 l 246 989 l 260 1052 l 151 1057 l 157 1181 q 292 1170 224 1175 q 428 1161 360 1165 q 572 1134 509 1152 q 680 1088 635 1116 q 775 999 739 1053 q 825 872 811 945 z "},"F":{"ha":756,"x_min":96,"x_max":810,"o":"m 810 1232 q 757 1096 810 1150 q 597 1014 704 1042 q 474 995 560 1004 q 254 976 388 985 l 291 692 l 612 745 l 637 663 l 304 612 l 310 580 l 635 602 l 634 494 l 323 483 l 395 7 l 96 -33 l 96 88 l 195 113 l 193 173 l 96 161 l 97 253 l 189 268 l 186 330 l 97 319 l 97 406 l 185 422 l 182 483 l 99 477 l 117 1112 l 450 1116 q 579 1124 526 1118 q 661 1139 632 1130 q 743 1198 717 1158 q 765 1298 769 1238 l 803 1291 q 808 1260 806 1275 q 810 1232 810 1246 z "},"G":{"ha":1044,"x_min":68,"x_max":992,"o":"m 992 566 q 965 361 989 454 q 896 193 941 268 q 762 56 841 102 q 581 9 684 9 q 376 58 470 9 q 208 202 283 106 q 103 393 138 292 q 68 610 68 495 q 99 816 68 721 q 193 988 130 911 q 349 1113 261 1071 q 546 1154 437 1154 q 648 1140 599 1154 q 743 1097 698 1126 q 821 1030 787 1068 q 880 945 856 992 l 834 933 q 780 968 812 957 q 705 980 748 980 q 537 930 614 980 q 398 781 460 880 q 316 601 343 693 q 288 413 288 509 q 306 284 288 343 q 358 180 323 226 q 451 102 397 128 q 572 77 505 77 q 669 105 626 77 q 745 189 712 133 q 787 287 772 235 q 806 399 803 340 l 495 372 l 476 471 l 766 500 l 519 561 l 526 670 l 992 566 m 457 966 q 445 1002 457 989 q 408 1014 433 1014 q 372 1002 385 1014 q 360 966 360 989 q 374 932 360 947 q 408 917 389 917 q 445 929 433 917 q 457 966 457 941 m 332 864 q 314 908 332 889 q 270 926 296 926 q 226 908 244 926 q 208 864 208 889 q 226 820 208 838 q 270 801 244 801 q 314 820 296 801 q 332 864 332 838 m 254 703 q 242 739 254 727 q 206 751 231 751 q 170 739 182 751 q 157 703 157 727 q 172 669 157 684 q 206 654 186 654 q 240 669 226 654 q 254 703 254 684 z "},"H":{"ha":928,"x_min":96,"x_max":850,"o":"m 574 913 q 549 855 574 880 q 490 831 524 831 q 430 855 456 831 q 405 913 405 880 q 430 974 405 949 q 490 999 454 999 q 550 974 525 999 q 574 913 574 949 m 850 20 l 614 5 l 578 525 l 337 504 l 357 -35 l 96 7 l 147 1154 l 299 1170 l 326 765 l 670 749 l 659 1161 l 838 1158 l 803 795 q 790 660 794 705 q 786 614 786 614 q 788 566 786 591 q 793 515 789 541 q 803 445 800 469 q 807 416 806 420 l 850 20 m 679 634 l 675 679 l 329 703 l 332 595 l 679 634 z "},"I":{"ha":456,"x_min":104,"x_max":456,"o":"m 456 1086 q 377 778 409 909 q 330 564 346 648 q 293 297 306 432 q 277 26 279 162 l 116 8 q 107 147 110 76 q 104 293 104 218 q 123 692 104 481 q 180 1133 142 902 l 456 1086 m 350 938 l 326 969 q 240 803 278 893 q 172 608 201 712 l 233 581 q 279 765 250 675 q 350 938 308 854 z "},"J":{"ha":865,"x_min":26,"x_max":890,"o":"m 890 1128 l 876 1004 l 692 997 q 692 960 692 997 q 692 852 692 924 l 787 846 l 777 745 l 689 755 q 682 666 686 705 q 675 601 679 628 l 762 601 l 748 490 l 661 497 q 529 108 618 237 q 305 -21 440 -21 q 189 9 241 -21 q 96 99 137 39 q 44 211 61 151 q 26 340 26 271 q 35 428 26 385 q 61 512 44 471 l 147 519 q 139 448 142 484 q 136 376 136 412 q 142 277 136 323 q 157 189 147 230 q 174 327 160 263 q 215 444 189 391 l 289 436 q 267 362 275 401 q 260 277 260 322 q 281 144 260 189 q 346 100 302 100 q 422 175 391 100 q 474 399 454 250 q 491 577 486 485 q 496 766 496 669 q 494 887 496 829 q 488 997 492 945 q 366 1013 419 1000 q 276 1046 312 1025 q 201 1118 231 1074 q 161 1225 172 1163 l 210 1236 q 310 1153 230 1181 q 530 1126 389 1126 l 890 1128 z "},"K":{"ha":958,"x_min":96,"x_max":992,"o":"m 675 564 q 663 528 675 540 q 626 515 650 515 q 589 528 602 515 q 576 564 576 540 q 589 600 576 588 q 626 612 602 612 q 663 600 650 612 q 675 564 675 588 m 919 88 l 718 -56 l 313 609 l 330 23 l 96 -20 l 145 1125 l 298 1143 l 310 684 q 502 761 418 718 q 644 850 586 803 q 766 988 718 910 q 834 1163 813 1067 l 913 1139 q 863 937 899 1023 q 770 793 827 851 q 642 700 724 745 q 444 612 561 655 l 919 88 m 772 439 q 760 403 772 415 q 724 391 748 391 q 688 403 700 391 q 675 439 675 415 q 688 476 675 464 q 724 488 700 488 q 760 476 748 488 q 772 439 772 464 m 880 312 q 869 275 880 288 q 832 263 857 263 q 797 275 809 263 q 784 312 784 288 q 797 348 784 336 q 832 360 809 360 q 869 348 857 360 q 880 312 880 336 m 992 182 q 980 145 992 157 q 943 134 968 134 q 907 145 920 134 q 895 182 895 157 q 907 218 895 205 q 943 230 920 230 q 980 218 968 230 q 992 182 992 205 z "},"L":{"ha":950,"x_min":96,"x_max":951,"o":"m 951 186 q 909 91 951 130 q 783 33 867 52 q 649 15 735 22 q 439 5 563 7 q 253 -4 326 2 q 151 -23 181 -11 l 190 552 l 96 559 l 102 675 l 199 679 l 208 806 l 107 814 l 114 928 l 216 924 l 224 1059 l 119 1070 l 121 1175 l 509 1147 l 317 132 l 345 133 q 410 131 372 134 q 498 124 449 128 q 590 117 552 119 q 652 115 628 115 q 812 145 759 115 q 866 236 866 175 q 861 280 866 256 q 844 330 855 303 l 895 358 q 937 265 923 308 q 951 186 951 222 m 720 463 q 695 402 720 428 q 635 377 670 377 q 575 402 600 377 q 550 463 550 428 q 575 520 550 496 q 635 545 601 545 q 695 520 669 545 q 720 463 720 496 z "},"M":{"ha":1306,"x_min":-121,"x_max":1225,"o":"m 1225 5 l 888 -33 l 916 725 l 561 130 l 258 497 q 205 297 233 385 q 144 145 176 210 q 43 -8 102 60 q -94 -128 -17 -77 l -121 -71 q 41 129 -25 0 q 145 444 107 258 l 292 1168 l 646 507 l 961 1146 l 1113 1141 l 1225 5 m 570 381 l 326 803 l 291 623 l 530 310 l 570 381 m 1082 519 l 1082 545 l 1045 532 q 1020 343 1040 435 q 966 165 1000 252 l 1034 154 q 1070 348 1059 256 q 1082 519 1082 439 z "},"N":{"ha":1201,"x_min":0,"x_max":1084,"o":"m 1084 712 q 1084 670 1084 691 q 1082 626 1083 648 l 1047 -71 l 304 684 l 274 37 l 0 35 l 81 254 l 213 261 l 270 1210 l 923 405 q 935 534 928 470 q 947 664 941 599 q 958 806 954 741 q 961 924 961 871 q 935 1122 961 1035 q 857 1274 909 1210 l 902 1301 q 1039 1055 993 1202 q 1084 712 1084 907 m 512 728 q 500 765 512 753 q 464 777 488 777 q 428 765 440 777 q 416 728 416 753 q 428 692 416 704 q 464 680 440 680 q 500 692 488 680 q 512 728 512 704 m 701 521 q 682 566 701 547 q 639 585 664 585 q 593 566 612 585 q 574 521 574 547 q 593 477 574 494 q 639 459 612 459 q 682 477 664 459 q 701 521 701 495 m 870 315 q 859 351 870 339 q 822 363 847 363 q 785 351 798 363 q 773 315 773 339 q 785 279 773 291 q 822 267 798 267 q 859 279 847 267 q 870 315 870 291 z "},"O":{"ha":1068,"x_min":69,"x_max":999,"o":"m 999 580 q 968 378 999 473 q 876 202 938 284 q 723 68 808 113 q 533 23 637 23 q 345 68 430 23 q 192 202 260 113 q 100 378 130 283 q 69 580 69 473 q 99 779 69 686 q 189 951 130 872 q 340 1080 255 1037 q 528 1123 425 1123 q 718 1080 632 1123 q 872 951 804 1037 q 967 779 935 872 q 999 580 999 686 m 852 516 q 852 534 852 525 q 852 553 852 543 l 746 545 l 734 599 l 842 616 q 817 700 833 661 q 777 772 801 739 l 687 664 l 648 696 l 727 827 q 640 878 688 861 q 535 893 593 894 l 576 730 l 528 713 l 471 879 q 378 825 420 861 q 301 737 336 789 l 412 614 l 372 568 l 268 675 q 236 577 246 625 q 227 486 226 530 l 228 460 l 348 452 l 348 393 l 233 399 q 249 332 238 366 q 277 264 260 298 l 370 348 l 408 313 l 313 213 q 377 151 342 176 q 454 114 412 127 l 469 248 l 517 241 l 514 104 l 522 104 q 605 117 564 104 q 686 159 646 130 l 608 310 l 654 337 l 734 203 q 778 260 759 231 q 810 320 797 289 l 697 418 l 727 448 l 832 386 q 847 447 842 414 q 852 516 852 479 z "},"P":{"ha":958,"x_min":75,"x_max":923,"o":"m 923 817 q 840 598 923 688 q 629 509 758 509 q 489 547 546 509 q 403 661 433 585 l 358 -7 l 223 -43 l 210 553 l 100 540 l 88 657 l 206 672 l 203 793 l 88 784 l 81 905 l 199 912 l 197 1030 l 75 1016 l 76 1139 q 358 1155 253 1149 q 498 1160 464 1160 q 668 1141 593 1160 q 796 1084 742 1122 q 891 973 859 1040 q 923 817 923 906 m 786 801 q 712 985 786 924 q 492 1046 639 1046 q 464 1045 478 1046 q 434 1044 450 1044 l 418 822 q 486 915 442 884 q 593 947 530 947 q 688 912 649 947 q 727 822 727 877 q 702 756 727 783 q 639 728 677 728 q 597 739 614 728 q 571 772 580 749 l 586 770 q 626 779 612 768 q 639 814 639 790 q 627 844 639 833 q 593 854 616 854 q 554 844 571 854 q 525 815 538 834 q 509 779 514 799 q 504 735 504 759 q 539 646 504 680 q 629 611 574 611 q 697 626 667 611 q 748 670 727 641 q 777 729 767 696 q 786 801 786 762 z "},"Q":{"ha":1109,"x_min":69,"x_max":1196,"o":"m 1196 81 l 1126 1 l 909 263 q 879 229 893 244 q 848 199 864 213 l 1016 -35 l 926 -99 l 768 140 q 648 86 710 104 q 521 68 587 68 q 342 105 423 68 q 195 214 260 141 q 101 368 132 283 q 69 552 69 453 q 106 753 69 659 q 215 928 142 847 q 380 1054 290 1013 q 578 1096 471 1096 q 758 1060 676 1096 q 905 951 840 1023 q 1000 798 968 882 q 1031 614 1031 713 q 1014 475 1031 542 q 962 345 997 408 l 1196 81 m 916 633 q 893 766 916 705 q 825 878 870 827 q 720 957 779 930 q 590 983 661 983 q 447 954 513 983 q 327 864 381 924 q 248 737 274 806 q 221 591 221 669 q 244 458 221 519 q 312 347 267 397 q 418 268 359 294 q 547 241 477 241 q 615 248 581 241 q 682 270 649 255 l 566 444 l 641 490 l 763 319 q 793 345 780 332 q 817 370 807 357 l 717 490 l 773 555 l 870 448 q 904 537 893 490 q 916 633 916 583 m 593 765 q 470 623 526 698 q 367 466 413 549 l 327 467 q 417 635 364 552 q 536 800 469 718 l 593 765 z "},"R":{"ha":924,"x_min":96,"x_max":994,"o":"m 994 124 q 923 28 964 60 q 831 -3 882 -3 q 718 35 775 -3 q 602 149 661 73 l 374 448 l 291 425 l 268 -3 l 142 -24 l 96 1181 l 165 1182 l 168 1095 l 296 1085 l 309 1168 l 377 1163 l 368 1074 l 463 1050 l 504 1137 l 563 1109 l 522 1028 q 580 995 555 1015 q 623 950 605 975 l 689 997 l 734 947 l 648 890 q 662 833 659 865 q 661 763 665 801 l 758 728 l 730 669 l 648 699 q 627 646 641 673 q 591 593 612 619 l 657 535 l 616 481 l 542 536 l 507 517 l 724 173 q 750 139 735 155 q 785 109 766 123 q 828 84 808 92 q 868 76 849 76 q 920 91 895 76 q 969 135 945 106 l 994 124 m 512 618 l 431 979 q 386 995 411 988 q 329 1007 360 1002 l 296 502 q 418 549 364 519 q 512 618 473 578 z "},"S":{"ha":815,"x_min":58,"x_max":773,"o":"m 773 938 q 709 767 773 831 q 538 703 644 703 q 457 713 494 703 q 388 746 419 724 q 336 804 353 770 q 319 880 319 838 q 332 943 319 916 q 371 989 345 970 q 424 1015 395 1006 q 490 1024 454 1024 q 533 1019 513 1024 q 569 1002 553 1013 q 596 971 587 988 q 606 931 606 954 q 581 877 606 899 q 522 855 556 855 q 486 863 500 855 q 463 886 471 870 q 474 884 468 885 q 485 884 480 884 q 520 892 509 884 q 532 919 532 901 q 519 946 532 937 q 483 955 507 955 q 452 950 467 955 q 426 937 437 946 q 406 914 413 927 q 399 885 399 901 q 432 810 399 835 q 530 786 465 786 q 633 830 593 786 q 672 938 672 873 q 654 1007 672 977 q 601 1060 636 1038 q 536 1088 572 1079 q 459 1097 500 1097 q 368 1084 409 1097 q 294 1047 326 1072 q 242 982 260 1020 q 224 895 224 944 q 257 799 224 846 q 355 709 290 753 q 476 627 416 667 q 597 545 536 586 q 694 419 662 488 q 727 270 727 350 q 700 135 727 195 q 619 33 673 76 q 506 -27 569 -6 q 367 -48 444 -48 q 256 -37 307 -48 q 163 -4 205 -26 q 84 65 111 24 q 58 161 58 106 q 103 295 58 244 q 230 347 148 347 q 290 337 263 347 q 340 310 317 328 q 376 265 364 291 q 388 208 388 239 q 360 121 388 150 q 275 92 332 92 q 222 110 245 92 q 199 155 199 127 q 211 194 199 181 q 247 207 223 207 q 253 207 250 207 q 260 206 256 206 q 248 193 252 200 q 243 180 243 186 q 252 160 243 166 q 275 154 260 154 q 301 165 293 154 q 310 199 310 176 q 303 228 310 215 q 281 250 296 240 q 253 262 269 258 q 221 267 238 267 q 151 240 174 267 q 127 161 127 213 q 141 106 127 130 q 183 66 155 83 q 235 45 206 52 q 296 38 263 38 q 372 52 337 38 q 433 96 406 66 q 473 159 460 124 q 486 236 486 193 q 459 331 486 281 q 375 437 431 382 q 273 535 325 487 q 170 632 221 583 q 87 748 115 691 q 59 861 59 806 q 87 1004 59 942 q 172 1109 116 1067 q 291 1165 223 1147 q 443 1184 358 1184 q 561 1170 505 1184 q 663 1125 616 1155 q 746 1043 718 1090 q 773 938 773 996 z "},"T":{"ha":905,"x_min":8,"x_max":951,"o":"m 951 1125 l 937 1017 q 848 1029 892 1025 q 762 1034 804 1034 q 653 1027 708 1034 q 543 1007 599 1020 l 608 3 l 301 43 l 377 999 l 331 998 q 201 1005 257 997 q 109 1031 145 1013 q 33 1103 58 1057 q 8 1215 8 1148 l 8 1232 l 54 1248 q 111 1134 56 1172 q 271 1097 165 1097 q 535 1123 359 1097 q 799 1149 710 1149 q 884 1143 846 1149 q 951 1125 923 1137 m 504 699 q 492 736 504 724 q 456 748 480 748 q 419 736 431 748 q 406 699 406 724 q 419 662 406 674 q 456 650 431 650 q 492 662 480 650 q 504 699 504 674 m 515 497 q 497 541 515 522 q 454 559 479 559 q 410 541 428 559 q 391 497 391 522 q 410 452 391 471 q 454 434 428 434 q 497 452 479 434 q 515 497 515 471 m 500 284 q 489 320 500 308 q 452 332 477 332 q 415 320 428 332 q 403 284 403 308 q 415 248 403 260 q 452 236 428 236 q 489 248 477 236 q 500 284 500 260 z "},"U":{"ha":1054,"x_min":103,"x_max":939,"o":"m 939 484 q 830 123 939 243 q 502 3 721 3 q 318 31 395 3 q 193 113 241 58 q 125 243 148 164 q 103 430 103 323 q 124 695 103 519 q 144 961 144 872 q 136 1062 144 1019 q 111 1135 127 1105 l 168 1161 q 218 1021 199 1099 q 243 847 237 942 q 247 735 245 817 q 248 519 248 653 q 252 378 248 436 q 265 288 256 320 q 323 186 284 220 q 422 152 363 152 q 539 176 492 152 q 614 248 587 199 q 643 335 633 282 q 652 460 652 388 q 652 492 652 473 q 650 535 651 511 q 649 580 650 562 q 649 608 649 598 l 753 616 l 746 696 l 648 692 l 644 768 l 741 773 l 739 852 l 644 852 l 641 931 l 739 924 l 739 997 l 641 1006 l 637 1086 l 919 1059 q 933 638 928 782 q 939 484 939 494 m 512 566 q 487 506 512 531 q 428 481 463 481 q 369 506 393 481 q 345 566 345 532 q 369 625 345 600 q 428 650 393 650 q 487 626 463 650 q 512 566 512 601 z "},"V":{"ha":955,"x_min":31,"x_max":912,"o":"m 912 1031 q 885 883 912 969 q 804 688 858 797 q 716 524 762 605 q 629 360 670 444 q 541 168 579 260 q 474 -12 502 75 l 31 1106 l 299 1225 l 517 337 q 569 447 524 353 q 696 711 614 540 q 794 932 761 844 q 827 1064 827 1021 q 822 1104 827 1085 q 808 1139 817 1123 q 781 1167 797 1158 q 745 1177 765 1177 q 662 1140 696 1177 q 628 1054 628 1103 q 641 990 628 1012 q 680 969 654 969 q 709 978 700 969 q 718 1004 718 986 q 708 1031 718 1021 q 677 1045 698 1041 q 707 1067 692 1060 q 734 1074 721 1074 q 771 1056 759 1074 q 784 1004 784 1038 q 775 963 784 981 q 749 932 766 945 q 713 914 732 920 q 670 909 694 909 q 570 954 608 909 q 532 1061 532 998 q 548 1132 532 1100 q 595 1189 564 1164 q 660 1223 625 1212 q 735 1234 694 1234 q 810 1218 777 1234 q 867 1173 844 1203 q 901 1109 889 1144 q 912 1031 912 1074 m 310 659 l 310 686 q 299 849 310 763 q 263 1030 288 935 l 199 1021 q 251 851 231 939 q 275 672 270 764 l 310 659 z "},"W":{"ha":1488,"x_min":78,"x_max":1592,"o":"m 1592 1125 l 1466 938 l 1359 976 l 1085 38 l 1035 15 l 753 717 l 403 -23 l 375 109 l 282 76 l 268 137 l 365 168 l 340 279 l 248 250 l 233 315 l 330 340 l 306 466 l 216 428 l 189 494 l 292 535 l 268 657 l 152 629 l 135 690 l 254 722 l 230 852 l 140 817 l 123 873 l 216 907 l 189 1059 l 102 1030 l 78 1101 l 299 1174 l 536 463 l 879 1198 l 1135 559 l 1339 1204 l 1592 1125 m 1090 433 l 852 999 l 806 910 l 1052 299 l 1090 433 z "},"X":{"ha":1113,"x_min":-37,"x_max":1085,"o":"m 1042 612 q 1017 553 1042 578 q 958 528 992 528 q 897 553 922 528 q 872 612 872 578 q 898 671 872 646 q 958 696 923 696 q 1017 671 991 696 q 1042 612 1042 646 m 1085 33 l 997 -61 l 578 431 q 488 263 525 328 q 433 172 452 199 q 319 54 377 93 q 203 14 262 14 q 82 57 142 14 q -37 186 22 100 l -1 223 q 70 150 33 174 q 144 125 106 125 q 244 165 192 125 q 353 286 296 205 q 406 371 370 310 q 495 528 441 431 l 358 690 l 418 741 l 372 796 l 312 745 l 258 806 l 323 859 l 279 912 l 216 857 l 172 909 l 241 962 l 206 1016 l 130 955 l 83 1010 l 323 1181 l 609 758 l 831 1210 l 947 1122 l 684 637 l 1085 33 m 268 504 q 243 444 268 469 q 183 419 218 419 q 124 444 149 419 q 99 504 99 469 q 124 563 99 538 q 183 588 150 588 q 242 563 217 588 q 268 504 268 538 z "},"Y":{"ha":962,"x_min":23,"x_max":1023,"o":"m 113 979 q 101 946 113 957 q 68 935 90 935 q 34 946 45 935 q 23 979 23 957 q 34 1013 23 1002 q 68 1024 45 1024 q 101 1013 90 1024 q 113 979 113 1002 m 183 846 q 172 812 183 823 q 138 801 161 801 q 105 812 117 801 q 94 846 94 823 q 105 880 94 869 q 138 892 117 892 q 172 880 161 892 q 183 846 183 869 m 263 707 q 252 672 263 684 q 218 661 241 661 q 184 672 196 661 q 173 707 173 684 q 184 740 173 728 q 218 751 196 751 q 252 740 241 751 q 263 707 263 728 m 1023 1201 q 904 1155 957 1192 q 812 1052 852 1118 q 879 1080 848 1071 q 931 1089 909 1089 q 957 1087 942 1089 q 992 1083 972 1086 l 975 1028 l 962 1028 q 772 940 857 1028 q 622 673 687 852 q 593 589 603 620 q 583 550 584 557 q 577 414 583 550 q 557 5 570 277 l 441 -20 l 403 597 l 113 1090 l 351 1182 l 542 687 q 629 904 589 814 q 703 1046 669 994 q 844 1197 767 1147 q 1009 1248 920 1248 l 1023 1201 m 347 568 q 335 534 347 545 q 301 522 323 522 q 268 534 279 522 q 256 568 256 545 q 268 601 256 590 q 301 612 279 612 q 335 601 323 612 q 347 568 347 590 z "},"Z":{"ha":978,"x_min":0,"x_max":978,"o":"m 281 812 l 260 632 l 100 670 l 152 781 l 281 812 m 978 1047 l 923 930 l 784 935 l 735 869 l 859 822 l 784 730 l 669 781 l 601 692 l 701 642 l 642 538 l 526 597 l 260 248 l 859 286 l 899 12 l 0 33 l 657 937 l 119 954 l 161 1177 l 978 1047 m 374 149 q 362 183 374 172 q 329 195 351 195 q 295 183 307 195 q 284 149 284 172 q 295 114 284 125 q 329 102 307 102 q 362 114 351 102 q 374 149 374 125 m 580 147 q 563 189 580 172 q 521 206 545 206 q 479 189 497 206 q 460 147 460 172 q 479 105 460 123 q 521 88 497 88 q 563 105 545 88 q 580 147 580 123 m 770 144 q 759 178 770 166 q 725 190 748 190 q 691 178 703 190 q 679 144 679 166 q 691 110 679 121 q 725 99 703 99 q 759 110 748 99 q 770 144 770 121 z "},"[":{"ha":779,"x_min":96,"x_max":779,"o":"m 779 1219 l 724 1068 l 467 1133 l 418 -1 l 684 30 l 669 -113 l 306 -132 l 172 1313 l 779 1219 m 192 428 q 180 391 192 403 q 144 379 168 379 q 108 391 120 379 q 96 428 96 403 q 108 464 96 451 q 144 476 120 476 q 180 464 168 476 q 192 428 192 451 m 203 270 q 191 233 203 245 q 154 221 178 221 q 118 233 130 221 q 106 270 106 245 q 118 307 106 294 q 154 319 130 319 q 191 307 178 319 q 203 270 203 294 m 220 102 q 208 66 220 78 q 172 54 196 54 q 135 66 147 54 q 123 102 123 78 q 135 138 123 126 q 172 151 147 151 q 208 138 196 151 q 220 102 220 126 m 241 -68 q 229 -104 241 -92 q 192 -116 216 -116 q 156 -104 168 -116 q 144 -68 144 -92 q 156 -32 144 -44 q 192 -20 168 -20 q 229 -32 216 -20 q 241 -68 241 -44 m 441 1198 l 418 1229 q 331 1062 370 1153 q 263 867 292 972 l 326 841 q 370 1024 340 935 q 441 1198 399 1113 z "},"\\":{"ha":921,"x_min":30,"x_max":905,"o":"m 905 -50 l 705 -147 l 684 -106 l 755 -69 l 715 5 l 642 -33 l 621 14 l 692 48 l 652 123 l 576 90 l 552 135 l 625 173 l 585 251 l 511 216 l 486 254 l 563 292 l 517 377 l 441 337 l 421 379 l 492 425 l 437 525 l 365 483 l 345 525 l 416 566 l 367 661 l 296 612 l 272 654 l 343 707 l 296 791 l 227 745 l 199 794 l 274 838 l 215 945 l 144 902 l 113 947 l 189 996 l 134 1097 l 58 1048 l 30 1108 l 339 1298 l 905 -50 z "},"]":{"ha":779,"x_min":0,"x_max":684,"o":"m 635 1250 q 623 1213 635 1225 q 587 1201 611 1201 q 549 1213 562 1201 q 536 1250 536 1225 q 549 1286 536 1274 q 587 1298 562 1298 q 623 1286 611 1298 q 635 1250 635 1274 m 656 1080 q 644 1043 656 1055 q 608 1031 632 1031 q 572 1043 584 1031 q 559 1080 559 1055 q 572 1116 559 1103 q 608 1128 584 1128 q 644 1116 632 1128 q 656 1080 656 1103 m 672 912 q 660 876 672 887 q 623 864 648 864 q 587 876 599 864 q 574 912 574 887 q 587 949 574 937 q 623 961 599 961 q 660 949 648 961 q 672 912 672 937 m 684 755 q 672 719 684 730 q 635 707 660 707 q 599 719 611 707 q 587 755 587 730 q 599 791 587 779 q 635 803 611 803 q 672 791 660 803 q 684 755 684 779 m 608 -132 l 0 -37 l 54 114 l 310 48 l 360 1184 l 94 1153 l 109 1295 l 471 1313 l 608 -132 m 514 315 l 452 340 q 408 158 437 247 q 336 -15 378 68 l 360 -47 q 447 119 408 28 q 514 315 485 210 z "},"^":{"ha":748,"x_min":61,"x_max":707,"o":"m 707 401 l 542 358 l 522 422 l 566 436 l 545 494 l 505 483 l 486 549 l 530 563 l 512 619 l 471 609 l 460 666 l 498 682 l 379 1040 l 166 365 l 61 401 l 327 1146 l 374 1118 l 437 1160 l 707 401 m 401 713 q 394 690 401 697 q 370 682 386 682 q 347 690 355 682 q 339 713 339 697 q 347 738 339 729 q 370 746 355 746 q 394 738 386 746 q 401 713 401 729 m 410 570 q 400 539 410 549 q 370 530 391 530 q 340 539 351 530 q 330 570 330 549 q 340 599 330 589 q 370 609 351 609 q 400 599 391 609 q 410 570 410 589 m 439 381 q 419 332 439 353 q 370 312 399 312 q 322 332 342 312 q 301 381 301 353 q 322 429 301 409 q 370 450 342 450 q 419 429 399 450 q 439 381 439 409 z "},"_":{"ha":865,"x_min":0,"x_max":865,"o":"m 865 -368 l 0 -368 l 0 -230 l 865 -230 l 865 -368 z "},"`":{"ha":473,"x_min":86,"x_max":386,"o":"m 386 760 l 332 707 l 86 907 l 201 1031 l 386 760 z "},"a":{"ha":779,"x_min":43,"x_max":730,"o":"m 728 70 l 727 33 q 519 -38 622 -14 q 316 -61 416 -61 q 214 -50 260 -61 q 132 -18 168 -39 q 66 46 88 7 q 44 138 44 85 q 137 302 44 230 q 413 428 229 375 q 362 494 398 471 q 272 516 327 516 q 165 492 213 516 q 79 421 117 468 l 43 456 q 184 588 100 543 q 380 632 269 632 q 540 582 471 632 q 656 430 609 531 q 712 261 694 351 q 728 70 730 171 m 623 306 q 611 342 623 330 q 574 355 599 355 q 537 342 550 355 q 525 306 525 330 q 537 270 525 281 q 574 258 550 258 q 611 270 599 258 q 623 306 623 281 m 461 120 q 455 242 461 182 q 437 361 450 302 q 322 322 374 343 q 233 279 271 302 l 302 -1 q 396 5 357 -1 q 459 24 435 11 q 461 73 460 49 q 461 120 461 96 m 650 123 q 632 167 650 149 q 588 185 614 185 q 544 168 562 185 q 525 123 525 150 q 544 79 525 96 q 588 61 562 61 q 632 79 614 61 q 650 123 650 97 z "},"b":{"ha":832,"x_min":86,"x_max":781,"o":"m 781 296 q 760 169 781 226 q 700 66 740 111 q 603 -3 659 20 q 477 -26 547 -26 q 382 -10 425 -26 q 309 41 340 7 q 263 116 278 74 q 248 213 248 159 q 260 291 248 255 q 298 358 273 328 q 360 407 326 391 q 436 422 395 422 q 541 387 498 422 q 585 291 585 351 q 578 249 585 268 q 559 215 571 231 q 527 190 545 198 q 486 182 509 182 q 435 197 453 182 q 413 243 416 212 q 427 235 419 237 q 444 233 434 233 q 479 244 467 233 q 490 281 490 256 q 476 318 490 305 q 433 330 461 330 q 386 320 406 330 q 350 288 365 309 q 330 247 337 270 q 323 195 323 223 q 369 96 323 134 q 477 58 415 58 q 551 75 518 58 q 608 127 583 92 q 641 195 630 159 q 652 274 652 231 q 638 364 652 323 q 597 437 625 405 q 528 487 568 470 q 439 504 489 504 q 359 487 396 504 q 291 435 322 469 q 244 366 262 404 q 221 284 227 328 l 183 -8 l 86 -30 l 94 762 l 175 772 l 176 817 l 92 814 l 92 869 l 178 879 l 175 933 l 92 923 l 90 971 l 178 986 l 182 1042 l 90 1026 l 90 1101 l 385 1154 l 258 471 q 360 587 292 543 q 507 632 429 632 q 626 606 574 632 q 715 528 677 580 q 764 423 748 481 q 781 296 781 365 z "},"c":{"ha":727,"x_min":61,"x_max":692,"o":"m 692 145 q 550 16 628 59 q 381 -26 473 -26 q 150 61 239 -26 q 61 289 61 148 q 163 530 61 428 q 403 632 264 632 q 479 625 444 632 q 542 605 514 618 q 597 560 579 587 q 616 497 616 533 q 588 431 616 464 q 505 367 561 399 l 476 395 q 499 424 490 409 q 512 456 509 439 l 431 476 l 441 505 l 514 495 q 502 526 512 512 q 475 549 492 539 q 443 562 460 558 q 408 566 427 566 q 388 565 399 566 q 367 563 378 564 l 382 457 l 351 450 l 323 542 q 270 501 292 528 q 233 437 247 475 l 327 410 l 313 375 l 221 398 q 213 361 216 382 q 210 312 210 340 q 211 287 210 299 q 215 264 212 275 l 292 291 l 313 251 l 224 220 q 243 178 231 199 q 275 134 256 157 l 337 182 l 367 157 l 313 106 q 364 80 336 88 q 428 71 392 71 l 434 151 l 469 151 l 476 73 q 524 82 500 75 q 571 104 547 90 l 547 172 l 578 183 l 604 128 q 628 150 616 137 q 654 178 641 162 l 692 145 z "},"d":{"ha":897,"x_min":61,"x_max":827,"o":"m 505 1055 q 493 1019 505 1031 q 457 1007 481 1007 q 420 1019 433 1007 q 408 1055 408 1031 q 420 1093 408 1080 q 457 1105 433 1105 q 493 1093 481 1105 q 505 1055 505 1080 m 517 899 q 506 862 517 873 q 469 850 494 850 q 433 862 446 850 q 421 899 421 873 q 433 934 421 922 q 469 947 446 947 q 506 934 494 947 q 517 899 517 922 m 536 730 q 525 694 536 705 q 488 682 513 682 q 452 694 464 682 q 439 730 439 705 q 452 767 439 755 q 488 779 464 779 q 525 767 513 779 q 536 730 536 755 m 827 1204 l 730 -40 l 609 -30 l 602 140 q 494 41 555 75 q 357 8 433 8 q 147 97 233 8 q 61 310 61 186 q 86 432 61 377 q 160 531 111 488 q 264 593 207 572 q 389 614 322 614 q 500 597 453 614 q 580 547 547 580 l 552 1143 l 827 1204 m 590 320 q 534 488 590 433 q 364 543 477 543 l 351 543 l 336 456 l 246 473 l 239 422 l 326 401 l 317 340 l 230 361 l 221 313 l 306 289 l 296 236 l 213 258 l 199 201 l 286 182 l 272 96 q 319 80 296 85 q 366 75 343 75 q 454 94 414 75 q 528 151 494 113 q 574 229 559 186 q 590 320 590 271 z "},"e":{"ha":829,"x_min":43,"x_max":786,"o":"m 786 52 q 755 21 769 35 q 732 0 742 8 l 783 -76 l 735 -104 l 684 -40 q 626 -67 656 -56 q 561 -83 595 -79 l 559 -163 l 498 -159 l 504 -85 q 437 -78 473 -85 q 363 -59 402 -72 l 326 -140 l 264 -107 l 306 -31 q 245 11 273 -13 q 197 66 218 35 l 124 20 l 94 68 l 173 109 q 149 176 157 142 q 137 246 140 210 l 64 228 l 43 288 l 137 309 q 149 377 140 347 q 170 431 157 408 l 104 471 l 135 522 l 199 477 q 236 515 216 498 q 279 545 256 532 l 223 626 l 284 656 l 329 570 q 368 581 351 576 q 399 587 386 585 l 418 675 l 466 661 l 454 590 q 505 583 481 590 q 552 563 530 576 l 619 629 l 657 597 l 593 528 q 621 494 608 514 q 644 450 634 474 l 724 476 l 737 426 l 661 399 q 670 367 666 385 q 677 329 673 349 l 361 274 l 361 267 q 372 173 361 217 q 404 90 382 130 q 466 20 430 43 q 547 -3 502 -3 q 644 21 593 -3 q 751 96 694 45 l 786 52 m 509 385 q 487 429 506 414 q 431 444 467 444 q 349 418 387 444 q 298 350 311 391 l 509 385 z "},"f":{"ha":479,"x_min":0,"x_max":670,"o":"m 670 1112 l 595 969 q 557 985 573 979 q 532 990 541 990 q 454 964 490 990 q 386 886 418 938 q 348 806 364 851 q 320 710 332 762 l 511 741 l 507 648 l 306 626 q 304 607 306 622 q 299 566 302 593 l 490 587 l 483 498 l 292 486 l 244 -117 l 0 -152 l 37 35 l 190 50 l 205 479 l 83 471 l 62 540 l 206 555 l 210 616 l 92 606 l 85 672 l 210 692 q 224 881 213 801 q 255 1009 235 961 q 351 1129 289 1089 q 504 1170 413 1170 q 587 1155 546 1170 q 670 1112 629 1140 z "},"g":{"ha":827,"x_min":43,"x_max":749,"o":"m 749 642 l 745 585 l 666 588 l 659 532 l 739 525 l 734 454 l 644 464 l 646 406 l 727 393 l 722 330 l 637 337 l 634 275 l 717 264 q 597 -241 689 -73 q 349 -409 505 -409 q 247 -388 295 -409 q 154 -325 198 -367 q 86 -239 113 -286 q 43 -137 59 -193 l 92 -106 q 133 -167 110 -140 q 182 -217 155 -195 q 248 -256 215 -243 q 313 -269 281 -269 q 402 -239 364 -269 q 467 -150 441 -210 q 497 -56 486 -109 q 512 58 509 -4 q 438 24 477 35 q 355 14 399 14 q 136 103 227 14 q 45 320 45 193 q 136 536 45 447 q 355 626 227 626 q 452 611 406 626 q 538 566 498 595 l 543 670 l 749 642 m 518 319 q 510 380 518 351 q 485 435 502 409 q 441 478 467 464 q 385 492 416 492 q 316 474 347 492 q 260 418 286 456 q 227 349 238 385 q 216 274 216 313 q 224 211 216 241 q 248 157 232 182 q 293 114 268 128 q 349 100 318 100 q 417 118 386 100 q 473 174 449 137 q 507 243 495 208 q 518 319 518 279 m 454 302 q 429 243 454 268 q 368 218 404 218 q 310 243 334 218 q 286 302 286 269 q 311 361 286 336 q 368 386 336 386 q 428 361 403 386 q 454 302 454 337 z "},"h":{"ha":916,"x_min":52,"x_max":828,"o":"m 828 141 q 828 94 828 124 q 827 21 828 64 l 571 -21 q 612 192 598 96 q 625 366 625 289 q 621 434 625 401 q 609 498 616 467 q 581 564 598 542 q 541 587 564 587 q 460 565 502 587 q 372 502 418 544 l 355 -1 l 151 -40 l 137 14 l 227 26 l 220 116 l 130 102 l 121 151 l 216 161 l 208 272 l 119 261 l 113 310 l 205 319 l 195 434 l 113 421 l 100 473 l 190 484 l 183 578 l 102 561 l 92 619 l 178 629 l 168 762 l 94 748 l 85 801 l 165 817 l 154 948 l 85 933 l 73 988 l 149 1006 l 142 1097 l 68 1070 l 52 1132 l 398 1217 l 375 602 q 477 660 426 641 q 580 679 528 679 q 714 628 660 679 q 797 475 769 576 q 820 334 812 418 q 828 141 828 251 m 578 452 q 506 277 535 366 q 463 96 477 188 l 399 119 q 468 317 429 226 q 553 483 506 408 l 578 452 z "},"i":{"ha":429,"x_min":52,"x_max":360,"o":"m 360 783 l 343 741 l 284 772 q 263 752 275 760 q 237 741 252 745 l 251 686 l 205 679 l 193 737 q 172 745 182 739 q 152 758 161 751 l 107 717 l 76 753 l 128 791 q 120 818 121 804 q 123 848 119 832 l 62 886 l 85 923 l 140 885 q 159 902 149 895 q 183 913 170 909 l 172 994 l 215 994 l 218 919 q 245 912 233 917 q 268 900 257 907 l 315 938 l 347 907 l 292 870 q 300 847 298 863 q 301 808 302 831 l 360 783 m 337 -78 l 52 -41 l 157 619 l 284 619 l 337 -78 m 256 272 q 244 308 256 296 q 208 320 233 320 q 171 308 183 320 q 159 272 159 296 q 171 235 159 248 q 208 223 183 223 q 244 235 233 223 q 256 272 256 248 m 256 88 q 238 132 256 114 q 193 151 220 151 q 150 132 168 151 q 132 88 132 114 q 150 44 132 62 q 193 26 168 26 q 238 44 220 26 q 256 88 256 62 z "},"j":{"ha":429,"x_min":-228,"x_max":395,"o":"m 395 825 q 345 703 395 755 q 224 650 295 650 q 105 703 155 650 q 56 825 56 755 q 105 948 56 896 q 224 1000 155 1000 q 345 948 295 1000 q 395 825 395 896 m 344 311 q 323 11 344 137 q 260 -193 302 -115 q 133 -346 205 -295 q -31 -396 61 -396 q -139 -373 -96 -396 q -203 -304 -182 -351 q -143 -328 -173 -320 q -85 -336 -114 -336 q 0 -321 -35 -336 q 56 -277 35 -307 q 4 -293 30 -288 q -47 -298 -22 -298 q -146 -277 -100 -298 q -228 -213 -191 -256 l -189 -168 q -120 -213 -158 -199 q -35 -228 -81 -228 q 94 -143 51 -228 q 136 111 136 -58 q 136 138 136 123 q 135 170 136 153 l 192 175 l 185 243 l 130 230 l 123 289 l 180 302 l 173 365 l 114 355 q 111 380 113 365 q 104 418 109 396 l 165 431 l 155 497 l 94 481 q 90 503 93 484 q 79 555 86 522 l 332 608 q 341 451 338 525 q 344 311 344 377 m 337 839 l 301 836 l 286 862 l 332 872 q 316 905 326 890 q 294 928 306 919 l 268 888 l 241 909 l 260 948 q 239 952 251 951 q 215 954 228 954 l 221 905 l 193 893 l 175 941 q 149 922 160 932 q 134 902 138 912 l 173 886 l 163 855 l 116 870 q 113 857 114 865 q 113 839 113 849 q 115 815 113 827 q 123 793 117 803 l 155 806 l 178 781 l 142 760 q 174 737 157 746 q 208 725 190 728 l 212 766 l 248 762 l 248 727 q 274 736 260 729 q 304 756 288 744 l 258 806 l 291 817 l 322 784 q 333 811 330 798 q 337 839 337 825 z "},"k":{"ha":768,"x_min":86,"x_max":743,"o":"m 519 1097 q 507 1060 519 1072 q 471 1048 495 1048 q 435 1060 447 1048 q 422 1097 422 1072 q 435 1134 422 1122 q 471 1146 447 1146 q 507 1134 495 1146 q 519 1097 519 1122 m 507 940 q 495 904 507 916 q 459 892 484 892 q 422 904 434 892 q 410 940 410 916 q 422 976 410 964 q 459 988 434 988 q 495 976 484 988 q 507 940 507 964 m 488 772 q 476 735 488 747 q 439 724 464 724 q 404 735 416 724 q 391 772 391 747 q 404 808 391 796 q 439 821 416 821 q 476 808 464 821 q 488 772 488 796 m 743 121 q 694 -1 743 47 q 571 -50 645 -50 q 484 -24 526 -50 q 404 56 442 3 q 350 147 377 102 q 296 239 323 193 l 254 223 l 218 -26 l 86 -15 l 104 730 l 193 741 l 195 810 l 102 800 l 104 872 l 203 882 l 208 947 l 104 935 l 106 1004 l 205 1028 l 205 1086 l 107 1074 l 107 1143 l 398 1208 l 302 559 q 426 614 368 595 q 533 632 484 632 q 622 611 593 632 q 650 547 650 589 q 623 467 650 509 q 541 380 595 426 q 460 321 504 349 q 367 267 416 292 q 419 184 396 218 q 457 133 442 151 q 523 72 491 92 q 585 52 555 52 q 636 73 616 52 q 656 124 656 94 q 646 161 656 149 q 616 173 636 173 q 592 165 600 173 q 584 143 584 158 q 585 136 584 140 q 587 130 586 133 l 552 119 q 542 146 545 133 q 538 172 538 159 q 564 230 538 207 q 625 253 589 253 q 674 243 652 253 q 711 213 696 233 q 734 171 726 194 q 743 121 743 149 m 481 490 q 468 527 481 515 q 428 540 454 540 q 365 525 399 540 q 291 481 330 511 l 261 272 q 334 306 299 285 q 401 355 369 327 q 461 422 441 389 q 481 490 481 456 z "},"l":{"ha":464,"x_min":69,"x_max":429,"o":"m 429 1161 l 291 0 l 76 21 l 86 83 l 170 71 l 173 195 l 78 201 l 83 258 l 173 256 l 175 375 l 76 379 l 83 429 l 176 429 l 178 559 l 71 566 l 78 634 l 180 616 l 180 727 l 78 739 l 86 794 l 182 796 l 183 913 l 73 919 l 85 983 l 183 972 l 186 1083 l 69 1092 l 78 1161 l 429 1161 z "},"m":{"ha":1109,"x_min":61,"x_max":1057,"o":"m 1057 3 l 781 -28 l 786 313 q 771 422 787 386 q 724 459 755 459 q 684 435 704 459 q 642 363 663 411 q 616 297 627 330 q 597 230 606 264 q 590 287 594 258 q 583 345 587 316 q 568 407 577 380 q 546 452 559 434 q 505 488 529 476 q 448 500 480 500 q 363 465 401 500 q 299 357 326 429 l 306 -3 l 61 14 l 144 670 l 286 648 l 292 509 q 378 586 333 560 q 473 612 423 612 q 556 594 519 612 q 619 538 593 576 q 696 601 657 580 q 773 621 734 621 q 853 598 817 621 q 920 528 890 574 q 960 451 943 494 q 988 358 977 408 l 902 334 l 912 281 l 1000 299 l 1007 241 l 921 227 l 933 168 l 1024 183 l 1035 124 l 938 119 l 947 58 l 1044 68 l 1057 3 m 682 104 q 657 41 682 66 q 593 15 631 15 q 530 41 556 15 q 504 104 504 66 q 530 166 504 141 q 593 192 556 192 q 657 166 631 192 q 682 104 682 141 z "},"n":{"ha":839,"x_min":69,"x_max":787,"o":"m 787 26 l 526 -20 q 534 263 532 188 q 536 358 536 339 q 515 453 536 421 q 454 484 495 484 q 373 449 415 484 q 284 345 330 414 l 264 -7 l 142 -23 l 69 599 l 301 648 l 291 452 q 397 554 341 519 q 515 588 454 588 q 649 527 597 588 q 725 343 701 466 l 787 26 m 675 292 q 665 325 675 313 q 632 336 654 336 q 599 325 610 336 q 588 292 588 313 q 599 259 588 270 q 632 248 610 248 q 665 259 654 248 q 675 292 675 270 m 701 127 q 684 166 701 150 q 644 182 667 182 q 602 168 616 182 q 588 127 588 154 q 602 85 588 99 q 644 71 616 71 q 684 87 667 71 q 701 127 701 103 z "},"o":{"ha":862,"x_min":43,"x_max":819,"o":"m 819 363 l 734 340 q 737 313 736 328 q 739 282 739 298 q 735 234 739 258 q 725 186 732 210 l 793 155 l 758 96 l 705 134 q 638 41 679 79 q 542 -20 597 3 l 561 -100 l 498 -116 l 486 -37 q 451 -42 466 -40 q 425 -43 435 -43 q 345 -33 384 -43 q 270 -1 306 -23 l 220 -79 l 166 -48 l 223 33 q 175 83 196 56 q 140 144 155 111 l 56 117 l 43 175 l 121 192 q 112 240 115 217 q 109 282 109 263 q 112 323 109 303 q 119 361 114 343 l 43 386 l 59 444 l 137 412 q 179 487 153 453 q 241 547 205 521 l 195 618 l 248 654 l 292 578 q 356 600 323 593 q 425 608 389 608 q 491 601 460 608 q 552 580 523 593 l 588 644 l 641 614 l 604 549 q 673 481 644 519 q 720 396 701 444 l 803 433 l 819 363 m 549 282 q 541 361 549 325 q 514 427 532 397 q 463 480 492 463 q 393 498 433 498 q 323 480 354 498 q 272 426 293 463 q 246 360 254 396 q 237 282 237 323 q 246 202 237 238 q 271 136 254 165 q 323 82 292 100 q 393 64 353 64 q 464 82 433 64 q 515 136 494 100 q 540 202 531 165 q 549 282 549 238 z "},"p":{"ha":848,"x_min":17,"x_max":787,"o":"m 787 310 q 769 193 787 246 q 713 95 750 139 q 624 24 674 47 q 511 0 573 0 q 417 13 459 0 q 343 51 375 25 q 292 117 309 78 q 275 208 275 157 q 325 358 275 300 q 466 416 374 416 q 561 379 523 416 q 599 286 599 343 q 593 246 599 264 q 578 213 588 229 q 550 188 566 196 q 512 180 533 180 q 484 184 498 180 q 457 197 470 189 q 502 218 484 199 q 521 264 521 238 q 505 311 521 296 q 457 327 489 327 q 419 317 436 327 q 391 286 403 307 q 376 250 381 270 q 370 208 370 230 q 409 114 370 151 q 504 76 447 76 q 571 92 541 76 q 623 141 601 109 q 652 204 642 170 q 663 277 663 238 q 607 426 663 370 q 459 483 552 483 q 360 460 403 483 q 288 391 318 437 q 251 303 263 353 q 238 195 238 254 q 240 119 238 190 q 246 -90 243 48 l 173 -100 l 172 -142 l 248 -138 l 248 -189 l 170 -197 l 173 -246 l 248 -236 l 250 -281 l 170 -294 l 168 -343 l 250 -329 l 251 -382 l 17 -443 l 134 628 l 237 612 l 250 448 q 363 561 290 519 q 521 602 437 602 q 633 581 583 602 q 718 517 682 559 q 770 425 753 477 q 787 310 787 374 z "},"q":{"ha":850,"x_min":61,"x_max":763,"o":"m 763 669 l 675 -469 l 587 -466 l 550 59 q 460 6 508 24 q 357 -12 412 -12 q 147 75 233 -12 q 61 286 61 162 q 147 497 61 409 q 357 585 233 585 q 445 571 402 585 q 525 532 487 557 l 517 626 l 763 669 m 419 -220 q 394 -278 419 -254 q 334 -302 368 -302 q 276 -278 301 -302 q 251 -220 251 -254 q 275 -161 251 -186 q 334 -137 300 -137 q 394 -161 370 -137 q 419 -220 419 -185 m 570 275 l 570 289 q 564 342 570 317 q 545 393 557 368 l 460 337 l 434 391 l 517 437 q 459 485 491 469 q 391 500 428 500 q 378 499 386 500 q 360 497 370 498 l 386 406 l 330 388 l 306 474 q 244 410 267 449 q 215 317 221 370 l 292 313 l 289 264 l 216 258 q 231 197 219 226 q 263 144 243 168 l 313 183 l 340 157 l 299 107 q 344 85 321 92 q 391 78 367 78 q 425 81 410 78 q 454 92 441 85 l 428 183 l 460 201 l 498 119 q 536 166 521 140 q 561 223 552 192 l 488 272 l 511 301 l 570 275 z "},"r":{"ha":718,"x_min":52,"x_max":718,"o":"m 718 525 l 652 500 q 653 484 652 495 q 654 467 654 473 q 650 434 654 450 q 639 406 646 419 l 697 365 l 661 329 l 609 370 q 584 351 598 360 q 553 334 570 342 l 519 381 q 535 408 530 395 q 540 435 540 422 q 521 477 540 463 q 464 492 502 492 q 374 447 422 492 q 274 312 327 401 l 284 -61 l 52 -26 l 157 612 l 264 634 l 270 434 q 312 488 292 465 q 351 530 332 512 l 322 595 l 368 619 l 393 563 q 441 587 416 577 q 492 601 466 597 l 494 669 l 543 664 l 533 602 q 598 585 571 600 q 639 542 625 570 l 701 574 l 718 525 m 231 248 q 220 280 231 269 q 186 291 210 291 q 155 280 165 291 q 144 248 144 269 q 155 215 144 226 q 186 205 165 205 q 220 215 210 205 q 231 248 231 226 m 228 81 q 212 122 228 105 q 173 138 196 138 q 134 122 151 138 q 117 81 117 105 q 131 40 117 54 q 173 26 145 26 q 215 40 201 26 q 228 81 228 54 z "},"s":{"ha":611,"x_min":0,"x_max":550,"o":"m 550 521 q 526 437 550 465 q 452 410 501 410 q 386 426 408 410 q 364 476 364 443 q 373 506 364 492 q 399 528 382 519 l 419 514 q 412 504 414 509 q 409 494 409 498 q 417 474 409 480 q 441 467 425 467 q 473 478 463 467 q 483 511 483 488 q 474 543 483 528 q 446 567 465 557 q 415 579 432 575 q 377 583 397 583 q 331 577 351 583 q 292 557 310 570 q 262 524 272 543 q 253 479 253 504 q 271 433 253 456 q 325 388 290 410 q 422 326 389 347 q 458 303 456 305 q 512 237 494 273 q 530 159 530 201 q 508 56 530 102 q 443 -24 487 9 q 353 -72 403 -56 q 244 -88 303 -88 q 170 -79 205 -88 q 102 -52 135 -70 q 42 -7 68 -33 q 0 54 17 20 l 50 100 q 127 14 81 42 q 231 -15 172 -15 q 319 17 285 -15 q 353 100 353 48 q 338 166 353 134 q 292 229 323 199 q 234 279 263 254 q 176 330 205 304 q 130 395 145 361 q 114 466 114 429 q 134 547 114 511 q 191 610 153 583 q 266 645 224 634 q 355 656 307 656 q 427 649 395 656 q 485 628 460 642 q 534 583 518 610 q 550 521 550 556 m 186 213 q 162 154 186 178 q 104 130 138 130 q 45 155 70 130 q 21 213 21 179 q 45 271 21 247 q 104 296 70 296 q 162 271 138 296 q 186 213 186 247 z "},"t":{"ha":564,"x_min":26,"x_max":521,"o":"m 521 578 l 511 507 l 375 497 l 365 416 l 511 412 l 483 315 l 353 323 l 302 -50 l 203 -68 l 190 336 l 68 345 l 88 421 l 189 419 l 185 483 l 56 473 l 26 578 l 182 578 l 175 814 l 425 842 l 388 578 l 521 578 m 345 686 q 331 727 345 713 q 289 741 317 741 q 247 727 261 741 q 233 686 233 713 q 247 643 233 657 q 289 629 261 629 q 331 643 317 629 q 345 686 345 657 m 320 519 q 310 552 320 541 q 277 563 299 563 q 244 552 255 563 q 233 519 233 541 q 244 487 233 497 q 277 476 255 476 q 310 487 299 476 q 320 519 320 497 z "},"u":{"ha":873,"x_min":52,"x_max":762,"o":"m 515 536 q 451 378 477 458 q 412 216 425 298 l 357 239 q 418 416 384 334 q 495 566 453 498 l 515 536 m 762 -43 l 536 -14 l 555 145 q 446 33 505 70 q 322 -5 388 -5 q 189 56 241 -5 q 113 237 136 116 l 166 251 l 163 299 l 104 282 l 92 345 l 152 361 l 149 406 l 83 391 l 69 459 l 138 474 l 132 521 l 61 507 l 52 559 l 310 604 q 305 351 307 437 q 303 260 303 264 q 323 140 303 180 q 385 100 344 100 q 475 142 428 100 q 571 268 522 184 l 608 585 l 732 591 l 762 -43 z "},"v":{"ha":753,"x_min":-17,"x_max":735,"o":"m 590 623 q 580 590 590 601 q 549 580 570 580 q 516 590 528 580 q 505 623 505 601 q 516 655 505 644 q 549 666 528 666 q 580 655 570 666 q 590 623 590 644 m 532 477 q 521 445 532 456 q 488 434 511 434 q 455 445 467 434 q 444 477 444 456 q 455 510 444 498 q 488 521 467 521 q 521 510 511 521 q 532 477 532 498 m 476 332 q 465 299 476 310 q 433 289 454 289 q 400 299 412 289 q 389 332 389 310 q 400 364 389 353 q 433 375 412 375 q 465 364 454 375 q 476 332 476 353 m 735 583 l 403 -61 l 381 -21 l 313 -69 l 286 -24 l 357 24 l 315 99 l 241 52 l 213 100 l 289 142 l 241 230 l 166 185 l 138 230 l 216 275 l 168 360 l 92 320 l 64 363 l 142 406 l 86 509 l 5 466 l -17 511 l 251 650 l 431 130 l 639 626 l 735 583 z "},"w":{"ha":1030,"x_min":0,"x_max":1030,"o":"m 1030 591 l 783 -23 l 675 -40 l 494 421 l 372 35 l 180 -61 l 163 7 l 243 43 l 230 85 l 149 48 l 134 109 l 206 138 l 193 176 l 121 151 l 106 206 l 172 233 l 159 272 l 96 246 l 0 587 l 113 637 l 309 157 l 467 591 l 652 642 l 753 123 l 930 635 l 1030 591 m 587 -76 q 562 -136 587 -111 q 502 -161 536 -161 q 443 -136 467 -161 q 418 -76 418 -111 q 443 -18 418 -42 q 502 7 467 7 q 562 -18 536 7 q 587 -76 587 -42 z "},"x":{"ha":821,"x_min":35,"x_max":786,"o":"m 786 358 q 762 299 786 323 q 703 274 737 274 q 643 299 667 274 q 618 358 618 323 q 643 416 618 392 q 703 441 669 441 q 761 416 736 441 q 786 358 786 392 m 203 310 q 178 251 203 275 q 117 227 153 227 q 59 251 83 227 q 35 310 35 275 q 59 368 35 344 q 117 393 83 393 q 177 368 152 393 q 203 310 203 344 m 715 79 l 542 -54 l 375 223 l 145 -45 l 100 -5 l 323 306 l 144 609 l 227 663 l 418 434 l 571 650 l 675 573 l 486 353 l 715 79 z "},"y":{"ha":824,"x_min":43,"x_max":737,"o":"m 737 217 q 640 -306 737 -132 q 348 -481 543 -481 q 181 -456 258 -481 q 43 -382 105 -432 l 75 -323 q 177 -380 120 -361 q 301 -399 233 -399 q 348 -396 326 -399 q 393 -388 371 -394 q 371 -390 382 -389 q 350 -391 361 -391 q 252 -374 298 -391 q 165 -326 206 -358 q 99 -249 121 -291 q 75 -155 77 -206 q 127 -221 102 -193 q 176 -263 153 -248 q 240 -293 205 -283 q 317 -302 275 -302 q 493 -175 431 -302 q 566 206 555 -48 q 525 146 546 172 q 483 104 505 121 l 507 43 l 466 8 l 439 78 q 394 64 418 68 q 343 64 370 61 l 323 -12 l 261 3 l 291 75 q 235 104 260 85 q 189 154 209 124 l 130 109 l 85 157 l 165 203 q 147 256 154 228 q 137 315 140 284 l 71 291 l 50 345 l 132 368 q 130 383 131 375 q 130 399 130 391 q 131 428 130 409 q 135 474 133 446 l 43 474 l 50 538 l 140 525 l 147 580 l 261 588 q 240 483 247 532 q 233 392 233 434 q 241 309 233 347 q 267 241 250 271 q 319 185 288 203 q 393 166 351 166 q 514 219 474 166 q 554 379 554 273 q 549 457 554 416 q 532 543 543 498 l 715 585 q 731 392 726 484 q 737 217 737 300 z "},"z":{"ha":784,"x_min":26,"x_max":801,"o":"m 801 505 q 789 469 801 481 q 753 457 777 457 q 717 469 729 457 q 705 505 705 481 q 717 541 705 529 q 753 553 729 553 q 789 541 777 553 q 801 505 801 529 m 650 343 q 639 308 650 319 q 602 296 627 296 q 566 308 578 296 q 553 343 553 319 q 566 379 553 367 q 602 391 578 391 q 639 379 627 391 q 650 343 650 367 m 701 619 l 180 30 l 654 58 l 642 -86 l 26 -56 l 340 521 l 40 504 l 88 650 l 701 619 m 500 182 q 489 145 500 157 q 452 134 477 134 q 415 145 428 134 q 403 182 403 157 q 415 218 403 205 q 452 230 428 230 q 489 218 477 230 q 500 182 500 205 m 467 570 l 412 591 q 372 426 398 506 q 309 270 347 346 l 329 243 q 408 394 373 312 q 467 570 442 476 z "},"{":{"ha":779,"x_min":35,"x_max":705,"o":"m 218 578 q 191 514 218 541 q 127 486 164 486 q 62 514 89 486 q 35 578 35 541 q 62 643 35 615 q 127 670 89 670 q 191 643 164 670 q 218 578 218 615 m 705 1112 q 596 1099 653 1106 q 476 1082 538 1091 q 421 960 440 1067 q 401 656 403 854 l 310 590 l 401 543 q 405 286 402 406 q 412 64 408 165 l 701 -88 l 686 -203 l 301 -54 l 212 931 q 210 948 211 940 q 210 964 210 956 q 226 1058 210 1013 q 275 1141 242 1103 q 353 1202 311 1181 q 444 1222 395 1222 q 573 1221 508 1222 q 703 1217 637 1219 l 705 1112 m 450 1147 l 426 1179 q 340 1012 378 1103 q 272 817 302 922 l 334 791 q 378 974 349 885 q 450 1147 408 1063 z "},"|":{"ha":581,"x_min":213,"x_max":368,"o":"m 368 -479 l 213 -479 l 213 1251 l 368 1251 l 368 -479 m 343 941 q 331 977 343 965 q 294 989 319 989 q 258 977 271 989 q 246 941 246 965 q 258 905 246 917 q 294 893 271 893 q 331 905 319 893 q 343 941 343 917 z "},"}":{"ha":779,"x_min":58,"x_max":727,"o":"m 727 585 q 700 520 727 547 q 635 494 673 494 q 570 520 597 494 q 543 585 543 547 q 570 650 543 623 q 635 677 597 677 q 700 650 673 677 q 727 585 727 623 m 552 99 q 535 3 552 48 q 486 -79 519 -41 q 409 -139 451 -119 q 317 -159 367 -159 q 189 -158 254 -159 q 59 -154 125 -157 l 58 -48 q 166 -36 109 -43 q 286 -20 223 -28 q 321 48 306 -11 q 346 218 336 107 q 356 362 353 290 q 360 507 360 434 l 452 573 l 360 619 q 357 778 360 683 q 350 999 355 872 l 61 1151 l 76 1265 l 460 1116 l 550 132 q 551 114 551 123 q 552 99 552 106 m 490 246 l 428 272 q 384 89 412 178 q 312 -85 355 -1 l 336 -116 q 422 50 384 -41 q 490 246 460 140 z "},"~":{"ha":748,"x_min":28,"x_max":715,"o":"m 715 972 q 708 845 715 906 q 684 727 700 783 q 623 601 660 643 q 536 559 587 559 q 477 584 505 559 q 428 656 450 608 q 409 710 425 664 q 367 838 394 755 q 335 911 351 886 q 301 937 318 937 q 245 898 271 937 q 201 783 220 859 q 192 728 201 779 q 166 580 183 677 l 28 690 q 127 1002 68 899 q 263 1106 186 1106 q 336 1086 302 1106 q 396 1027 370 1067 q 426 971 408 1008 q 466 880 444 935 q 495 821 481 841 q 521 801 509 801 q 557 833 545 801 q 569 928 569 865 q 567 990 569 958 q 559 1057 564 1023 l 710 1099 q 714 1035 713 1067 q 715 972 715 1003 m 343 821 q 331 784 343 796 q 294 772 319 772 q 258 784 271 772 q 246 821 246 796 q 258 857 246 844 q 294 869 271 869 q 331 857 319 869 q 343 821 343 844 z "},"":{"ha":1105,"x_min":0,"x_max":1070,"o":"m 1070 35 l 950 7 l 869 254 l 382 261 l 261 -69 l 0 111 l 511 1158 l 699 1174 l 1070 35 m 762 578 l 634 1034 l 459 509 l 762 578 m 829 374 l 789 492 l 425 401 l 403 347 l 829 374 m 327 446 l 302 477 q 216 306 254 396 q 151 116 178 216 l 213 90 q 255 272 227 182 q 327 446 284 361 m 900 1291 q 871 1222 900 1251 q 802 1193 842 1193 q 731 1222 760 1193 q 701 1291 701 1251 q 731 1360 701 1331 q 802 1390 760 1390 q 871 1360 842 1390 q 900 1291 900 1331 m 526 1291 q 496 1222 526 1251 q 426 1193 467 1193 q 356 1222 386 1193 q 327 1291 327 1251 q 356 1360 327 1331 q 426 1390 386 1390 q 496 1360 467 1390 q 526 1291 526 1331 z "},"":{"ha":1105,"x_min":0,"x_max":1070,"o":"m 1070 35 l 950 7 l 869 254 l 382 261 l 261 -69 l 0 111 l 511 1158 l 699 1174 l 1070 35 m 762 578 l 634 1034 l 459 509 l 762 578 m 829 374 l 789 492 l 425 401 l 403 347 l 829 374 m 327 446 l 302 477 q 216 306 254 396 q 151 116 178 216 l 213 90 q 255 272 227 182 q 327 446 284 361 m 764 1352 q 722 1249 764 1291 q 618 1206 680 1206 q 515 1249 558 1206 q 471 1352 471 1291 q 515 1455 471 1413 q 618 1497 558 1497 q 722 1454 680 1497 q 764 1352 764 1411 m 683 1348 q 659 1406 683 1382 q 602 1430 635 1430 q 543 1406 568 1430 q 519 1348 519 1382 q 543 1291 519 1314 q 602 1267 568 1267 q 659 1291 635 1267 q 683 1348 683 1314 z "},"":{"ha":1040,"x_min":43,"x_max":994,"o":"m 994 388 l 931 388 q 925 329 931 358 q 907 270 920 299 l 979 237 l 958 192 l 885 224 q 840 166 865 193 q 783 119 814 140 l 817 37 l 763 5 l 725 90 q 638 66 681 72 q 555 68 595 61 l 536 -30 l 476 -14 l 500 75 q 443 91 471 81 q 391 111 416 100 l 345 33 l 296 71 l 337 142 q 280 190 307 163 q 230 251 254 217 l 149 208 l 121 254 l 201 301 q 162 410 176 353 q 147 532 149 467 l 59 517 l 43 578 l 149 591 q 166 702 153 648 q 199 808 178 756 l 116 864 l 154 917 l 227 865 q 267 927 247 899 q 309 979 288 956 l 248 1062 l 292 1097 l 351 1023 q 418 1073 385 1051 q 486 1108 452 1095 l 467 1189 l 532 1201 l 542 1125 q 586 1133 564 1130 q 632 1135 609 1135 q 679 1132 656 1135 q 724 1122 701 1128 l 743 1201 l 796 1187 l 770 1099 q 821 1058 797 1082 q 864 1002 844 1034 l 924 1044 l 959 989 l 892 950 q 909 907 902 926 q 921 872 917 887 l 857 846 q 749 964 810 924 q 609 1004 687 1004 q 486 976 543 1004 q 385 890 430 947 q 323 777 343 838 q 302 648 302 715 q 321 510 302 572 q 379 399 340 448 q 479 318 422 345 q 609 291 536 291 q 770 349 707 291 q 834 504 834 408 l 895 528 q 914 486 907 508 q 926 437 922 463 l 994 437 l 994 388 m 650 -229 l 437 -270 l 442 -219 l 506 -204 l 506 -166 l 447 -178 l 450 -142 l 503 -135 l 503 -98 l 454 -105 l 458 -64 l 508 -59 l 509 -24 l 461 -28 l 473 87 l 582 78 l 650 -229 z "},"":{"ha":842,"x_min":96,"x_max":825,"o":"m 591 917 l 571 737 l 413 776 l 466 886 l 591 917 m 825 872 l 717 841 q 686 960 711 913 q 614 1030 661 1007 q 533 1053 589 1042 q 391 1070 477 1063 l 339 623 l 686 641 l 599 446 l 322 505 l 261 52 l 515 48 l 604 178 l 746 186 l 749 -30 l 96 7 l 134 715 l 224 710 l 239 768 l 135 770 l 140 852 l 239 844 l 250 917 l 144 917 l 147 997 l 246 989 l 260 1052 l 151 1057 l 157 1181 q 292 1170 224 1175 q 428 1161 360 1165 q 572 1134 509 1152 q 680 1088 635 1116 q 775 999 739 1053 q 825 872 811 945 m 674 1399 l 429 1198 l 374 1252 l 560 1524 l 674 1399 z "},"":{"ha":1201,"x_min":0,"x_max":1084,"o":"m 1084 712 q 1084 670 1084 691 q 1082 626 1083 648 l 1047 -71 l 304 684 l 274 37 l 0 35 l 81 254 l 213 261 l 270 1210 l 923 405 q 935 534 928 470 q 947 664 941 599 q 958 806 954 741 q 961 924 961 871 q 935 1122 961 1035 q 857 1274 909 1210 l 902 1301 q 1039 1055 993 1202 q 1084 712 1084 907 m 512 728 q 500 765 512 753 q 464 777 488 777 q 428 765 440 777 q 416 728 416 753 q 428 692 416 704 q 464 680 440 680 q 500 692 488 680 q 512 728 512 704 m 701 521 q 682 566 701 547 q 639 585 664 585 q 593 566 612 585 q 574 521 574 547 q 593 477 574 494 q 639 459 612 459 q 682 477 664 459 q 701 521 701 495 m 870 315 q 859 351 870 339 q 822 363 847 363 q 785 351 798 363 q 773 315 773 339 q 785 279 773 291 q 822 267 798 267 q 859 279 847 267 q 870 315 870 291 m 818 1451 q 809 1375 818 1410 q 785 1313 801 1341 q 735 1261 764 1278 q 668 1244 706 1244 q 550 1315 600 1244 q 473 1385 500 1385 q 426 1375 446 1385 q 392 1344 406 1364 q 378 1312 386 1335 q 360 1254 370 1289 l 243 1309 q 328 1465 278 1413 q 441 1516 377 1516 q 502 1509 474 1516 q 552 1485 529 1501 q 577 1463 563 1478 q 610 1427 591 1448 q 634 1403 623 1411 q 656 1396 646 1396 q 686 1406 676 1396 q 696 1438 696 1417 q 694 1461 696 1448 q 687 1492 692 1475 l 813 1513 q 817 1481 816 1497 q 818 1451 818 1466 z "},"":{"ha":1068,"x_min":69,"x_max":999,"o":"m 999 580 q 968 378 999 473 q 876 202 938 284 q 723 68 808 113 q 533 23 637 23 q 345 68 430 23 q 192 202 260 113 q 100 378 130 283 q 69 580 69 473 q 99 779 69 686 q 189 951 130 872 q 340 1080 255 1037 q 528 1123 425 1123 q 718 1080 632 1123 q 872 951 804 1037 q 967 779 935 872 q 999 580 999 686 m 852 516 q 852 534 852 525 q 852 553 852 543 l 746 545 l 734 599 l 842 616 q 817 700 833 661 q 777 772 801 739 l 687 664 l 648 696 l 727 827 q 640 878 688 861 q 535 893 593 894 l 576 730 l 528 713 l 471 879 q 378 825 420 861 q 301 737 336 789 l 412 614 l 372 568 l 268 675 q 236 577 246 625 q 227 486 226 530 l 228 460 l 348 452 l 348 393 l 233 399 q 249 332 238 366 q 277 264 260 298 l 370 348 l 408 313 l 313 213 q 377 151 342 176 q 454 114 412 127 l 469 248 l 517 241 l 514 104 l 522 104 q 605 117 564 104 q 686 159 646 130 l 608 310 l 654 337 l 734 203 q 778 260 759 231 q 810 320 797 289 l 697 418 l 727 448 l 832 386 q 847 447 842 414 q 852 516 852 479 m 817 1286 q 788 1218 817 1247 q 719 1189 759 1189 q 648 1218 677 1189 q 618 1286 618 1246 q 648 1356 618 1327 q 719 1385 677 1385 q 788 1356 759 1385 q 817 1286 817 1327 m 444 1286 q 414 1218 444 1246 q 343 1189 384 1189 q 274 1218 303 1189 q 244 1286 244 1247 q 274 1356 244 1327 q 343 1385 303 1385 q 414 1356 384 1385 q 444 1286 444 1327 z "},"":{"ha":1054,"x_min":103,"x_max":939,"o":"m 939 484 q 830 123 939 243 q 502 3 721 3 q 318 31 395 3 q 193 113 241 58 q 125 243 148 164 q 103 430 103 323 q 124 695 103 519 q 144 961 144 872 q 136 1062 144 1019 q 111 1135 127 1105 l 168 1161 q 218 1021 199 1099 q 243 847 237 942 q 247 735 245 817 q 248 519 248 653 q 252 378 248 436 q 265 288 256 320 q 323 186 284 220 q 422 152 363 152 q 539 176 492 152 q 614 248 587 199 q 643 335 633 282 q 652 460 652 388 q 652 492 652 473 q 650 535 651 511 q 649 580 650 562 q 649 608 649 598 l 753 616 l 746 696 l 648 692 l 644 768 l 741 773 l 739 852 l 644 852 l 641 931 l 739 924 l 739 997 l 641 1006 l 637 1086 l 919 1059 q 933 638 928 782 q 939 484 939 494 m 512 566 q 487 506 512 531 q 428 481 463 481 q 369 506 393 481 q 345 566 345 532 q 369 625 345 600 q 428 650 393 650 q 487 626 463 650 q 512 566 512 601 m 807 1286 q 778 1218 807 1247 q 709 1189 749 1189 q 638 1218 667 1189 q 608 1286 608 1246 q 638 1356 608 1327 q 709 1385 667 1385 q 778 1356 749 1385 q 807 1286 807 1327 m 433 1286 q 404 1218 433 1246 q 333 1189 374 1189 q 263 1218 293 1189 q 234 1286 234 1247 q 263 1356 234 1327 q 333 1385 293 1385 q 404 1356 374 1385 q 433 1286 433 1327 z "},"":{"ha":779,"x_min":43,"x_max":730,"o":"m 728 70 l 727 33 q 519 -38 622 -14 q 316 -61 416 -61 q 214 -50 260 -61 q 132 -18 168 -39 q 66 46 88 7 q 44 138 44 85 q 137 302 44 230 q 413 428 229 375 q 362 494 398 471 q 272 516 327 516 q 165 492 213 516 q 79 421 117 468 l 43 456 q 184 588 100 543 q 380 632 269 632 q 540 582 471 632 q 656 430 609 531 q 712 261 694 351 q 728 70 730 171 m 623 306 q 611 342 623 330 q 574 355 599 355 q 537 342 550 355 q 525 306 525 330 q 537 270 525 281 q 574 258 550 258 q 611 270 599 258 q 623 306 623 281 m 461 120 q 455 242 461 182 q 437 361 450 302 q 322 322 374 343 q 233 279 271 302 l 302 -1 q 396 5 357 -1 q 459 24 435 11 q 461 73 460 49 q 461 120 461 96 m 650 123 q 632 167 650 149 q 588 185 614 185 q 544 168 562 185 q 525 123 525 150 q 544 79 525 96 q 588 61 562 61 q 632 79 614 61 q 650 123 650 97 m 629 909 l 384 708 l 330 762 l 515 1034 l 629 909 z "},"":{"ha":779,"x_min":43,"x_max":730,"o":"m 728 70 l 727 33 q 519 -38 622 -14 q 316 -61 416 -61 q 214 -50 260 -61 q 132 -18 168 -39 q 66 46 88 7 q 44 138 44 85 q 137 302 44 230 q 413 428 229 375 q 362 494 398 471 q 272 516 327 516 q 165 492 213 516 q 79 421 117 468 l 43 456 q 184 588 100 543 q 380 632 269 632 q 540 582 471 632 q 656 430 609 531 q 712 261 694 351 q 728 70 730 171 m 623 306 q 611 342 623 330 q 574 355 599 355 q 537 342 550 355 q 525 306 525 330 q 537 270 525 281 q 574 258 550 258 q 611 270 599 258 q 623 306 623 281 m 461 120 q 455 242 461 182 q 437 361 450 302 q 322 322 374 343 q 233 279 271 302 l 302 -1 q 396 5 357 -1 q 459 24 435 11 q 461 73 460 49 q 461 120 461 96 m 650 123 q 632 167 650 149 q 588 185 614 185 q 544 168 562 185 q 525 123 525 150 q 544 79 525 96 q 588 61 562 61 q 632 79 614 61 q 650 123 650 97 m 445 760 l 391 707 l 145 907 l 260 1031 l 445 760 z "},"":{"ha":779,"x_min":43,"x_max":730,"o":"m 728 70 l 727 33 q 519 -38 622 -14 q 316 -61 416 -61 q 214 -50 260 -61 q 132 -18 168 -39 q 66 46 88 7 q 44 138 44 85 q 137 302 44 230 q 413 428 229 375 q 362 494 398 471 q 272 516 327 516 q 165 492 213 516 q 79 421 117 468 l 43 456 q 184 588 100 543 q 380 632 269 632 q 540 582 471 632 q 656 430 609 531 q 712 261 694 351 q 728 70 730 171 m 623 306 q 611 342 623 330 q 574 355 599 355 q 537 342 550 355 q 525 306 525 330 q 537 270 525 281 q 574 258 550 258 q 611 270 599 258 q 623 306 623 281 m 461 120 q 455 242 461 182 q 437 361 450 302 q 322 322 374 343 q 233 279 271 302 l 302 -1 q 396 5 357 -1 q 459 24 435 11 q 461 73 460 49 q 461 120 461 96 m 650 123 q 632 167 650 149 q 588 185 614 185 q 544 168 562 185 q 525 123 525 150 q 544 79 525 96 q 588 61 562 61 q 632 79 614 61 q 650 123 650 97 m 630 779 l 565 713 l 360 875 l 212 706 l 92 787 l 352 981 l 630 779 z "},"":{"ha":779,"x_min":43,"x_max":730,"o":"m 728 70 l 727 33 q 519 -38 622 -14 q 316 -61 416 -61 q 214 -50 260 -61 q 132 -18 168 -39 q 66 46 88 7 q 44 138 44 85 q 137 302 44 230 q 413 428 229 375 q 362 494 398 471 q 272 516 327 516 q 165 492 213 516 q 79 421 117 468 l 43 456 q 184 588 100 543 q 380 632 269 632 q 540 582 471 632 q 656 430 609 531 q 712 261 694 351 q 728 70 730 171 m 623 306 q 611 342 623 330 q 574 355 599 355 q 537 342 550 355 q 525 306 525 330 q 537 270 525 281 q 574 258 550 258 q 611 270 599 258 q 623 306 623 281 m 461 120 q 455 242 461 182 q 437 361 450 302 q 322 322 374 343 q 233 279 271 302 l 302 -1 q 396 5 357 -1 q 459 24 435 11 q 461 73 460 49 q 461 120 461 96 m 650 123 q 632 167 650 149 q 588 185 614 185 q 544 168 562 185 q 525 123 525 150 q 544 79 525 96 q 588 61 562 61 q 632 79 614 61 q 650 123 650 97 m 659 814 q 630 746 659 775 q 561 717 601 717 q 490 746 519 717 q 460 814 460 774 q 490 884 460 855 q 561 913 519 913 q 630 884 601 913 q 659 814 659 855 m 286 814 q 256 746 286 774 q 185 717 226 717 q 116 746 145 717 q 86 814 86 775 q 116 884 86 855 q 185 913 145 913 q 256 884 226 913 q 286 814 286 855 z "},"":{"ha":779,"x_min":43,"x_max":730,"o":"m 728 70 l 727 33 q 519 -38 622 -14 q 316 -61 416 -61 q 214 -50 260 -61 q 132 -18 168 -39 q 66 46 88 7 q 44 138 44 85 q 137 302 44 230 q 413 428 229 375 q 362 494 398 471 q 272 516 327 516 q 165 492 213 516 q 79 421 117 468 l 43 456 q 184 588 100 543 q 380 632 269 632 q 540 582 471 632 q 656 430 609 531 q 712 261 694 351 q 728 70 730 171 m 623 306 q 611 342 623 330 q 574 355 599 355 q 537 342 550 355 q 525 306 525 330 q 537 270 525 281 q 574 258 550 258 q 611 270 599 258 q 623 306 623 281 m 461 120 q 455 242 461 182 q 437 361 450 302 q 322 322 374 343 q 233 279 271 302 l 302 -1 q 396 5 357 -1 q 459 24 435 11 q 461 73 460 49 q 461 120 461 96 m 650 123 q 632 167 650 149 q 588 185 614 185 q 544 168 562 185 q 525 123 525 150 q 544 79 525 96 q 588 61 562 61 q 632 79 614 61 q 650 123 650 97 m 671 913 q 662 838 671 873 q 637 776 654 804 q 588 724 617 741 q 521 707 559 707 q 403 778 452 707 q 326 848 353 848 q 278 838 298 848 q 245 807 258 827 q 231 775 239 798 q 213 717 223 752 l 96 772 q 180 927 131 876 q 294 979 230 979 q 354 971 327 979 q 405 948 382 964 q 430 926 416 941 q 463 890 444 911 q 487 866 476 874 q 509 859 498 859 q 539 869 529 859 q 549 901 549 880 q 547 924 549 911 q 540 955 545 938 l 666 976 q 670 944 669 960 q 671 913 671 928 z "},"":{"ha":779,"x_min":43,"x_max":730,"o":"m 530 838 q 487 735 530 777 q 384 692 445 692 q 280 734 323 692 q 237 838 237 777 q 280 941 237 899 q 384 983 323 983 q 487 940 445 983 q 530 838 530 897 m 448 834 q 425 892 448 868 q 367 916 401 916 q 309 892 333 916 q 284 834 284 868 q 309 777 284 800 q 367 753 333 753 q 425 777 401 753 q 448 834 448 800 m 728 70 l 727 33 q 519 -38 622 -14 q 316 -61 416 -61 q 214 -50 260 -61 q 132 -18 168 -39 q 66 46 88 7 q 44 138 44 85 q 137 302 44 230 q 413 428 229 375 q 362 494 398 471 q 272 516 327 516 q 165 492 213 516 q 79 421 117 468 l 43 456 q 184 588 100 543 q 380 632 269 632 q 540 582 471 632 q 656 430 609 531 q 712 261 694 351 q 728 70 730 171 m 623 306 q 611 342 623 330 q 574 355 599 355 q 537 342 550 355 q 525 306 525 330 q 537 270 525 281 q 574 258 550 258 q 611 270 599 258 q 623 306 623 281 m 461 120 q 455 242 461 182 q 437 361 450 302 q 322 322 374 343 q 233 279 271 302 l 302 -1 q 396 5 357 -1 q 459 24 435 11 q 461 73 460 49 q 461 120 461 96 m 650 123 q 632 167 650 149 q 588 185 614 185 q 544 168 562 185 q 525 123 525 150 q 544 79 525 96 q 588 61 562 61 q 632 79 614 61 q 650 123 650 97 z "},"":{"ha":727,"x_min":61,"x_max":692,"o":"m 692 145 q 550 16 628 59 q 381 -26 473 -26 q 150 61 239 -26 q 61 289 61 148 q 163 530 61 428 q 403 632 264 632 q 479 625 444 632 q 542 605 514 618 q 597 560 579 587 q 616 497 616 533 q 588 431 616 464 q 505 367 561 399 l 476 395 q 499 424 490 409 q 512 456 509 439 l 431 476 l 441 505 l 514 495 q 502 526 512 512 q 475 549 492 539 q 443 562 460 558 q 408 566 427 566 q 388 565 399 566 q 367 563 378 564 l 382 457 l 351 450 l 323 542 q 270 501 292 528 q 233 437 247 475 l 327 410 l 313 375 l 221 398 q 213 361 216 382 q 210 312 210 340 q 211 287 210 299 q 215 264 212 275 l 292 291 l 313 251 l 224 220 q 243 178 231 199 q 275 134 256 157 l 337 182 l 367 157 l 313 106 q 364 80 336 88 q 428 71 392 71 l 434 151 l 469 151 l 476 73 q 524 82 500 75 q 571 104 547 90 l 547 172 l 578 183 l 604 128 q 628 150 616 137 q 654 178 641 162 l 692 145 m 478 -285 l 265 -326 l 271 -275 l 334 -260 l 334 -222 l 275 -234 l 279 -198 l 331 -191 l 331 -155 l 282 -161 l 286 -120 l 336 -115 l 338 -81 l 290 -84 l 302 31 l 410 22 l 478 -285 z "},"":{"ha":829,"x_min":43,"x_max":786,"o":"m 786 52 q 755 21 769 35 q 732 0 742 8 l 783 -76 l 735 -104 l 684 -40 q 626 -67 656 -56 q 561 -83 595 -79 l 559 -163 l 498 -159 l 504 -85 q 437 -78 473 -85 q 363 -59 402 -72 l 326 -140 l 264 -107 l 306 -31 q 245 11 273 -13 q 197 66 218 35 l 124 20 l 94 68 l 173 109 q 149 176 157 142 q 137 246 140 210 l 64 228 l 43 288 l 137 309 q 149 377 140 347 q 170 431 157 408 l 104 471 l 135 522 l 199 477 q 236 515 216 498 q 279 545 256 532 l 223 626 l 284 656 l 329 570 q 368 581 351 576 q 399 587 386 585 l 418 675 l 466 661 l 454 590 q 505 583 481 590 q 552 563 530 576 l 619 629 l 657 597 l 593 528 q 621 494 608 514 q 644 450 634 474 l 724 476 l 737 426 l 661 399 q 670 367 666 385 q 677 329 673 349 l 361 274 l 361 267 q 372 173 361 217 q 404 90 382 130 q 466 20 430 43 q 547 -3 502 -3 q 644 21 593 -3 q 751 96 694 45 l 786 52 m 509 385 q 487 429 506 414 q 431 444 467 444 q 349 418 387 444 q 298 350 311 391 l 509 385 m 649 909 l 404 708 l 349 762 l 535 1034 l 649 909 z "},"":{"ha":829,"x_min":43,"x_max":786,"o":"m 786 52 q 755 21 769 35 q 732 0 742 8 l 783 -76 l 735 -104 l 684 -40 q 626 -67 656 -56 q 561 -83 595 -79 l 559 -163 l 498 -159 l 504 -85 q 437 -78 473 -85 q 363 -59 402 -72 l 326 -140 l 264 -107 l 306 -31 q 245 11 273 -13 q 197 66 218 35 l 124 20 l 94 68 l 173 109 q 149 176 157 142 q 137 246 140 210 l 64 228 l 43 288 l 137 309 q 149 377 140 347 q 170 431 157 408 l 104 471 l 135 522 l 199 477 q 236 515 216 498 q 279 545 256 532 l 223 626 l 284 656 l 329 570 q 368 581 351 576 q 399 587 386 585 l 418 675 l 466 661 l 454 590 q 505 583 481 590 q 552 563 530 576 l 619 629 l 657 597 l 593 528 q 621 494 608 514 q 644 450 634 474 l 724 476 l 737 426 l 661 399 q 670 367 666 385 q 677 329 673 349 l 361 274 l 361 267 q 372 173 361 217 q 404 90 382 130 q 466 20 430 43 q 547 -3 502 -3 q 644 21 593 -3 q 751 96 694 45 l 786 52 m 509 385 q 487 429 506 414 q 431 444 467 444 q 349 418 387 444 q 298 350 311 391 l 509 385 m 487 760 l 433 707 l 187 907 l 302 1031 l 487 760 z "},"":{"ha":829,"x_min":43,"x_max":786,"o":"m 786 52 q 755 21 769 35 q 732 0 742 8 l 783 -76 l 735 -104 l 684 -40 q 626 -67 656 -56 q 561 -83 595 -79 l 559 -163 l 498 -159 l 504 -85 q 437 -78 473 -85 q 363 -59 402 -72 l 326 -140 l 264 -107 l 306 -31 q 245 11 273 -13 q 197 66 218 35 l 124 20 l 94 68 l 173 109 q 149 176 157 142 q 137 246 140 210 l 64 228 l 43 288 l 137 309 q 149 377 140 347 q 170 431 157 408 l 104 471 l 135 522 l 199 477 q 236 515 216 498 q 279 545 256 532 l 223 626 l 284 656 l 329 570 q 368 581 351 576 q 399 587 386 585 l 418 675 l 466 661 l 454 590 q 505 583 481 590 q 552 563 530 576 l 619 629 l 657 597 l 593 528 q 621 494 608 514 q 644 450 634 474 l 724 476 l 737 426 l 661 399 q 670 367 666 385 q 677 329 673 349 l 361 274 l 361 267 q 372 173 361 217 q 404 90 382 130 q 466 20 430 43 q 547 -3 502 -3 q 644 21 593 -3 q 751 96 694 45 l 786 52 m 509 385 q 487 429 506 414 q 431 444 467 444 q 349 418 387 444 q 298 350 311 391 l 509 385 m 671 779 l 606 713 l 401 876 l 253 707 l 133 787 l 393 981 l 671 779 z "},"":{"ha":829,"x_min":43,"x_max":786,"o":"m 786 52 q 755 21 769 35 q 732 0 742 8 l 783 -76 l 735 -104 l 684 -40 q 626 -67 656 -56 q 561 -83 595 -79 l 559 -163 l 498 -159 l 504 -85 q 437 -78 473 -85 q 363 -59 402 -72 l 326 -140 l 264 -107 l 306 -31 q 245 11 273 -13 q 197 66 218 35 l 124 20 l 94 68 l 173 109 q 149 176 157 142 q 137 246 140 210 l 64 228 l 43 288 l 137 309 q 149 377 140 347 q 170 431 157 408 l 104 471 l 135 522 l 199 477 q 236 515 216 498 q 279 545 256 532 l 223 626 l 284 656 l 329 570 q 368 581 351 576 q 399 587 386 585 l 418 675 l 466 661 l 454 590 q 505 583 481 590 q 552 563 530 576 l 619 629 l 657 597 l 593 528 q 621 494 608 514 q 644 450 634 474 l 724 476 l 737 426 l 661 399 q 670 367 666 385 q 677 329 673 349 l 361 274 l 361 267 q 372 173 361 217 q 404 90 382 130 q 466 20 430 43 q 547 -3 502 -3 q 644 21 593 -3 q 751 96 694 45 l 786 52 m 509 385 q 487 429 506 414 q 431 444 467 444 q 349 418 387 444 q 298 350 311 391 l 509 385 m 739 839 q 709 770 739 800 q 640 741 680 741 q 569 770 599 741 q 540 839 540 799 q 569 909 540 880 q 640 938 599 938 q 709 909 680 938 q 739 839 739 880 m 365 839 q 335 770 365 799 q 264 741 305 741 q 195 770 224 741 q 165 839 165 800 q 195 909 165 880 q 264 938 224 938 q 335 909 305 938 q 365 839 365 880 z "},"":{"ha":429,"x_min":52,"x_max":449,"o":"m 337 -78 l 52 -41 l 157 619 l 284 619 l 337 -78 m 256 272 q 244 308 256 296 q 208 320 233 320 q 171 308 183 320 q 159 272 159 296 q 171 235 159 248 q 208 223 183 223 q 244 235 233 223 q 256 272 256 248 m 256 88 q 238 132 256 114 q 193 151 220 151 q 150 132 168 151 q 132 88 132 114 q 150 44 132 62 q 193 26 168 26 q 238 44 220 26 q 256 88 256 62 m 449 909 l 203 708 l 149 762 l 335 1034 l 449 909 z "},"":{"ha":429,"x_min":-24,"x_max":337,"o":"m 337 -78 l 52 -41 l 157 619 l 284 619 l 337 -78 m 256 272 q 244 308 256 296 q 208 320 233 320 q 171 308 183 320 q 159 272 159 296 q 171 235 159 248 q 208 223 183 223 q 244 235 233 223 q 256 272 256 248 m 256 88 q 238 132 256 114 q 193 151 220 151 q 150 132 168 151 q 132 88 132 114 q 150 44 132 62 q 193 26 168 26 q 238 44 220 26 q 256 88 256 62 m 276 760 l 222 707 l -24 907 l 92 1031 l 276 760 z "},"":{"ha":429,"x_min":-44,"x_max":494,"o":"m 337 -78 l 52 -41 l 157 619 l 284 619 l 337 -78 m 256 272 q 244 308 256 296 q 208 320 233 320 q 171 308 183 320 q 159 272 159 296 q 171 235 159 248 q 208 223 183 223 q 244 235 233 223 q 256 272 256 248 m 256 88 q 238 132 256 114 q 193 151 220 151 q 150 132 168 151 q 132 88 132 114 q 150 44 132 62 q 193 26 168 26 q 238 44 220 26 q 256 88 256 62 m 494 779 l 429 713 l 224 876 l 76 707 l -44 787 l 216 981 l 494 779 z "},"":{"ha":429,"x_min":-56,"x_max":517,"o":"m 337 -78 l 52 -41 l 157 619 l 284 619 l 337 -78 m 256 272 q 244 308 256 296 q 208 320 233 320 q 171 308 183 320 q 159 272 159 296 q 171 235 159 248 q 208 223 183 223 q 244 235 233 223 q 256 272 256 248 m 256 88 q 238 132 256 114 q 193 151 220 151 q 150 132 168 151 q 132 88 132 114 q 150 44 132 62 q 193 26 168 26 q 238 44 220 26 q 256 88 256 62 m 517 839 q 488 770 517 800 q 418 741 458 741 q 348 770 377 741 q 318 839 318 799 q 348 909 318 880 q 418 938 377 938 q 488 909 458 938 q 517 839 517 880 m 143 839 q 113 770 143 799 q 43 741 83 741 q -27 770 3 741 q -56 839 -56 800 q -27 909 -56 880 q 43 938 3 938 q 113 909 83 938 q 143 839 143 880 z "},"":{"ha":839,"x_min":69,"x_max":787,"o":"m 787 26 l 526 -20 q 534 263 532 188 q 536 358 536 339 q 515 453 536 421 q 454 484 495 484 q 373 449 415 484 q 284 345 330 414 l 264 -7 l 142 -23 l 69 599 l 301 648 l 291 452 q 397 554 341 519 q 515 588 454 588 q 649 527 597 588 q 725 343 701 466 l 787 26 m 675 292 q 665 325 675 313 q 632 336 654 336 q 599 325 610 336 q 588 292 588 313 q 599 259 588 270 q 632 248 610 248 q 665 259 654 248 q 675 292 675 270 m 701 127 q 684 166 701 150 q 644 182 667 182 q 602 168 616 182 q 588 127 588 154 q 602 85 588 99 q 644 71 616 71 q 684 87 667 71 q 701 127 701 103 m 669 913 q 660 838 669 873 q 635 776 652 804 q 586 724 615 741 q 519 707 557 707 q 401 778 450 707 q 323 848 351 848 q 276 838 296 848 q 243 807 256 827 q 229 775 237 798 q 211 717 221 752 l 94 772 q 178 927 129 876 q 292 979 228 979 q 352 971 325 979 q 403 948 380 964 q 428 926 414 941 q 460 890 442 911 q 485 866 474 874 q 507 859 496 859 q 537 869 527 859 q 547 901 547 880 q 545 924 547 911 q 538 955 543 938 l 664 976 q 668 944 667 960 q 669 913 669 928 z "},"":{"ha":862,"x_min":43,"x_max":819,"o":"m 819 363 l 734 340 q 737 313 736 328 q 739 282 739 298 q 735 234 739 258 q 725 186 732 210 l 793 155 l 758 96 l 705 134 q 638 41 679 79 q 542 -20 597 3 l 561 -100 l 498 -116 l 486 -37 q 451 -42 466 -40 q 425 -43 435 -43 q 345 -33 384 -43 q 270 -1 306 -23 l 220 -79 l 166 -48 l 223 33 q 175 83 196 56 q 140 144 155 111 l 56 117 l 43 175 l 121 192 q 112 240 115 217 q 109 282 109 263 q 112 323 109 303 q 119 361 114 343 l 43 386 l 59 444 l 137 412 q 179 487 153 453 q 241 547 205 521 l 195 618 l 248 654 l 292 578 q 356 600 323 593 q 425 608 389 608 q 491 601 460 608 q 552 580 523 593 l 588 644 l 641 614 l 604 549 q 673 481 644 519 q 720 396 701 444 l 803 433 l 819 363 m 549 282 q 541 361 549 325 q 514 427 532 397 q 463 480 492 463 q 393 498 433 498 q 323 480 354 498 q 272 426 293 463 q 246 360 254 396 q 237 282 237 323 q 246 202 237 238 q 271 136 254 165 q 323 82 292 100 q 393 64 353 64 q 464 82 433 64 q 515 136 494 100 q 540 202 531 165 q 549 282 549 238 m 673 909 l 427 708 l 373 762 l 559 1034 l 673 909 z "},"":{"ha":862,"x_min":43,"x_max":819,"o":"m 819 363 l 734 340 q 737 313 736 328 q 739 282 739 298 q 735 234 739 258 q 725 186 732 210 l 793 155 l 758 96 l 705 134 q 638 41 679 79 q 542 -20 597 3 l 561 -100 l 498 -116 l 486 -37 q 451 -42 466 -40 q 425 -43 435 -43 q 345 -33 384 -43 q 270 -1 306 -23 l 220 -79 l 166 -48 l 223 33 q 175 83 196 56 q 140 144 155 111 l 56 117 l 43 175 l 121 192 q 112 240 115 217 q 109 282 109 263 q 112 323 109 303 q 119 361 114 343 l 43 386 l 59 444 l 137 412 q 179 487 153 453 q 241 547 205 521 l 195 618 l 248 654 l 292 578 q 356 600 323 593 q 425 608 389 608 q 491 601 460 608 q 552 580 523 593 l 588 644 l 641 614 l 604 549 q 673 481 644 519 q 720 396 701 444 l 803 433 l 819 363 m 549 282 q 541 361 549 325 q 514 427 532 397 q 463 480 492 463 q 393 498 433 498 q 323 480 354 498 q 272 426 293 463 q 246 360 254 396 q 237 282 237 323 q 246 202 237 238 q 271 136 254 165 q 323 82 292 100 q 393 64 353 64 q 464 82 433 64 q 515 136 494 100 q 540 202 531 165 q 549 282 549 238 m 502 760 l 448 707 l 202 907 l 317 1031 l 502 760 z "},"":{"ha":862,"x_min":43,"x_max":819,"o":"m 819 363 l 734 340 q 737 313 736 328 q 739 282 739 298 q 735 234 739 258 q 725 186 732 210 l 793 155 l 758 96 l 705 134 q 638 41 679 79 q 542 -20 597 3 l 561 -100 l 498 -116 l 486 -37 q 451 -42 466 -40 q 425 -43 435 -43 q 345 -33 384 -43 q 270 -1 306 -23 l 220 -79 l 166 -48 l 223 33 q 175 83 196 56 q 140 144 155 111 l 56 117 l 43 175 l 121 192 q 112 240 115 217 q 109 282 109 263 q 112 323 109 303 q 119 361 114 343 l 43 386 l 59 444 l 137 412 q 179 487 153 453 q 241 547 205 521 l 195 618 l 248 654 l 292 578 q 356 600 323 593 q 425 608 389 608 q 491 601 460 608 q 552 580 523 593 l 588 644 l 641 614 l 604 549 q 673 481 644 519 q 720 396 701 444 l 803 433 l 819 363 m 549 282 q 541 361 549 325 q 514 427 532 397 q 463 480 492 463 q 393 498 433 498 q 323 480 354 498 q 272 426 293 463 q 246 360 254 396 q 237 282 237 323 q 246 202 237 238 q 271 136 254 165 q 323 82 292 100 q 393 64 353 64 q 464 82 433 64 q 515 136 494 100 q 540 202 531 165 q 549 282 549 238 m 677 779 l 612 713 l 408 876 l 259 707 l 139 787 l 399 981 l 677 779 z "},"":{"ha":862,"x_min":43,"x_max":819,"o":"m 819 363 l 734 340 q 737 313 736 328 q 739 282 739 298 q 735 234 739 258 q 725 186 732 210 l 793 155 l 758 96 l 705 134 q 638 41 679 79 q 542 -20 597 3 l 561 -100 l 498 -116 l 486 -37 q 451 -42 466 -40 q 425 -43 435 -43 q 345 -33 384 -43 q 270 -1 306 -23 l 220 -79 l 166 -48 l 223 33 q 175 83 196 56 q 140 144 155 111 l 56 117 l 43 175 l 121 192 q 112 240 115 217 q 109 282 109 263 q 112 323 109 303 q 119 361 114 343 l 43 386 l 59 444 l 137 412 q 179 487 153 453 q 241 547 205 521 l 195 618 l 248 654 l 292 578 q 356 600 323 593 q 425 608 389 608 q 491 601 460 608 q 552 580 523 593 l 588 644 l 641 614 l 604 549 q 673 481 644 519 q 720 396 701 444 l 803 433 l 819 363 m 549 282 q 541 361 549 325 q 514 427 532 397 q 463 480 492 463 q 393 498 433 498 q 323 480 354 498 q 272 426 293 463 q 246 360 254 396 q 237 282 237 323 q 246 202 237 238 q 271 136 254 165 q 323 82 292 100 q 393 64 353 64 q 464 82 433 64 q 515 136 494 100 q 540 202 531 165 q 549 282 549 238 m 710 839 q 681 770 710 800 q 612 741 652 741 q 541 770 570 741 q 511 839 511 799 q 541 909 511 880 q 612 938 570 938 q 681 909 652 938 q 710 839 710 880 m 336 839 q 307 770 336 799 q 236 741 277 741 q 166 770 196 741 q 137 839 137 800 q 166 909 137 880 q 236 938 196 938 q 307 909 277 938 q 336 839 336 880 z "},"":{"ha":862,"x_min":43,"x_max":819,"o":"m 819 363 l 734 340 q 737 313 736 328 q 739 282 739 298 q 735 234 739 258 q 725 186 732 210 l 793 155 l 758 96 l 705 134 q 638 41 679 79 q 542 -20 597 3 l 561 -100 l 498 -116 l 486 -37 q 451 -42 466 -40 q 425 -43 435 -43 q 345 -33 384 -43 q 270 -1 306 -23 l 220 -79 l 166 -48 l 223 33 q 175 83 196 56 q 140 144 155 111 l 56 117 l 43 175 l 121 192 q 112 240 115 217 q 109 282 109 263 q 112 323 109 303 q 119 361 114 343 l 43 386 l 59 444 l 137 412 q 179 487 153 453 q 241 547 205 521 l 195 618 l 248 654 l 292 578 q 356 600 323 593 q 425 608 389 608 q 491 601 460 608 q 552 580 523 593 l 588 644 l 641 614 l 604 549 q 673 481 644 519 q 720 396 701 444 l 803 433 l 819 363 m 549 282 q 541 361 549 325 q 514 427 532 397 q 463 480 492 463 q 393 498 433 498 q 323 480 354 498 q 272 426 293 463 q 246 360 254 396 q 237 282 237 323 q 246 202 237 238 q 271 136 254 165 q 323 82 292 100 q 393 64 353 64 q 464 82 433 64 q 515 136 494 100 q 540 202 531 165 q 549 282 549 238 m 711 913 q 703 838 711 873 q 678 776 694 804 q 629 724 658 741 q 562 707 600 707 q 444 778 493 707 q 366 848 394 848 q 319 838 339 848 q 286 807 299 827 q 272 775 279 798 q 254 717 264 752 l 137 772 q 221 927 172 876 q 335 979 271 979 q 395 971 368 979 q 446 948 422 964 q 471 926 456 941 q 503 890 485 911 q 528 866 517 874 q 549 859 539 859 q 579 869 570 859 q 589 901 589 880 q 587 924 589 911 q 581 955 585 938 l 707 976 q 710 944 709 960 q 711 913 711 928 z "},"":{"ha":873,"x_min":52,"x_max":762,"o":"m 515 536 q 451 378 477 458 q 412 216 425 298 l 357 239 q 418 416 384 334 q 495 566 453 498 l 515 536 m 762 -43 l 536 -14 l 555 145 q 446 33 505 70 q 322 -5 388 -5 q 189 56 241 -5 q 113 237 136 116 l 166 251 l 163 299 l 104 282 l 92 345 l 152 361 l 149 406 l 83 391 l 69 459 l 138 474 l 132 521 l 61 507 l 52 559 l 310 604 q 305 351 307 437 q 303 260 303 264 q 323 140 303 180 q 385 100 344 100 q 475 142 428 100 q 571 268 522 184 l 608 585 l 732 591 l 762 -43 m 644 909 l 399 708 l 345 762 l 530 1034 l 644 909 z "},"":{"ha":873,"x_min":52,"x_max":762,"o":"m 515 536 q 451 378 477 458 q 412 216 425 298 l 357 239 q 418 416 384 334 q 495 566 453 498 l 515 536 m 762 -43 l 536 -14 l 555 145 q 446 33 505 70 q 322 -5 388 -5 q 189 56 241 -5 q 113 237 136 116 l 166 251 l 163 299 l 104 282 l 92 345 l 152 361 l 149 406 l 83 391 l 69 459 l 138 474 l 132 521 l 61 507 l 52 559 l 310 604 q 305 351 307 437 q 303 260 303 264 q 323 140 303 180 q 385 100 344 100 q 475 142 428 100 q 571 268 522 184 l 608 585 l 732 591 l 762 -43 m 514 760 l 460 707 l 214 907 l 330 1031 l 514 760 z "},"":{"ha":873,"x_min":52,"x_max":762,"o":"m 515 536 q 451 378 477 458 q 412 216 425 298 l 357 239 q 418 416 384 334 q 495 566 453 498 l 515 536 m 762 -43 l 536 -14 l 555 145 q 446 33 505 70 q 322 -5 388 -5 q 189 56 241 -5 q 113 237 136 116 l 166 251 l 163 299 l 104 282 l 92 345 l 152 361 l 149 406 l 83 391 l 69 459 l 138 474 l 132 521 l 61 507 l 52 559 l 310 604 q 305 351 307 437 q 303 260 303 264 q 323 140 303 180 q 385 100 344 100 q 475 142 428 100 q 571 268 522 184 l 608 585 l 732 591 l 762 -43 m 692 779 l 627 713 l 422 876 l 273 707 l 153 787 l 414 981 l 692 779 z "},"":{"ha":873,"x_min":52,"x_max":762,"o":"m 515 536 q 451 378 477 458 q 412 216 425 298 l 357 239 q 418 416 384 334 q 495 566 453 498 l 515 536 m 762 -43 l 536 -14 l 555 145 q 446 33 505 70 q 322 -5 388 -5 q 189 56 241 -5 q 113 237 136 116 l 166 251 l 163 299 l 104 282 l 92 345 l 152 361 l 149 406 l 83 391 l 69 459 l 138 474 l 132 521 l 61 507 l 52 559 l 310 604 q 305 351 307 437 q 303 260 303 264 q 323 140 303 180 q 385 100 344 100 q 475 142 428 100 q 571 268 522 184 l 608 585 l 732 591 l 762 -43 m 704 839 q 675 770 704 800 q 606 741 646 741 q 535 770 564 741 q 505 839 505 799 q 535 909 505 880 q 606 938 564 938 q 675 909 646 938 q 704 839 704 880 m 330 839 q 300 770 330 799 q 230 741 271 741 q 160 770 190 741 q 131 839 131 800 q 160 909 131 880 q 230 938 190 938 q 300 909 271 938 q 330 839 330 880 z "},"":{"ha":997,"x_min":33,"x_max":958,"o":"m 958 553 q 947 470 958 509 q 916 399 937 432 q 860 342 892 361 q 784 323 827 323 q 726 331 752 323 q 680 356 700 339 q 648 398 659 374 q 637 454 637 422 q 668 536 637 503 q 748 570 699 570 q 771 561 763 570 q 779 536 779 553 q 772 517 779 523 q 755 511 766 511 q 728 496 737 511 q 718 452 718 481 q 735 412 718 425 q 784 398 751 398 q 851 424 829 398 q 873 500 873 449 q 842 609 873 573 q 745 646 810 646 q 662 617 707 646 q 563 532 617 588 q 572 363 567 439 q 583 227 577 288 q 609 42 595 113 q 641 -59 624 -30 l 512 -484 q 465 -302 494 -408 q 395 -59 436 -196 q 420 95 408 -21 q 443 403 432 210 q 357 343 399 363 q 277 323 316 323 q 170 345 216 323 q 90 408 123 366 q 47 497 61 446 q 33 611 33 547 q 44 698 33 657 q 78 773 56 739 q 139 833 104 813 q 218 854 174 854 q 347 808 298 854 q 395 682 395 762 q 386 622 395 649 q 361 570 377 594 q 317 530 342 543 q 261 517 292 517 q 193 554 216 517 q 170 663 170 590 q 177 691 170 681 q 199 701 185 701 q 225 648 221 701 q 261 595 229 595 q 303 616 289 595 q 317 677 317 636 q 294 744 317 722 q 224 766 271 766 q 143 731 171 766 q 116 625 116 696 q 150 492 116 536 q 251 448 183 448 q 313 466 283 448 q 374 522 344 484 q 415 585 395 553 q 457 649 436 617 q 463 765 460 696 q 469 928 466 835 q 406 970 427 941 q 385 1045 385 1000 q 421 1133 385 1097 q 509 1170 457 1170 q 597 1133 560 1170 q 634 1045 634 1097 q 613 972 634 1002 q 550 928 593 942 q 551 874 550 914 q 553 766 552 833 q 631 810 590 795 q 718 824 672 824 q 820 804 775 824 q 897 744 864 783 q 942 659 927 707 q 958 553 958 611 z "},"":{"ha":862,"x_min":43,"x_max":819,"o":"m 819 917 l 734 895 q 737 867 736 882 q 739 836 739 852 q 735 787 739 811 q 725 741 732 764 l 793 710 l 758 649 l 705 687 q 638 594 679 632 q 542 535 597 556 l 561 454 l 498 437 l 486 517 q 451 512 466 514 q 425 511 435 511 q 345 521 384 511 q 270 552 306 531 l 220 474 l 166 505 l 223 587 q 175 637 196 609 q 140 697 155 665 l 56 672 l 43 728 l 121 746 q 112 794 115 772 q 109 836 109 817 q 112 877 109 857 q 119 916 114 897 l 43 940 l 59 999 l 137 966 q 179 1040 153 1006 q 241 1101 205 1074 l 195 1171 l 248 1208 l 292 1132 q 356 1154 323 1146 q 425 1161 389 1161 q 491 1154 460 1161 q 552 1133 523 1147 l 588 1198 l 641 1168 l 604 1103 q 673 1036 644 1074 q 720 950 701 997 l 803 986 l 819 917 m 673 832 q 602 1005 673 934 q 429 1077 531 1077 q 256 1005 328 1077 q 185 832 185 934 q 256 660 185 731 q 429 588 328 588 q 602 660 531 588 q 673 832 673 731 z "},"":{"ha":897,"x_min":104,"x_max":793,"o":"m 793 345 q 678 269 735 298 q 564 230 621 240 l 578 71 l 474 64 l 469 223 l 418 227 l 370 -33 l 274 -33 l 326 246 q 162 368 220 281 q 104 566 104 454 q 170 779 104 686 q 350 912 236 871 l 334 1075 l 428 1080 l 436 933 l 492 938 l 521 1181 l 618 1161 l 580 931 q 694 884 656 918 q 732 796 732 850 q 708 728 732 760 q 635 666 684 696 l 583 703 q 601 730 595 715 q 607 760 607 745 q 582 813 607 795 q 509 831 557 831 q 432 807 468 831 q 364 737 396 783 q 320 651 334 694 q 306 566 306 608 q 326 467 306 511 q 387 389 347 422 q 472 342 425 358 q 574 327 519 327 q 658 345 612 327 q 760 398 704 363 l 793 345 m 574 568 q 550 508 574 532 q 490 483 525 483 q 430 508 454 483 q 405 568 405 532 q 430 627 405 602 q 490 652 454 652 q 550 627 525 652 q 574 568 574 602 z "},"":{"ha":931,"x_min":69,"x_max":819,"o":"m 819 978 q 802 915 819 944 q 752 861 786 886 q 689 827 721 839 q 621 815 656 815 q 611 816 616 815 q 601 817 606 817 l 593 859 q 679 883 650 862 q 708 941 708 903 q 683 1019 708 993 q 608 1045 659 1045 q 480 946 535 1045 q 386 650 425 848 l 557 677 l 571 597 l 374 578 l 367 533 l 625 533 l 614 444 l 360 463 q 350 328 353 395 q 346 195 346 261 q 347 144 346 168 q 348 96 347 119 q 542 88 475 90 q 615 86 608 86 q 669 89 648 86 q 703 95 691 91 q 735 118 725 102 q 746 159 746 134 q 741 193 746 174 q 725 233 736 212 l 781 253 q 807 198 799 228 q 815 134 815 169 q 799 64 815 94 q 751 17 783 35 q 690 -5 726 3 q 607 -15 654 -13 q 534 -16 570 -16 q 463 -17 498 -16 l 69 -30 l 92 102 l 176 96 l 183 147 l 100 152 l 113 227 l 199 221 l 210 277 l 121 282 l 135 353 l 228 345 l 239 399 l 145 406 l 170 549 q 223 755 188 657 q 310 939 258 852 q 457 1107 378 1050 q 628 1163 536 1163 q 765 1112 711 1163 q 819 978 819 1061 z "},"":{"ha":831,"x_min":58,"x_max":773,"o":"m 773 938 q 709 767 773 831 q 538 703 644 703 q 457 713 494 703 q 388 746 419 724 q 336 804 353 770 q 319 880 319 838 q 332 943 319 916 q 371 989 345 970 q 424 1015 395 1006 q 490 1024 454 1024 q 533 1019 513 1024 q 569 1002 553 1013 q 596 971 587 988 q 606 931 606 954 q 581 877 606 899 q 522 855 556 855 q 486 863 500 855 q 463 886 471 870 q 474 884 468 885 q 485 884 480 884 q 520 892 509 884 q 532 919 532 901 q 519 946 532 937 q 483 955 507 955 q 452 950 467 955 q 426 937 437 946 q 406 914 413 927 q 399 885 399 901 q 432 810 399 835 q 530 786 465 786 q 633 830 593 786 q 672 938 672 873 q 654 1007 672 977 q 601 1060 636 1038 q 536 1088 572 1079 q 459 1097 500 1097 q 368 1084 409 1097 q 294 1047 326 1072 q 242 982 260 1020 q 224 895 224 944 q 257 799 224 846 q 355 709 290 753 q 476 627 416 667 q 597 545 536 586 q 694 419 662 488 q 727 270 727 350 q 700 135 727 195 q 619 33 673 76 q 506 -27 569 -6 q 367 -48 444 -48 q 256 -37 307 -48 q 163 -4 205 -26 q 84 65 111 24 q 58 161 58 106 q 103 295 58 244 q 230 347 148 347 q 290 337 263 347 q 340 310 317 328 q 376 265 364 291 q 388 208 388 239 q 360 121 388 150 q 275 92 332 92 q 222 110 245 92 q 199 155 199 127 q 211 194 199 181 q 247 207 223 207 q 253 207 250 207 q 260 206 256 206 q 248 193 252 200 q 243 180 243 186 q 252 160 243 166 q 275 154 260 154 q 301 165 293 154 q 310 199 310 176 q 303 228 310 215 q 281 250 296 240 q 253 262 269 258 q 221 267 238 267 q 151 240 174 267 q 127 161 127 213 q 141 106 127 130 q 183 66 155 83 q 235 45 206 52 q 296 38 263 38 q 372 52 337 38 q 433 96 406 66 q 473 159 460 124 q 486 236 486 193 q 459 331 486 281 q 375 437 431 382 q 273 535 325 487 q 170 632 221 583 q 87 748 115 691 q 59 861 59 806 q 87 1004 59 942 q 172 1109 116 1067 q 291 1165 223 1147 q 443 1184 358 1184 q 561 1170 505 1184 q 663 1125 616 1155 q 746 1043 718 1090 q 773 938 773 996 m 574 522 l 319 686 l 256 616 l 471 395 l 574 522 m 488 509 l 457 477 l 370 588 l 488 509 z "},"":{"ha":808,"x_min":173,"x_max":635,"o":"m 635 581 q 567 417 635 485 q 403 350 499 350 q 240 417 307 350 q 173 581 173 485 q 240 745 173 677 q 403 812 308 812 q 567 745 499 812 q 635 581 635 677 z "},"":{"ha":958,"x_min":26,"x_max":817,"o":"m 817 1177 l 786 -8 l 591 -61 l 599 20 l 707 40 l 707 94 l 604 76 l 609 138 l 707 151 l 703 206 l 616 199 l 621 258 l 701 267 l 701 322 l 626 320 l 648 545 q 597 514 622 526 q 550 497 573 503 l 495 -73 l 355 -45 l 399 488 q 312 512 353 494 q 231 559 270 530 l 151 471 l 99 514 l 190 599 q 153 650 168 624 q 127 703 137 675 l 47 672 l 26 739 l 109 766 q 106 794 107 782 q 106 817 106 807 q 111 877 106 848 q 127 931 117 905 l 33 979 l 62 1044 l 157 994 q 214 1060 182 1031 q 288 1112 247 1090 l 251 1194 l 306 1219 l 340 1133 q 391 1146 364 1141 q 448 1151 418 1151 q 491 1148 470 1151 q 533 1141 513 1146 l 564 1225 l 628 1204 l 590 1122 q 648 1090 621 1108 q 697 1048 674 1072 l 710 1164 l 817 1177 m 672 784 q 610 937 672 873 q 459 1000 547 1000 q 309 937 370 1000 q 248 784 248 873 q 309 632 248 696 q 459 568 371 568 q 609 632 547 568 q 672 784 672 696 z "},"":{"ha":959,"x_min":35,"x_max":899,"o":"m 899 350 q 880 211 899 274 q 824 97 861 147 q 725 13 783 41 q 593 -15 667 -15 q 525 -5 556 -15 q 468 23 494 4 q 426 72 440 43 q 412 137 412 100 q 417 172 412 155 q 432 201 422 188 q 458 224 443 216 q 490 231 473 231 q 513 229 501 231 q 536 220 525 226 q 492 196 507 212 q 477 154 477 179 q 496 109 477 123 q 552 94 515 94 q 671 162 631 94 q 710 367 710 230 q 701 439 710 405 q 674 506 692 474 q 625 562 653 543 q 563 581 597 581 q 518 574 541 581 q 469 553 494 567 l 433 650 q 616 747 555 680 q 677 919 677 814 q 643 1040 677 999 q 540 1080 608 1080 q 398 986 449 1080 q 337 705 347 892 l 298 -35 l 35 23 l 48 85 l 142 68 l 151 127 l 62 140 l 75 190 l 161 175 l 173 233 l 86 244 l 100 301 l 186 286 l 197 336 l 113 351 l 244 900 q 283 1005 258 958 q 346 1090 309 1053 q 436 1153 387 1132 q 540 1174 484 1174 q 731 1105 659 1174 q 804 919 804 1036 q 766 777 804 837 q 652 679 728 717 q 760 638 713 667 q 838 563 806 609 q 884 466 869 519 q 899 350 899 413 m 566 393 q 541 333 566 358 q 481 309 516 309 q 421 333 446 309 q 396 393 396 358 q 421 451 396 427 q 481 476 447 476 q 541 451 515 476 q 566 393 566 427 z "},"":{"ha":1461,"x_min":68,"x_max":1383,"o":"m 1299 218 q 1231 123 1270 155 q 1141 92 1192 92 q 1028 130 1086 92 q 909 243 970 168 l 763 421 l 673 393 l 661 183 l 517 163 l 484 1024 l 553 1026 q 560 970 557 996 q 564 923 563 944 q 596 925 574 923 q 652 930 618 926 l 657 1014 l 722 1009 l 711 928 q 819 911 768 925 q 914 873 869 898 q 998 801 970 842 q 1026 709 1026 760 q 994 601 1026 656 q 897 490 962 547 l 1037 281 q 1101 214 1067 236 q 1173 191 1135 191 q 1221 200 1199 191 q 1261 228 1244 210 l 1299 218 m 1383 536 q 1377 446 1383 491 q 1359 357 1371 401 l 1299 367 q 1299 409 1299 367 q 1299 536 1299 451 q 1128 934 1299 767 q 725 1101 957 1101 q 326 936 492 1101 q 161 536 161 770 q 326 138 161 303 q 725 -28 492 -28 q 861 -12 796 -28 q 986 37 926 4 l 1028 -48 q 882 -103 958 -85 q 725 -121 806 -121 q 260 72 453 -121 q 68 536 68 264 q 260 1002 68 809 q 725 1194 453 1194 q 1191 1002 998 1194 q 1383 536 1383 809 m 410 528 q 387 472 410 495 q 332 450 364 450 q 277 472 300 450 q 254 528 254 495 q 277 583 254 560 q 332 606 300 606 q 387 583 364 606 q 410 528 410 560 m 635 848 l 570 852 l 583 550 l 635 848 m 888 583 l 882 796 q 783 832 829 818 q 701 852 738 846 l 675 474 q 795 519 742 492 q 888 583 848 546 z "},"":{"ha":1461,"x_min":68,"x_max":1383,"o":"m 1383 536 q 1191 72 1383 264 q 725 -121 998 -121 q 260 72 453 -121 q 68 536 68 264 q 260 1002 68 809 q 725 1194 453 1194 q 820 1187 772 1194 q 916 1166 867 1180 l 930 1206 l 979 1192 l 964 1149 q 1083 1087 1027 1124 q 1187 1004 1139 1051 l 1261 1057 l 1288 1017 l 1220 969 q 1342 768 1301 876 q 1383 536 1383 660 m 882 1078 q 802 1095 842 1089 q 725 1101 763 1101 q 695 1100 708 1101 q 673 1099 682 1099 l 703 921 q 734 926 718 924 q 770 928 751 928 q 799 926 785 928 q 825 921 813 924 l 882 1078 m 656 903 l 618 1090 q 517 1060 564 1079 q 428 1016 469 1042 l 568 852 q 608 881 586 868 q 656 903 629 893 m 1112 948 q 1027 1013 1072 985 q 933 1061 983 1041 l 873 900 q 910 871 893 889 q 943 827 928 852 l 1112 948 m 1290 536 q 1253 740 1290 645 q 1144 916 1217 834 l 964 789 l 981 746 q 1018 723 1006 739 q 1030 682 1030 707 q 1010 635 1030 655 q 962 614 989 614 q 915 635 935 614 q 895 682 895 655 q 902 712 895 699 q 923 735 909 726 q 849 805 892 782 q 753 829 806 829 q 661 808 703 829 q 585 745 618 787 q 537 660 553 705 q 522 563 522 614 q 537 460 522 506 q 581 376 552 414 q 656 314 612 334 q 753 294 699 294 q 874 338 825 294 q 923 454 923 381 l 968 473 q 982 438 977 454 q 989 405 988 421 l 941 401 l 941 363 l 996 367 q 991 324 996 346 q 976 279 986 302 l 948 292 l 931 258 l 959 246 q 926 201 945 221 q 880 165 907 181 l 872 180 l 832 157 l 839 144 q 774 124 804 128 q 722 127 745 120 l 713 71 l 657 83 l 669 132 q 629 143 648 136 q 590 159 609 150 l 557 99 l 509 130 l 545 183 q 505 219 524 199 q 469 264 486 239 l 377 208 l 348 253 l 443 309 q 417 385 426 343 q 406 474 408 426 l 254 439 l 243 486 l 408 521 q 418 597 411 562 q 434 659 425 631 l 253 763 l 282 804 l 456 703 q 491 763 473 735 q 528 812 509 790 l 377 981 q 215 785 269 897 q 161 536 161 674 q 326 138 161 303 q 725 -28 492 -28 q 1124 138 958 -28 q 1290 536 1290 303 z "},"":{"ha":1381,"x_min":8,"x_max":1345,"o":"m 763 1177 l 741 1070 q 688 1077 714 1074 q 638 1079 663 1079 q 556 1072 597 1079 q 476 1048 515 1064 l 515 602 l 268 632 l 336 1031 q 276 1027 304 1028 q 224 1025 248 1025 q 127 1034 168 1025 q 62 1061 87 1043 q 21 1120 35 1082 q 8 1211 8 1158 l 8 1232 l 54 1248 q 89 1146 56 1180 q 182 1112 121 1112 q 410 1155 256 1112 q 646 1198 564 1198 q 709 1193 680 1198 q 763 1177 738 1187 m 1345 471 l 1143 448 l 1160 937 l 943 517 l 800 724 q 709 498 766 591 q 574 353 653 406 l 538 425 q 635 545 595 467 q 697 734 674 622 l 786 1168 l 986 793 l 1156 1154 l 1277 1151 l 1345 471 m 454 867 q 441 903 454 890 q 405 916 429 916 q 369 903 381 916 q 357 867 357 890 q 369 830 357 842 q 405 819 381 819 q 441 830 429 819 q 454 867 454 842 m 941 703 l 838 869 l 817 810 l 921 664 l 941 703 z "},"":{"ha":473,"x_min":86,"x_max":386,"o":"m 386 909 l 140 708 l 86 762 l 272 1034 l 386 909 z "},"":{"ha":746,"x_min":86,"x_max":659,"o":"m 659 839 q 630 770 659 800 q 561 741 601 741 q 490 770 519 741 q 460 839 460 799 q 490 909 460 880 q 561 938 519 938 q 630 909 601 938 q 659 839 659 880 m 286 839 q 256 770 286 799 q 185 741 226 741 q 116 770 145 741 q 86 839 86 800 q 116 909 86 880 q 185 938 145 938 q 256 909 226 938 q 286 839 286 880 z "},"":{"ha":682,"x_min":41,"x_max":635,"o":"m 635 641 l 626 519 l 368 557 l 350 459 l 621 418 l 629 296 l 326 340 l 302 227 l 248 227 l 272 348 l 41 382 l 50 504 l 296 466 l 317 566 l 56 606 l 47 727 l 339 684 l 365 814 l 421 814 l 393 675 l 635 641 z "},"":{"ha":1417,"x_min":0,"x_max":1392,"o":"m 1160 945 l 1158 765 l 997 786 l 1037 902 l 1160 945 m 1392 966 l 1286 919 q 1197 1069 1264 1019 q 1016 1119 1129 1119 q 964 1117 991 1119 q 907 1112 937 1115 l 897 621 l 1225 677 l 1196 476 l 895 471 l 886 50 l 1153 73 l 1217 220 l 1373 237 l 1388 -3 l 735 -43 l 715 469 l 469 466 l 258 -117 l 0 47 l 58 151 l 144 97 l 170 155 l 86 205 l 119 264 l 203 218 l 227 270 l 147 317 l 182 375 l 263 334 l 291 382 l 213 431 l 626 1184 q 894 1195 801 1192 q 999 1199 987 1199 q 1255 1141 1156 1199 q 1392 966 1353 1082 m 637 275 q 546 112 585 197 q 484 -66 508 26 l 425 -35 q 512 153 464 66 q 616 310 560 239 l 637 275 m 710 590 l 689 1070 l 504 555 l 710 590 z "},"":{"ha":1068,"x_min":69,"x_max":997,"o":"m 997 580 q 967 378 997 473 q 875 202 937 284 q 723 68 808 113 q 533 23 637 23 q 477 27 505 23 q 422 38 450 31 l 347 -138 l 116 -8 l 212 178 q 105 359 140 258 q 69 580 69 460 q 99 779 69 686 q 189 951 129 872 q 339 1080 254 1037 q 526 1123 423 1123 q 610 1115 569 1123 q 692 1090 652 1106 l 772 1237 l 916 1160 l 829 997 q 955 812 913 917 q 997 580 997 708 m 851 516 q 851 534 851 525 q 850 553 851 543 l 746 545 l 732 599 l 842 616 q 815 701 832 662 q 776 772 799 739 l 687 664 l 646 696 l 725 827 q 638 878 686 861 q 533 893 591 894 l 574 730 l 526 713 l 469 879 q 376 825 418 861 q 301 737 334 789 l 410 614 l 370 568 l 267 675 q 235 573 245 621 q 226 486 224 526 l 227 460 l 347 452 l 347 393 l 231 399 q 248 334 237 368 q 277 264 260 300 l 368 348 l 408 313 l 312 213 q 376 151 340 176 q 452 114 411 127 l 467 248 l 515 241 l 512 104 l 519 104 q 604 117 563 104 q 684 159 645 130 l 606 310 l 652 337 l 732 203 q 775 257 756 227 q 808 320 794 286 l 697 418 l 725 448 l 832 386 q 846 451 842 418 q 851 516 851 484 m 621 511 q 596 451 621 477 q 536 426 570 426 q 477 451 502 426 q 452 511 452 476 q 477 570 452 545 q 536 595 502 595 q 596 570 570 595 q 621 511 621 544 z "},"":{"ha":1070,"x_min":31,"x_max":1031,"o":"m 1031 490 q 1012 376 1031 429 q 954 277 993 323 q 863 205 913 229 q 753 182 813 182 q 636 208 689 182 q 542 289 583 235 q 436 190 494 223 q 310 157 378 157 q 200 181 250 157 q 109 253 150 205 q 51 351 70 298 q 31 466 31 404 q 50 580 31 526 q 109 679 69 634 q 200 749 150 726 q 310 773 250 773 q 425 748 370 773 q 530 672 480 722 q 627 766 571 734 q 753 798 683 798 q 863 773 813 798 q 954 703 913 749 q 1013 604 994 657 q 1031 490 1031 551 m 492 474 q 488 510 492 492 q 476 543 484 528 l 228 625 q 161 523 183 576 q 141 409 139 469 l 142 391 l 441 350 q 480 401 467 370 q 492 474 492 433 m 918 546 l 917 564 l 621 606 q 583 553 595 585 q 570 481 570 522 q 575 445 570 463 q 587 412 579 428 l 831 330 q 898 432 876 378 q 918 546 920 486 z "},"":{"ha":682,"x_min":69,"x_max":619,"o":"m 619 514 l 372 514 l 372 437 l 550 437 l 550 382 l 372 382 l 372 282 l 317 282 l 317 382 l 128 382 l 128 437 l 317 437 l 317 514 l 69 514 l 78 644 l 317 644 l 317 869 l 372 869 l 372 644 l 611 644 l 619 514 m 382 583 q 373 612 382 602 q 343 623 363 623 q 313 612 323 623 q 302 583 302 602 q 313 553 302 563 q 343 543 323 543 q 373 553 363 543 q 382 583 382 563 z "},"":{"ha":705,"x_min":61,"x_max":637,"o":"m 632 718 l 370 505 l 536 370 l 464 286 l 154 406 l 61 528 l 119 563 l 161 495 l 203 517 l 161 588 l 210 618 l 254 545 l 296 576 l 256 644 l 306 673 l 339 614 l 382 641 l 350 699 l 555 825 l 632 718 m 637 109 l 100 88 l 81 227 l 628 248 l 637 109 m 585 182 q 572 219 585 206 q 535 231 560 231 q 497 219 509 231 q 484 182 484 206 q 497 145 484 157 q 535 134 509 134 q 572 145 560 134 q 585 182 585 157 z "},"":{"ha":705,"x_min":79,"x_max":637,"o":"m 637 109 l 100 88 l 81 227 l 175 230 l 154 292 l 370 519 l 79 737 l 152 825 l 545 628 l 545 413 l 241 233 l 628 248 l 637 109 m 514 517 q 498 555 514 539 q 460 571 483 571 q 422 555 439 571 q 406 517 406 539 q 422 480 406 496 q 460 464 439 464 q 498 480 483 464 q 514 517 514 496 m 588 142 l 578 205 l 336 193 l 353 135 l 588 142 z "},"":{"ha":910,"x_min":78,"x_max":824,"o":"m 824 1105 l 552 648 l 745 677 l 745 587 l 519 583 l 526 535 l 800 535 l 756 421 l 538 452 l 609 -28 l 330 1 l 368 429 l 161 391 l 183 486 l 377 515 l 381 559 l 375 566 l 107 515 l 78 616 l 336 637 l 244 793 l 281 821 l 264 861 l 223 829 l 195 872 l 248 907 l 227 955 l 172 913 l 147 959 l 213 1004 l 193 1048 l 123 999 l 90 1055 l 327 1185 l 466 644 l 735 1156 l 824 1105 z "},"":{"ha":873,"x_min":52,"x_max":762,"o":"m 474 433 l 350 277 l 353 395 l 439 477 l 474 433 m 762 -43 l 536 -14 l 555 145 q 446 33 505 70 q 322 -5 388 -5 q 295 -3 308 -5 q 270 1 281 -1 l 231 -180 l 83 -121 l 173 78 q 137 150 152 110 q 113 237 121 190 l 166 251 l 163 299 l 104 282 l 92 345 l 152 361 l 149 406 l 83 391 l 69 459 l 138 474 l 132 521 l 61 507 l 52 559 l 310 604 q 305 351 307 437 q 303 260 303 264 q 323 140 303 180 q 385 100 344 100 q 475 142 428 100 q 571 268 522 184 l 608 585 l 732 591 l 762 -43 z "},"":{"ha":865,"x_min":50,"x_max":825,"o":"m 825 422 q 801 253 825 330 q 727 111 777 176 q 602 7 673 41 q 441 -28 531 -28 q 289 -5 358 -28 q 166 63 220 18 q 79 176 109 111 q 50 323 50 241 q 70 445 50 389 q 130 546 90 501 q 226 617 172 593 q 345 641 279 641 q 448 623 401 641 q 532 572 495 606 q 592 491 572 536 q 611 389 611 446 q 601 324 611 354 q 571 269 591 294 q 522 228 550 241 q 460 215 494 215 q 416 221 437 215 q 378 241 395 227 q 350 275 360 256 q 340 317 340 294 q 358 379 340 355 q 412 413 376 403 q 404 398 406 406 q 401 381 401 391 q 416 340 401 357 q 456 322 432 322 q 506 342 489 322 q 522 401 522 361 q 485 491 522 458 q 391 525 448 525 q 319 509 351 525 q 264 463 288 494 q 231 398 241 433 q 220 323 220 364 q 287 140 220 210 q 466 69 353 69 q 561 91 518 69 q 639 157 604 113 q 687 244 671 197 q 703 345 703 291 q 662 550 703 451 q 541 741 622 650 q 381 883 471 821 q 182 989 291 945 l 301 1202 q 508 1064 415 1144 q 673 883 601 985 q 787 659 749 774 q 825 422 825 544 z "},"":{"ha":892,"x_min":0,"x_max":899,"o":"m 899 12 l 0 33 l 431 634 q 426 664 427 648 q 429 703 426 681 l 166 964 l 75 961 l 116 1184 l 808 1103 l 753 985 l 299 969 l 492 783 q 524 795 508 791 q 555 800 539 800 q 647 761 608 800 q 686 670 686 722 q 647 578 686 617 q 555 540 608 540 q 520 545 536 540 q 488 559 504 549 l 260 248 l 859 286 l 899 12 m 374 149 q 362 183 374 172 q 329 195 351 195 q 295 183 307 195 q 284 149 284 172 q 295 114 284 125 q 329 102 307 102 q 362 114 351 102 q 374 149 374 125 m 580 147 q 563 189 580 172 q 521 206 545 206 q 479 189 497 206 q 460 147 460 172 q 479 105 460 123 q 521 88 497 88 q 563 105 545 88 q 580 147 580 123 m 770 144 q 759 178 770 166 q 725 190 748 190 q 691 178 703 190 q 679 144 679 166 q 691 110 679 121 q 725 99 703 99 q 759 110 748 99 q 770 144 770 121 z "},"":{"ha":958,"x_min":8,"x_max":951,"o":"m 951 1125 l 937 1017 q 860 1026 903 1023 q 767 1029 818 1029 q 730 1029 749 1029 q 690 1028 711 1028 l 850 -124 l 619 -92 l 576 1017 q 502 1006 534 1012 q 446 994 469 1000 l 507 3 l 201 43 l 277 999 q 163 1015 212 1003 q 85 1045 115 1027 q 27 1113 45 1070 q 8 1215 8 1155 l 8 1232 l 54 1248 q 111 1134 56 1172 q 271 1097 165 1097 q 535 1123 359 1097 q 799 1149 710 1149 q 884 1143 846 1149 q 951 1125 923 1137 m 403 699 q 391 736 403 724 q 355 748 379 748 q 318 736 330 748 q 306 699 306 724 q 318 662 306 674 q 355 650 330 650 q 391 662 379 650 q 403 699 403 674 m 416 497 q 397 541 416 522 q 353 559 378 559 q 309 541 327 559 q 291 497 291 522 q 309 452 291 471 q 353 434 327 434 q 397 452 378 434 q 416 497 416 471 m 399 284 q 388 320 399 308 q 351 332 376 332 q 315 320 327 332 q 302 284 302 308 q 315 248 302 260 q 351 236 327 236 q 388 248 376 236 q 399 284 399 260 z "},"":{"ha":848,"x_min":26,"x_max":812,"o":"m 812 578 l 801 507 l 666 497 l 656 416 l 801 412 l 773 315 l 644 323 l 593 -50 l 515 -52 l 557 332 l 326 339 l 363 -59 l 203 -68 l 190 336 l 68 345 l 88 421 l 189 419 l 185 483 l 56 473 l 26 578 l 182 578 l 175 814 l 715 842 l 679 578 l 812 578 m 606 686 l 291 686 l 294 578 l 595 588 l 606 686 m 585 498 l 312 492 l 319 412 l 581 419 l 585 498 z "},"":{"ha":1225,"x_min":-17,"x_max":1295,"o":"m 1194 1070 q 1162 994 1194 1026 q 1086 962 1131 962 q 1011 994 1043 962 q 979 1070 979 1026 q 1011 1145 979 1114 q 1086 1177 1043 1177 q 1162 1145 1131 1177 q 1194 1070 1194 1114 m 1295 1208 l 1229 1174 q 1167 1230 1205 1211 q 1078 1248 1130 1248 q 957 1153 1010 1248 q 869 869 905 1058 q 773 386 810 562 q 720 165 736 209 q 548 -120 653 -25 q 299 -215 443 -215 q 174 -198 231 -215 q 75 -146 118 -182 q 6 -57 30 -109 q -17 62 -17 -5 q -7 146 -17 107 q 25 215 3 184 q 84 267 50 250 q 161 284 117 284 q 265 246 226 284 q 304 144 304 208 q 280 79 304 109 q 220 50 255 50 q 182 59 199 50 q 155 88 166 68 q 174 83 165 85 q 190 82 182 82 q 225 97 214 82 q 237 144 237 113 q 220 185 237 172 q 169 199 203 199 q 125 188 145 199 q 90 153 106 176 q 67 110 74 132 q 61 62 61 87 q 98 -43 61 -7 q 210 -78 135 -78 q 385 15 304 -78 q 532 295 466 109 q 636 640 584 467 q 739 986 688 813 q 885 1265 806 1172 q 1057 1359 964 1359 q 1138 1350 1102 1359 q 1201 1322 1174 1340 q 1250 1276 1226 1305 q 1295 1208 1273 1248 m 657 203 q 646 239 657 227 q 609 251 634 251 q 573 239 586 251 q 561 203 561 227 q 573 166 561 178 q 609 154 586 154 q 646 166 634 154 q 657 203 657 178 m 595 48 q 576 93 595 75 q 532 111 557 111 q 487 93 505 111 q 469 48 469 75 q 487 5 469 23 q 532 -14 505 -14 q 576 5 557 -14 q 595 48 595 23 m 466 -83 q 454 -47 466 -59 q 418 -35 442 -35 q 380 -47 393 -35 q 368 -83 368 -59 q 380 -119 368 -107 q 418 -132 393 -132 q 454 -119 442 -132 q 466 -83 466 -107 z "},"":{"ha":779,"x_min":43,"x_max":730,"o":"m 728 614 l 727 576 q 519 506 622 529 q 316 483 416 483 q 214 493 260 483 q 132 525 168 504 q 66 589 88 550 q 44 681 44 629 q 137 846 44 773 q 413 971 229 919 q 362 1038 398 1015 q 272 1060 327 1060 q 165 1036 213 1060 q 79 964 117 1012 l 43 999 q 184 1131 100 1086 q 380 1175 269 1175 q 540 1125 471 1175 q 656 974 609 1074 q 712 804 694 894 q 728 614 730 714 m 697 279 l 419 251 l 406 317 l 365 312 l 375 244 l 332 236 l 317 302 l 277 299 l 289 228 l 244 221 l 233 292 l 186 286 l 197 213 l 145 205 l 106 439 l 694 399 l 697 279 m 623 850 q 611 886 623 873 q 574 899 599 899 q 537 886 550 899 q 525 850 525 873 q 537 813 525 825 q 574 801 550 801 q 611 813 599 801 q 623 850 623 825 m 461 663 q 455 785 461 725 q 437 905 450 846 q 322 866 374 886 q 233 822 271 845 l 302 542 q 396 548 357 542 q 459 568 435 554 q 461 616 460 593 q 461 663 461 640 m 650 666 q 632 710 650 692 q 588 728 614 728 q 544 711 562 728 q 525 666 525 693 q 544 622 525 640 q 588 604 562 604 q 632 623 614 604 q 650 666 650 641 z "},"":{"ha":779,"x_min":43,"x_max":819,"o":"m 819 893 l 734 870 q 737 843 736 857 q 739 812 739 828 q 735 764 739 787 q 725 717 732 741 l 793 686 l 758 625 l 705 663 q 638 570 679 608 q 542 511 597 532 l 561 429 l 498 413 l 486 494 q 451 488 466 489 q 425 486 435 486 q 345 497 384 486 q 270 528 306 507 l 220 450 l 166 481 l 223 563 q 175 614 196 586 q 140 673 155 642 l 56 648 l 43 705 l 121 722 q 112 770 115 747 q 109 812 109 793 q 112 853 109 833 q 119 892 114 873 l 43 916 l 59 975 l 137 941 q 179 1017 153 983 q 241 1077 205 1050 l 195 1147 l 248 1184 l 292 1108 q 356 1130 323 1122 q 425 1137 389 1137 q 491 1130 460 1137 q 552 1109 523 1123 l 588 1174 l 641 1144 l 604 1078 q 673 1012 644 1050 q 720 926 701 974 l 803 962 l 819 893 m 697 213 l 145 138 l 106 374 l 694 334 l 697 213 m 549 812 q 540 890 549 854 q 514 956 532 926 q 463 1010 492 992 q 393 1028 433 1028 q 323 1010 354 1028 q 272 956 293 992 q 246 890 254 926 q 237 812 237 854 q 246 732 237 768 q 271 666 254 696 q 323 611 292 629 q 393 593 353 593 q 464 611 433 593 q 515 666 494 629 q 540 732 531 695 q 549 812 549 768 m 608 272 q 601 294 608 286 q 578 301 593 301 q 556 294 564 301 q 549 272 549 286 q 556 250 549 257 q 578 243 564 243 q 601 250 593 243 q 608 272 608 257 m 473 264 q 461 300 473 288 q 426 312 450 312 q 391 300 403 312 q 379 264 379 288 q 391 229 379 241 q 426 218 403 218 q 461 229 450 218 q 473 264 473 241 m 309 256 q 288 305 309 284 q 239 326 267 326 q 190 305 210 326 q 170 256 170 284 q 190 207 170 228 q 239 186 210 186 q 288 207 267 186 q 309 256 309 228 z "},"":{"ha":1068,"x_min":69,"x_max":999,"o":"m 999 628 q 985 536 999 585 q 941 434 970 488 l 694 431 l 727 497 l 832 486 q 848 537 844 515 q 852 574 853 559 l 852 602 l 746 593 l 734 648 l 842 664 q 817 748 833 709 q 777 821 801 787 l 687 713 l 648 745 l 727 876 q 639 927 687 910 q 535 941 591 943 l 576 779 l 528 762 l 471 928 q 378 873 420 909 q 301 786 336 838 l 412 663 l 372 616 l 268 724 q 236 630 247 673 q 227 551 226 587 l 228 526 l 348 500 l 379 437 l 99 452 q 77 552 85 508 q 69 628 69 595 q 99 828 69 734 q 189 1000 129 921 q 340 1128 255 1085 q 528 1171 425 1171 q 718 1128 632 1171 q 872 1000 804 1086 q 967 828 936 921 q 999 628 999 734 m 426 377 l 395 336 l 121 304 l 111 398 l 391 401 l 426 377 m 928 395 l 917 309 l 682 315 l 679 388 l 928 395 m 893 176 l 776 -3 l 602 -7 l 554 433 q 548 434 553 436 q 536 433 542 433 l 460 -3 l 190 0 l 132 180 l 405 170 l 507 440 q 454 479 471 454 q 436 543 436 505 q 469 622 436 589 q 547 654 502 654 q 625 622 593 654 q 657 543 657 589 q 640 479 657 505 q 587 440 623 454 l 686 166 l 893 176 m 377 281 l 350 212 l 135 208 l 128 256 l 377 281 m 910 270 l 903 221 l 727 205 l 699 267 l 910 270 z "},"":{"ha":1331,"x_min":61,"x_max":1313,"o":"m 1313 62 q 1165 -30 1240 1 q 1016 -61 1091 -61 q 926 -48 972 -61 q 827 -9 879 -35 q 738 52 772 18 q 690 123 703 85 l 677 -71 l 580 -64 l 563 23 q 478 -18 522 -4 q 385 -31 433 -31 q 156 64 251 -31 q 61 292 61 159 q 156 523 61 427 q 385 619 250 619 q 459 610 422 619 q 533 583 496 601 l 528 669 l 748 699 l 737 545 q 853 623 793 597 q 976 649 913 649 q 1135 585 1071 649 q 1232 393 1199 521 l 806 319 q 836 220 814 267 q 892 131 857 173 q 975 60 931 83 q 1067 37 1019 37 q 1166 56 1116 37 q 1267 116 1217 76 l 1313 62 m 1038 422 q 1005 459 1020 444 q 980 479 991 473 q 945 492 966 488 q 900 497 925 497 q 817 465 856 497 q 745 370 779 433 l 1038 422 m 595 243 l 505 270 l 515 317 l 593 296 q 568 376 588 340 q 514 439 549 412 l 476 381 l 434 403 l 473 464 q 440 474 456 471 q 406 477 423 477 q 376 474 391 477 q 343 466 360 471 l 375 388 l 320 363 l 292 434 q 235 360 254 402 q 216 268 216 319 l 282 288 l 291 241 l 221 218 q 247 151 229 181 q 294 96 265 120 l 312 159 l 368 144 l 347 66 q 376 58 361 61 q 406 56 391 56 q 446 60 427 56 q 484 75 466 65 l 450 137 l 500 161 l 530 107 q 574 168 557 134 q 595 243 591 201 z "},"":{"ha":862,"x_min":52,"x_max":827,"o":"m 827 363 l 745 340 q 747 309 746 323 q 748 282 748 294 q 745 230 748 254 q 734 186 741 206 l 803 155 l 768 96 l 713 134 q 646 41 687 79 q 550 -20 606 3 l 571 -100 l 507 -116 l 495 -37 q 443 -42 468 -41 q 395 -40 418 -43 l 304 -236 l 117 -134 l 216 47 q 177 93 193 69 q 149 144 160 117 l 64 117 l 52 175 l 130 192 q 122 237 125 214 q 119 282 119 260 q 122 321 119 302 q 128 361 124 341 l 52 386 l 68 444 l 145 412 q 190 488 164 454 q 251 547 216 522 l 206 618 l 258 654 l 302 578 q 365 600 332 593 q 434 608 398 608 q 470 606 451 608 q 509 599 488 604 l 593 762 l 727 692 l 644 522 q 692 468 671 499 q 728 396 713 436 l 812 433 l 827 363 m 581 282 q 571 363 581 325 q 539 436 560 401 q 482 497 515 477 q 410 517 450 517 q 339 497 371 517 q 282 436 308 477 q 251 362 260 401 q 241 282 241 323 q 251 201 241 240 q 282 127 262 162 q 338 65 307 86 q 410 45 370 45 q 483 65 450 45 q 539 127 515 85 q 570 200 559 161 q 581 282 581 239 m 497 279 q 472 220 497 245 q 413 195 447 195 q 354 220 379 195 q 329 279 329 244 q 354 338 329 313 q 413 363 378 363 q 472 338 448 363 q 497 279 497 313 z "},"":{"ha":800,"x_min":35,"x_max":768,"o":"m 601 1074 q 565 985 601 1023 q 477 948 528 948 q 390 985 427 948 q 353 1074 353 1022 q 390 1162 353 1125 q 477 1199 426 1199 q 565 1161 529 1199 q 601 1074 601 1124 m 768 302 l 696 281 q 698 268 697 274 q 699 254 699 261 q 686 193 699 222 q 646 137 673 163 l 707 85 l 657 23 l 599 99 q 529 66 566 79 q 450 48 491 54 l 456 -30 l 391 -37 l 391 47 q 314 58 350 48 q 248 86 278 68 l 193 17 l 145 61 l 206 114 q 149 183 171 146 q 117 263 127 220 l 40 241 l 35 320 l 113 319 q 124 392 113 357 q 159 459 136 427 l 79 505 l 123 563 l 190 498 q 233 532 207 515 q 296 566 260 549 l 237 649 l 306 689 l 350 588 q 378 597 364 593 q 403 602 391 600 l 425 848 l 526 870 l 587 585 q 467 561 522 579 q 368 512 412 543 q 289 426 315 475 q 263 317 263 378 q 275 238 263 273 q 310 176 286 203 q 368 133 334 147 q 444 119 402 119 q 497 126 473 119 q 543 146 522 134 q 579 182 567 161 q 591 230 591 203 q 572 289 591 269 q 515 309 553 309 q 474 298 494 309 q 437 267 454 288 l 405 292 q 436 329 418 313 q 474 358 453 346 l 443 422 l 512 446 l 532 379 q 547 382 538 381 q 567 384 556 384 q 632 371 604 384 q 677 332 659 357 l 749 372 l 768 302 m 543 1090 q 527 1134 543 1115 q 488 1153 511 1153 q 449 1133 465 1153 q 433 1090 433 1114 q 449 1047 433 1067 q 488 1028 465 1028 q 530 1043 516 1028 q 543 1090 543 1059 z "},"":{"ha":545,"x_min":138,"x_max":406,"o":"m 403 1050 q 367 962 403 999 q 279 924 330 924 q 191 962 227 924 q 155 1050 155 999 q 191 1139 155 1102 q 279 1175 227 1175 q 366 1139 330 1175 q 403 1050 403 1102 m 406 38 l 138 -26 l 223 824 l 327 838 l 377 332 l 313 320 l 313 275 l 381 291 l 386 250 l 317 231 l 320 189 l 389 206 l 395 157 l 320 138 l 323 99 l 398 117 l 406 38 m 347 1035 q 330 1078 347 1059 q 291 1097 313 1097 q 252 1078 268 1097 q 236 1035 236 1059 q 252 991 236 1010 q 291 972 267 972 q 331 991 315 972 q 347 1035 347 1010 z "},"":{"ha":1000,"x_min":163,"x_max":862,"o":"m 862 710 l 696 288 l 609 315 l 657 477 l 176 502 l 163 737 l 862 710 m 547 641 l 260 661 l 250 588 l 536 574 l 547 641 m 748 591 q 730 636 748 618 q 686 654 711 654 q 641 636 659 654 q 623 591 623 618 q 641 548 623 566 q 686 530 659 530 q 730 548 711 530 q 748 591 748 566 z "},"":{"ha":1339,"x_min":48,"x_max":1305,"o":"m 1305 1093 l 1139 783 l 1052 817 l 1017 745 l 1097 703 l 1062 619 l 979 657 l 941 578 l 1028 543 l 983 450 l 903 488 l 876 419 l 955 381 l 755 62 l 581 193 l 439 45 l 180 277 l 260 347 l 193 419 l 121 347 l 48 419 l 231 616 l 602 253 l 1074 1177 l 1305 1093 m 393 275 q 381 310 393 298 q 347 322 370 322 q 311 310 323 322 q 299 275 299 298 q 311 240 299 252 q 347 228 323 228 q 381 240 370 228 q 393 275 393 252 m 814 256 q 793 305 814 284 q 745 326 772 326 q 695 305 715 326 q 675 256 675 284 q 695 207 675 228 q 745 186 715 186 q 793 207 772 186 q 814 256 814 228 m 483 182 q 471 216 483 205 q 436 228 460 228 q 401 216 413 228 q 389 182 389 205 q 401 146 389 158 q 436 135 413 135 q 471 146 460 135 q 483 182 483 158 z "},"":{"ha":1277,"x_min":-17,"x_max":1295,"o":"m 1295 1208 l 1229 1174 q 1167 1230 1205 1211 q 1078 1248 1130 1248 q 927 1137 989 1248 q 829 804 865 1026 l 1068 821 l 1074 746 l 819 727 q 813 685 815 704 q 810 650 811 666 l 985 670 l 979 585 l 800 559 q 798 550 798 559 q 796 525 798 541 q 749 262 781 380 q 672 50 718 143 q 512 -149 606 -83 q 299 -215 419 -215 q 174 -198 231 -215 q 75 -146 118 -182 q 6 -57 30 -109 q -17 62 -17 -5 q -7 146 -17 107 q 25 215 3 184 q 84 267 50 250 q 161 284 117 284 q 265 246 226 284 q 304 144 304 208 q 280 79 304 109 q 220 50 255 50 q 182 59 199 50 q 155 88 166 68 q 174 83 165 85 q 190 82 182 82 q 225 97 214 82 q 237 144 237 113 q 220 185 237 172 q 169 199 203 199 q 125 188 145 199 q 90 153 106 176 q 67 110 74 132 q 61 62 61 87 q 98 -43 61 -7 q 210 -78 135 -78 q 421 75 321 -78 q 609 535 522 228 l 385 504 l 368 606 l 637 634 q 647 661 642 641 q 657 715 652 681 l 466 701 l 484 781 l 679 794 q 739 1004 710 916 q 794 1145 768 1092 q 913 1305 848 1251 q 1057 1359 979 1359 q 1138 1350 1102 1359 q 1201 1322 1174 1340 q 1249 1277 1225 1305 q 1295 1208 1273 1248 m 657 203 q 646 239 657 227 q 609 251 634 251 q 573 239 586 251 q 561 203 561 227 q 573 166 561 178 q 609 154 586 154 q 646 166 634 154 q 657 203 657 178 m 595 48 q 576 93 595 75 q 532 111 557 111 q 487 93 505 111 q 469 48 469 75 q 487 5 469 23 q 532 -14 505 -14 q 576 5 557 -14 q 595 48 595 23 m 466 -83 q 454 -47 466 -59 q 418 -35 442 -35 q 380 -47 393 -35 q 368 -83 368 -59 q 380 -119 368 -107 q 418 -132 393 -132 q 454 -119 442 -132 q 466 -83 466 -107 z "},"":{"ha":748,"x_min":61,"x_max":680,"o":"m 680 770 q 670 694 680 729 q 641 631 660 660 q 588 582 618 598 q 517 566 557 566 q 464 578 488 566 q 420 615 440 591 q 403 641 416 618 q 365 705 389 664 q 336 743 350 730 q 306 755 321 755 q 258 738 279 755 q 221 689 237 722 q 208 653 217 681 q 185 576 199 625 l 61 632 q 149 787 96 735 q 272 839 202 839 q 338 829 308 839 q 392 800 368 820 q 420 772 404 790 q 454 727 435 754 q 481 696 469 706 q 504 687 494 687 q 536 703 526 687 q 547 751 547 718 q 545 781 547 765 q 538 815 543 797 l 673 836 q 678 803 677 819 q 680 770 680 787 m 350 644 q 338 607 350 619 q 301 595 326 595 q 265 607 277 595 q 253 644 253 619 q 265 680 253 667 q 301 692 277 692 q 338 680 326 692 q 350 644 350 667 m 680 499 q 670 423 680 458 q 641 360 660 389 q 588 311 618 327 q 517 294 557 294 q 391 369 450 294 q 306 444 332 444 q 258 433 279 444 q 222 399 237 422 q 204 361 213 385 q 185 304 195 337 l 61 360 q 149 516 96 464 q 272 568 202 568 q 338 557 308 568 q 392 528 368 547 q 420 500 404 519 q 454 454 435 481 q 481 425 468 435 q 504 416 494 416 q 536 431 526 416 q 547 478 547 447 q 545 509 547 492 q 538 543 543 526 l 673 564 q 678 531 677 547 q 680 499 680 515 z "},"":{"ha":1105,"x_min":0,"x_max":1070,"o":"m 1070 35 l 950 7 l 935 58 l 289 -12 l 261 -69 l 0 111 l 511 1158 l 699 1174 l 1070 35 m 909 135 l 634 1034 l 323 90 l 909 135 m 327 446 l 302 477 q 216 306 254 396 q 151 116 178 216 l 213 90 q 255 272 227 182 q 327 446 284 361 m 730 343 q 696 262 730 296 q 616 228 663 228 q 536 262 570 228 q 502 343 502 296 q 536 423 502 389 q 616 457 570 457 q 696 423 663 457 q 730 343 730 389 z "},"":{"ha":876,"x_min":113,"x_max":763,"o":"m 476 107 l 319 -31 l 282 33 l 355 81 l 330 107 l 264 68 l 246 102 l 302 140 l 282 168 l 230 132 l 210 168 l 256 199 l 233 233 l 192 203 l 113 347 l 327 661 l 405 608 l 241 340 l 476 107 m 763 107 l 606 -31 l 398 347 l 606 644 l 682 588 l 526 340 l 763 107 m 669 123 q 656 159 669 147 q 619 172 644 172 q 583 159 595 172 q 571 123 571 147 q 583 86 571 98 q 619 75 595 75 q 656 86 644 75 q 669 123 669 98 z "},"":{"ha":876,"x_min":113,"x_max":763,"o":"m 476 284 l 270 -12 l 192 41 l 348 289 l 113 522 l 270 661 l 476 284 m 763 284 l 547 -31 l 469 23 l 635 289 l 398 522 l 555 661 l 591 597 l 521 549 l 545 522 l 609 563 l 629 528 l 573 490 l 591 463 l 646 498 l 664 463 l 619 431 l 641 396 l 684 428 l 763 284 m 302 507 q 291 543 302 531 q 254 555 279 555 q 218 543 231 555 q 206 507 206 531 q 218 471 206 483 q 254 459 231 459 q 291 471 279 459 q 302 507 302 483 z "},"":{"ha":1731,"x_min":176,"x_max":1554,"o":"m 1554 99 q 1518 11 1554 47 q 1432 -26 1482 -26 q 1344 11 1381 -26 q 1308 99 1308 48 q 1344 187 1308 150 q 1432 224 1380 224 q 1519 188 1483 224 q 1554 99 1554 151 m 989 99 q 953 11 989 47 q 865 -26 916 -26 q 779 11 814 -26 q 743 99 743 48 q 779 187 743 150 q 865 224 814 224 q 953 188 917 224 q 989 99 989 151 m 425 99 q 388 11 425 47 q 299 -26 351 -26 q 213 11 250 -26 q 176 99 176 48 q 212 187 176 150 q 299 224 248 224 q 388 188 351 224 q 425 99 425 151 m 1474 116 q 1458 159 1474 140 q 1419 178 1442 178 q 1380 159 1396 178 q 1364 116 1364 140 q 1380 73 1364 92 q 1419 54 1396 54 q 1460 69 1447 54 q 1474 116 1474 85 m 910 116 q 894 159 910 140 q 855 178 878 178 q 815 159 831 178 q 800 116 800 140 q 813 69 800 85 q 855 54 827 54 q 895 73 879 54 q 910 116 910 92 m 345 116 q 328 159 345 140 q 289 178 312 178 q 249 159 265 178 q 233 116 233 140 q 247 69 233 85 q 289 54 261 54 q 329 73 313 54 q 345 116 345 92 z "},"":{"ha":346,"x_min":0,"x_max":0,"o":""},"":{"ha":1105,"x_min":0,"x_max":1070,"o":"m 1070 35 l 950 7 l 869 254 l 382 261 l 261 -69 l 0 111 l 511 1158 l 699 1174 l 1070 35 m 762 578 l 634 1034 l 459 509 l 762 578 m 829 374 l 789 492 l 425 401 l 403 347 l 829 374 m 327 446 l 302 477 q 216 306 254 396 q 151 116 178 216 l 213 90 q 255 272 227 182 q 327 446 284 361 m 683 1265 l 629 1212 l 383 1412 l 498 1537 l 683 1265 z "},"":{"ha":1105,"x_min":0,"x_max":1070,"o":"m 1070 35 l 950 7 l 869 254 l 382 261 l 261 -69 l 0 111 l 511 1158 l 699 1174 l 1070 35 m 762 578 l 634 1034 l 459 509 l 762 578 m 829 374 l 789 492 l 425 401 l 403 347 l 829 374 m 327 446 l 302 477 q 216 306 254 396 q 151 116 178 216 l 213 90 q 255 272 227 182 q 327 446 284 361 m 872 1410 q 864 1335 872 1369 q 839 1272 855 1300 q 789 1220 819 1238 q 722 1203 760 1203 q 604 1274 654 1203 q 527 1345 555 1345 q 480 1334 500 1345 q 446 1303 460 1324 q 432 1271 440 1294 q 414 1213 425 1249 l 298 1268 q 382 1424 332 1372 q 496 1476 431 1476 q 556 1468 528 1476 q 606 1444 583 1460 q 631 1422 617 1437 q 664 1386 646 1407 q 689 1363 677 1371 q 710 1355 700 1355 q 740 1365 730 1355 q 750 1397 750 1376 q 748 1421 750 1407 q 741 1451 746 1434 l 867 1472 q 871 1441 870 1457 q 872 1410 872 1425 z "},"":{"ha":1068,"x_min":69,"x_max":999,"o":"m 999 580 q 968 378 999 473 q 876 202 938 284 q 723 68 808 113 q 533 23 637 23 q 345 68 430 23 q 192 202 260 113 q 100 378 130 283 q 69 580 69 473 q 99 779 69 686 q 189 951 130 872 q 340 1080 255 1037 q 528 1123 425 1123 q 718 1080 632 1123 q 872 951 804 1037 q 967 779 935 872 q 999 580 999 686 m 852 516 q 852 534 852 525 q 852 553 852 543 l 746 545 l 734 599 l 842 616 q 817 700 833 661 q 777 772 801 739 l 687 664 l 648 696 l 727 827 q 640 878 688 861 q 535 893 593 894 l 576 730 l 528 713 l 471 879 q 378 825 420 861 q 301 737 336 789 l 412 614 l 372 568 l 268 675 q 236 577 246 625 q 227 486 226 530 l 228 460 l 348 452 l 348 393 l 233 399 q 249 332 238 366 q 277 264 260 298 l 370 348 l 408 313 l 313 213 q 377 151 342 176 q 454 114 412 127 l 469 248 l 517 241 l 514 104 l 522 104 q 605 117 564 104 q 686 159 646 130 l 608 310 l 654 337 l 734 203 q 778 260 759 231 q 810 320 797 289 l 697 418 l 727 448 l 832 386 q 847 447 842 414 q 852 516 852 479 m 812 1371 q 804 1296 812 1331 q 779 1234 795 1261 q 730 1182 759 1199 q 663 1164 701 1164 q 545 1235 594 1164 q 467 1306 495 1306 q 420 1296 440 1306 q 387 1265 400 1285 q 373 1233 380 1255 q 355 1175 365 1210 l 238 1230 q 322 1385 273 1333 q 436 1437 372 1437 q 496 1429 469 1437 q 547 1406 524 1421 q 572 1383 557 1398 q 604 1348 586 1369 q 629 1324 618 1332 q 650 1316 640 1316 q 681 1327 671 1316 q 690 1358 690 1337 q 688 1382 690 1369 q 682 1413 686 1396 l 808 1434 q 811 1402 810 1418 q 812 1371 812 1386 z "},"":{"ha":1580,"x_min":69,"x_max":1580,"o":"m 1580 1232 l 1525 1010 l 1168 1057 l 1123 732 l 1453 737 l 1435 629 l 1112 635 l 1101 561 l 1354 540 l 1341 434 l 1086 454 l 1034 54 l 1318 50 l 1359 178 l 1554 210 l 1535 -41 l 879 -30 l 886 192 q 730 52 817 98 q 538 5 643 5 q 347 52 433 5 q 192 192 260 98 q 100 372 131 275 q 69 578 69 469 q 100 785 69 687 q 192 966 130 882 q 347 1106 260 1059 q 538 1153 433 1153 q 747 1097 653 1153 q 912 931 840 1042 l 919 1187 l 1580 1232 m 917 623 q 894 767 917 700 q 823 892 871 834 q 711 985 773 954 q 573 1016 648 1016 q 435 985 498 1016 q 323 892 373 954 q 253 767 275 834 q 230 623 230 700 q 253 478 230 545 q 323 353 277 410 q 435 259 373 290 q 573 228 498 228 q 711 259 649 228 q 824 353 774 290 q 893 478 870 410 q 917 623 917 545 m 717 717 l 649 686 q 654 659 654 672 q 649 634 654 646 l 710 606 l 677 563 l 628 597 q 613 583 621 589 q 593 573 604 576 l 609 509 l 555 498 l 553 570 q 522 579 536 572 q 497 599 508 587 l 457 555 l 412 599 l 477 641 q 475 650 476 646 q 474 657 474 654 q 476 673 474 664 q 481 692 477 682 l 416 720 l 434 766 l 504 724 q 522 736 512 731 q 542 745 531 742 l 535 814 l 590 817 l 587 745 q 610 734 599 741 q 629 718 621 728 l 687 760 l 717 717 z "},"":{"ha":1359,"x_min":52,"x_max":1341,"o":"m 1341 -23 l 1291 -64 l 1251 -5 q 1197 -32 1227 -20 q 1132 -50 1167 -43 l 1147 -134 l 1086 -140 l 1074 -61 q 1033 -63 1051 -62 q 999 -64 1014 -64 q 986 -63 994 -64 q 966 -61 978 -62 l 950 -134 l 890 -111 l 912 -50 q 857 -31 885 -43 q 801 -1 829 -18 l 753 -71 l 705 -37 l 756 30 q 729 57 741 44 q 708 81 717 69 q 654 34 684 54 q 590 -1 625 13 l 618 -58 l 553 -86 l 526 -21 q 496 -25 511 -24 q 464 -26 480 -26 q 394 -19 429 -26 q 326 3 359 -12 l 291 -86 l 223 -64 l 270 37 q 212 91 237 61 q 166 157 186 121 l 90 123 l 62 182 l 142 216 q 131 270 134 241 q 127 327 127 298 q 129 366 127 347 q 134 399 130 384 l 52 425 l 73 502 l 155 473 q 205 556 176 519 q 274 619 235 593 l 231 684 l 291 720 l 327 650 q 402 672 359 665 q 498 679 446 680 l 521 751 l 585 741 l 559 666 q 647 625 608 652 q 718 561 687 599 q 746 588 730 574 q 781 616 762 602 l 732 687 l 783 727 l 834 648 q 888 667 861 660 q 943 675 916 673 l 954 748 l 1009 737 l 999 675 q 1065 655 1034 669 q 1120 619 1095 642 l 1196 680 l 1230 623 l 1163 574 q 1195 523 1181 551 q 1215 463 1208 495 l 1288 483 l 1299 422 l 1223 410 q 1225 400 1225 405 q 1225 389 1225 395 q 1225 379 1225 385 q 1223 368 1225 374 l 864 319 q 920 93 865 168 q 1083 18 975 18 q 1190 42 1140 18 q 1281 114 1239 66 l 1331 61 q 1318 46 1326 55 q 1295 26 1309 38 l 1341 -23 m 1062 448 q 1040 505 1051 481 q 1017 541 1029 528 q 978 569 1002 559 q 924 578 955 578 q 843 535 879 578 q 783 406 808 492 l 1062 448 m 606 330 q 595 412 606 374 q 564 488 585 451 q 509 550 541 529 q 436 571 477 571 q 366 550 397 571 q 309 487 334 529 q 278 412 288 451 q 268 330 268 373 q 278 250 268 288 q 309 175 289 211 q 366 111 334 132 q 436 90 397 90 q 509 111 477 90 q 566 174 541 132 q 596 249 586 210 q 606 330 606 288 z "},"":{"ha":890,"x_min":106,"x_max":784,"o":"m 784 185 l 106 268 l 124 405 l 730 476 l 784 185 m 471 334 q 459 370 471 358 q 422 382 447 382 q 386 370 398 382 q 374 334 374 358 q 386 297 374 309 q 422 286 398 286 q 459 297 447 286 q 471 334 471 309 m 670 330 q 651 375 670 357 q 608 393 633 393 q 563 375 581 393 q 545 330 545 357 q 563 287 545 305 q 608 268 581 268 q 651 287 633 268 q 670 330 670 305 z "},"":{"ha":1840,"x_min":106,"x_max":1734,"o":"m 1734 218 l 106 268 l 145 374 l 1675 498 l 1734 218 m 1589 386 l 1570 450 q 1403 367 1490 402 q 1222 309 1316 331 l 1213 272 q 1396 312 1302 284 q 1589 386 1490 340 z "},"":{"ha":766,"x_min":107,"x_max":659,"o":"m 659 880 q 626 807 659 838 q 549 777 593 777 q 469 808 499 777 q 439 888 439 839 q 474 998 439 935 q 576 1141 508 1061 l 626 1108 q 592 1057 612 1088 q 549 983 573 1025 q 626 953 593 983 q 659 880 659 924 m 405 867 l 385 821 l 336 844 q 314 818 326 828 q 284 803 301 808 l 296 763 l 239 755 l 237 796 q 201 807 217 799 q 175 829 186 814 l 132 801 l 107 848 l 155 869 q 153 899 153 882 q 155 937 153 916 l 111 947 l 119 999 l 166 983 q 184 1028 173 1004 q 213 1080 196 1052 l 173 1118 l 208 1158 l 241 1118 q 255 1131 244 1122 q 282 1156 265 1141 l 319 1123 q 272 1064 288 1098 q 256 989 256 1031 q 282 986 269 989 q 312 975 296 982 l 347 1019 l 385 983 l 337 948 q 350 920 346 937 q 353 880 353 903 l 405 867 m 614 876 q 602 913 614 901 q 564 926 590 926 q 527 913 539 926 q 514 876 514 901 q 527 838 514 850 q 564 825 539 825 q 602 838 590 825 q 614 876 614 850 z "},"":{"ha":766,"x_min":107,"x_max":659,"o":"m 659 1074 l 611 1052 q 614 1023 614 1040 q 611 985 614 1006 l 656 975 l 648 923 l 601 938 q 582 892 594 917 q 553 841 570 868 l 593 803 l 559 763 l 526 803 q 512 789 523 799 q 484 765 502 780 l 448 798 q 495 857 479 823 q 511 931 511 890 q 485 935 498 931 q 456 947 471 939 l 421 902 l 382 938 l 429 972 q 417 1002 422 985 q 413 1040 413 1019 l 361 1054 l 382 1101 l 431 1077 q 453 1102 440 1092 q 483 1118 467 1113 l 471 1158 l 528 1166 l 530 1125 q 565 1114 550 1122 q 591 1092 581 1105 l 635 1120 l 659 1074 m 327 1033 q 293 922 327 985 q 190 781 258 859 l 140 814 q 174 865 155 833 q 218 938 193 896 q 141 967 175 938 q 107 1040 107 997 q 141 1114 107 1084 q 218 1144 174 1144 q 297 1113 267 1144 q 327 1033 327 1082 m 253 1045 q 240 1083 253 1070 q 203 1095 228 1095 q 165 1083 178 1095 q 152 1045 152 1070 q 165 1008 152 1020 q 203 996 178 996 q 240 1008 228 996 q 253 1045 253 1020 z "},"":{"ha":459,"x_min":86,"x_max":385,"o":"m 385 867 l 363 821 l 315 844 q 293 818 306 828 q 263 803 279 808 l 275 763 l 218 755 l 216 796 q 180 807 196 799 q 154 829 165 814 l 111 801 l 86 848 l 135 869 q 133 899 133 882 q 135 937 133 916 l 90 947 l 99 999 l 145 983 q 164 1028 152 1004 q 192 1080 176 1052 l 152 1118 l 186 1158 l 220 1118 q 234 1131 223 1122 q 261 1156 244 1141 l 298 1123 q 252 1064 267 1098 q 236 989 236 1031 q 261 986 248 989 q 291 975 275 982 l 326 1019 l 363 983 l 317 948 q 329 920 325 937 q 332 880 332 903 l 385 867 z "},"":{"ha":459,"x_min":107,"x_max":351,"o":"m 351 1021 q 313 900 351 969 q 199 745 275 831 l 144 781 q 196 858 175 823 q 230 917 218 892 q 144 950 182 917 q 107 1031 107 983 q 144 1113 107 1080 q 230 1146 182 1146 q 318 1111 285 1146 q 351 1021 351 1076 m 268 1037 q 254 1078 268 1064 q 213 1092 241 1092 q 171 1078 185 1092 q 157 1037 157 1064 q 171 995 157 1009 q 213 981 185 981 q 254 995 241 981 q 268 1037 268 1009 z "},"":{"ha":682,"x_min":15,"x_max":618,"o":"m 403 680 q 379 623 403 646 q 322 599 356 599 q 264 623 288 599 q 241 680 241 646 q 264 738 241 714 q 322 762 288 762 q 379 738 356 762 q 403 680 403 714 m 618 416 l 15 416 l 24 553 l 604 486 l 618 416 m 454 221 q 414 126 454 165 q 319 86 374 86 q 223 126 263 86 q 183 221 183 165 q 223 317 183 277 q 319 357 263 357 q 414 317 374 357 q 454 221 454 277 m 355 446 l 355 473 l 85 511 l 68 460 l 355 446 m 350 201 q 333 243 350 226 q 291 260 315 260 q 249 243 267 260 q 231 201 231 226 q 249 159 231 176 q 291 142 267 142 q 333 159 315 142 q 350 201 350 176 z "},"":{"ha":873,"x_min":31,"x_max":810,"o":"m 810 626 l 498 -17 l 363 10 l 401 83 l 31 515 l 385 1080 l 353 1160 l 457 1191 l 810 626 m 609 710 l 498 838 l 236 454 l 381 291 l 609 710 z "},"":{"ha":824,"x_min":43,"x_max":737,"o":"m 737 217 q 640 -306 737 -132 q 348 -481 543 -481 q 181 -456 258 -481 q 43 -382 105 -432 l 75 -323 q 177 -380 120 -361 q 301 -399 233 -399 q 348 -396 326 -399 q 393 -388 371 -394 q 371 -390 382 -389 q 350 -391 361 -391 q 252 -374 298 -391 q 165 -326 206 -358 q 99 -249 121 -291 q 75 -155 77 -206 q 127 -221 102 -193 q 176 -263 153 -248 q 240 -293 205 -283 q 317 -302 275 -302 q 493 -175 431 -302 q 566 206 555 -48 q 525 146 546 172 q 483 104 505 121 l 507 43 l 466 8 l 439 78 q 394 64 418 68 q 343 64 370 61 l 323 -12 l 261 3 l 291 75 q 235 104 260 85 q 189 154 209 124 l 130 109 l 85 157 l 165 203 q 147 256 154 228 q 137 315 140 284 l 71 291 l 50 345 l 132 368 q 130 383 131 375 q 130 399 130 391 q 131 428 130 409 q 135 474 133 446 l 43 474 l 50 538 l 140 525 l 147 580 l 261 588 q 240 483 247 532 q 233 392 233 434 q 241 309 233 347 q 267 241 250 271 q 319 185 288 203 q 393 166 351 166 q 514 219 474 166 q 554 379 554 273 q 549 457 554 416 q 532 543 543 498 l 715 585 q 731 392 726 484 q 737 217 737 300 m 711 787 q 682 719 711 748 q 613 690 653 690 q 542 719 572 690 q 513 787 513 747 q 542 857 513 828 q 613 886 572 886 q 682 857 653 886 q 711 787 711 828 m 338 787 q 308 719 338 747 q 237 690 278 690 q 168 719 197 690 q 138 787 138 748 q 168 857 138 828 q 237 886 197 886 q 308 857 278 886 q 338 787 338 828 z "},"":{"ha":975,"x_min":23,"x_max":1023,"o":"m 113 979 q 101 946 113 957 q 68 935 90 935 q 34 946 45 935 q 23 979 23 957 q 34 1013 23 1002 q 68 1024 45 1024 q 101 1013 90 1024 q 113 979 113 1002 m 183 846 q 172 812 183 823 q 138 801 161 801 q 105 812 117 801 q 94 846 94 823 q 105 880 94 869 q 138 892 117 892 q 172 880 161 892 q 183 846 183 869 m 263 707 q 252 672 263 684 q 218 661 241 661 q 184 672 196 661 q 173 707 173 684 q 184 740 173 728 q 218 751 196 751 q 252 740 241 751 q 263 707 263 728 m 1023 1201 q 904 1155 957 1192 q 812 1052 852 1118 q 879 1080 848 1071 q 931 1089 909 1089 q 957 1087 942 1089 q 992 1083 972 1086 l 975 1028 l 962 1028 q 772 940 857 1028 q 622 673 687 852 q 593 589 603 620 q 583 550 584 557 q 577 414 583 550 q 557 5 570 277 l 441 -20 l 403 597 l 113 1090 l 351 1182 l 542 687 q 629 904 589 814 q 703 1046 669 994 q 844 1197 767 1147 q 1009 1248 920 1248 l 1023 1201 m 347 568 q 335 534 347 545 q 301 522 323 522 q 268 534 279 522 q 256 568 256 545 q 268 601 256 590 q 301 612 279 612 q 335 601 323 612 q 347 568 347 590 m 798 1335 q 768 1267 798 1296 q 699 1238 739 1238 q 628 1266 658 1238 q 599 1335 599 1295 q 628 1405 599 1376 q 699 1434 658 1434 q 768 1405 739 1434 q 798 1335 798 1376 m 424 1335 q 394 1266 424 1295 q 323 1238 364 1238 q 254 1267 283 1238 q 224 1335 224 1296 q 254 1405 224 1376 q 323 1434 283 1434 q 394 1405 364 1434 q 424 1335 424 1376 z "},"":{"ha":254,"x_min":-288,"x_max":484,"o":"m 484 1201 l -81 -147 l -288 54 l 334 1222 l 484 1201 m 144 511 q 130 552 144 538 q 88 566 116 566 q 47 552 61 566 q 33 511 33 538 q 50 473 33 488 q 88 457 66 457 q 127 473 110 457 q 144 511 144 488 m 61 317 q 39 368 61 347 q -12 389 18 389 q -63 368 -41 389 q -85 317 -85 347 q -63 266 -85 288 q -12 244 -41 244 q 39 266 18 244 q 61 317 61 288 m -38 79 q -64 140 -38 114 q -124 166 -90 166 q -186 140 -160 166 q -212 79 -212 114 q -186 20 -212 45 q -124 -5 -160 -5 q -64 20 -90 -5 q -38 79 -38 45 z "},"":{"ha":964,"x_min":5,"x_max":967,"o":"m 967 388 l 905 388 q 880 270 905 325 l 953 237 l 931 192 l 859 224 q 756 119 819 160 l 791 37 l 736 5 l 699 90 q 574 64 635 64 q 529 68 551 64 l 510 -30 l 450 -14 l 474 75 q 365 111 416 87 l 318 33 l 269 71 l 311 142 q 203 251 252 182 l 122 208 l 94 254 l 175 301 q 132 430 145 361 l 5 425 l 14 564 l 123 560 q 136 686 130 647 l 18 699 l 10 770 l 159 770 q 173 808 164 785 l 90 864 l 127 917 l 200 865 q 282 979 239 931 l 221 1062 l 266 1097 l 325 1023 q 460 1108 393 1082 l 441 1189 l 505 1201 l 515 1125 q 606 1135 562 1135 q 697 1122 652 1135 l 716 1201 l 770 1187 l 743 1099 q 838 1002 799 1064 l 898 1044 l 932 989 l 865 950 q 895 872 887 899 l 831 846 q 583 1004 736 1004 q 359 890 448 1004 q 296 777 315 836 l 294 770 l 612 770 l 604 631 l 277 669 q 276 648 276 656 q 284 555 276 599 l 593 544 l 602 446 l 327 437 q 453 318 375 355 q 583 291 511 291 q 744 349 680 291 q 808 504 808 407 l 869 528 q 900 437 890 490 l 967 437 l 967 388 m 559 725 l 407 724 l 407 699 l 542 674 l 559 725 m 145 494 q 96 545 145 545 q 45 494 45 545 q 96 446 45 446 q 145 494 145 446 z "},"":{"ha":588,"x_min":113,"x_max":476,"o":"m 476 107 l 319 -31 l 282 33 l 355 81 l 330 107 l 264 68 l 246 102 l 302 140 l 282 168 l 230 132 l 210 168 l 256 199 l 233 233 l 192 203 l 113 347 l 327 661 l 405 608 l 241 340 l 476 107 z "},"":{"ha":588,"x_min":113,"x_max":476,"o":"m 476 284 l 261 -31 l 183 23 l 348 289 l 113 522 l 270 661 l 306 597 l 233 549 l 258 522 l 323 563 l 343 528 l 286 490 l 306 463 l 358 498 l 379 463 l 332 431 l 355 396 l 396 428 l 476 284 z "},"":{"ha":806,"x_min":0,"x_max":737,"o":"m 737 -78 l 452 -41 l 528 504 l 292 486 l 244 -117 l 0 -152 l 37 35 l 193 50 l 205 479 l 83 471 l 62 540 l 206 555 l 210 616 l 92 606 l 85 672 l 210 692 q 224 881 213 801 q 255 1009 235 961 q 351 1129 289 1089 q 504 1170 413 1170 q 587 1155 546 1170 q 670 1112 629 1140 l 595 969 q 558 985 574 979 q 532 990 542 990 q 454 964 490 990 q 386 886 418 938 q 348 806 364 851 q 320 710 332 762 l 669 751 l 737 -78 m 549 648 l 306 626 q 303 607 305 622 q 299 566 302 591 l 542 591 l 549 648 m 656 272 q 644 308 656 296 q 608 320 632 320 q 572 308 584 320 q 559 272 559 296 q 572 235 559 248 q 608 223 584 223 q 644 235 632 223 q 656 272 656 248 m 657 88 q 639 132 657 114 q 595 151 621 151 q 550 133 569 151 q 532 88 532 115 q 550 44 532 62 q 595 26 569 26 q 639 44 621 26 q 657 88 657 62 z "},"":{"ha":935,"x_min":0,"x_max":900,"o":"m 900 1068 q 888 1031 900 1044 q 852 1019 876 1019 q 815 1031 827 1019 q 803 1068 803 1044 q 815 1104 803 1092 q 852 1116 827 1116 q 888 1104 876 1116 q 900 1068 900 1092 m 890 910 q 878 874 890 886 q 841 862 865 862 q 805 874 817 862 q 793 910 793 886 q 805 947 793 935 q 841 959 817 959 q 878 947 865 959 q 890 910 890 935 m 869 743 q 857 706 869 718 q 821 694 845 694 q 784 706 796 694 q 772 743 772 718 q 784 779 772 766 q 821 791 796 791 q 857 779 845 791 q 869 743 869 766 m 770 1153 l 654 1 l 543 -17 l 504 800 l 578 803 l 581 859 l 502 859 l 497 931 l 585 933 l 588 983 l 494 981 q 388 889 431 957 q 320 710 345 821 l 439 724 l 439 641 l 306 626 q 304 607 306 622 q 299 566 302 593 l 403 580 l 396 492 l 292 486 l 244 -117 l 0 -152 l 37 35 l 193 50 l 205 479 l 83 471 l 62 540 l 206 555 l 210 616 l 92 606 l 85 672 l 210 692 q 219 847 212 782 q 237 954 225 912 q 295 1076 257 1027 q 389 1148 333 1125 q 439 1164 415 1159 q 483 1170 463 1170 q 554 1165 483 1170 q 770 1153 626 1161 z "},"":{"ha":1093,"x_min":5,"x_max":1069,"o":"m 1063 31 l 1062 14 l 1017 -1 q 961 111 1015 73 q 800 149 906 149 q 719 145 766 149 q 611 134 672 141 l 588 -99 q 651 -143 631 -114 q 672 -216 672 -172 q 635 -304 672 -268 q 547 -340 598 -340 q 459 -304 495 -340 q 422 -216 422 -268 q 443 -143 422 -172 q 504 -99 463 -114 q 498 5 502 -48 q 486 116 494 59 q 364 102 418 106 q 271 97 310 97 q 186 103 224 97 q 119 121 148 109 l 135 228 q 225 217 181 220 q 311 213 269 213 q 391 216 351 213 q 473 227 432 220 q 446 339 460 292 q 416 413 432 386 q 436 495 427 444 q 456 621 446 547 q 387 616 419 618 q 325 615 354 615 q 194 624 250 615 q 102 652 138 633 q 28 723 52 677 q 5 834 5 768 l 5 852 l 50 867 q 107 753 54 791 q 267 715 161 715 q 354 720 303 715 q 469 734 404 724 q 477 814 473 766 q 488 928 481 863 q 426 972 447 942 q 405 1045 405 1002 q 441 1133 405 1097 q 530 1170 478 1170 q 617 1133 581 1170 q 654 1045 654 1097 q 634 971 654 1000 q 573 928 614 942 q 578 836 576 880 q 585 749 581 791 q 707 764 654 759 q 799 768 760 768 q 883 762 845 768 q 948 745 920 756 l 933 637 q 845 649 888 645 q 759 652 801 652 q 679 649 719 652 q 599 639 640 646 q 627 503 612 559 q 661 416 642 447 q 644 345 652 387 q 626 244 635 302 q 683 247 656 246 q 735 248 711 248 q 868 239 811 248 q 961 213 925 231 q 1041 142 1013 188 q 1063 31 1069 96 m 591 399 l 519 473 l 494 393 l 549 326 l 591 399 z "},"":{"ha":459,"x_min":106,"x_max":353,"o":"m 353 578 q 317 489 353 526 q 230 452 281 452 q 142 489 178 452 q 106 578 106 526 q 142 666 106 629 q 230 703 178 703 q 317 666 281 703 q 353 578 353 629 m 274 593 q 257 636 274 617 q 218 656 241 656 q 179 636 195 656 q 163 593 163 617 q 179 551 163 570 q 218 532 195 532 q 258 551 241 532 q 274 593 274 570 z "},"":{"ha":459,"x_min":107,"x_max":351,"o":"m 351 104 q 313 -17 351 52 q 199 -173 275 -86 l 144 -137 q 196 -61 175 -95 q 230 0 218 -26 q 144 33 182 0 q 107 114 107 66 q 144 195 107 162 q 230 228 182 228 q 318 193 285 228 q 351 104 351 159 m 268 119 q 254 161 268 147 q 213 175 241 175 q 171 161 185 175 q 157 119 157 147 q 171 78 157 92 q 213 64 185 64 q 254 78 241 64 q 268 119 268 92 z "},"":{"ha":766,"x_min":113,"x_max":654,"o":"m 654 152 l 606 134 q 608 101 608 118 q 606 64 608 83 l 650 54 l 642 1 l 595 20 q 577 -27 589 -3 q 549 -79 566 -52 l 588 -117 l 553 -157 l 521 -116 q 504 -133 514 -123 q 479 -155 494 -143 l 441 -123 q 489 -64 473 -97 q 504 7 504 -32 l 504 12 q 476 15 489 12 q 452 26 463 18 l 413 -20 l 375 20 l 425 54 q 413 81 416 64 q 410 119 409 97 l 357 134 l 375 182 l 425 155 q 447 181 433 170 q 476 199 460 192 l 466 237 l 522 246 l 525 205 q 559 195 544 203 q 587 172 574 186 l 629 199 l 654 152 m 317 113 q 306 50 317 83 q 271 -23 294 16 q 230 -84 252 -56 q 182 -137 207 -113 l 127 -100 q 173 -40 154 -71 q 205 24 193 -8 q 136 46 159 24 q 113 113 113 68 q 139 188 113 162 q 220 213 166 213 q 293 188 269 213 q 317 113 317 162 m 246 127 q 233 163 246 151 q 195 175 220 175 q 158 163 171 175 q 145 127 145 151 q 158 89 145 102 q 195 76 171 76 q 233 89 220 76 q 246 127 246 102 z "},"":{"ha":1978,"x_min":69,"x_max":1900,"o":"m 602 905 q 525 709 602 792 q 336 626 448 626 q 146 709 223 626 q 69 905 69 792 q 146 1101 69 1019 q 336 1184 223 1184 q 525 1101 448 1184 q 602 905 602 1019 m 1034 1146 l 467 -81 l 231 52 l 304 175 l 385 127 l 412 180 l 336 227 l 372 291 l 443 248 l 471 292 l 401 340 l 439 406 l 502 365 l 530 410 l 467 454 l 907 1204 l 1034 1146 m 1900 237 l 1843 237 q 1822 172 1834 200 q 1793 124 1809 144 l 1836 99 l 1810 52 l 1762 92 q 1703 57 1734 69 q 1635 41 1671 44 l 1638 -35 l 1587 -37 l 1584 43 q 1536 57 1559 47 q 1490 83 1513 66 l 1436 24 l 1397 64 l 1452 117 q 1421 166 1434 140 q 1402 223 1409 192 l 1328 224 l 1338 275 l 1400 270 q 1413 343 1400 309 q 1452 410 1426 378 l 1411 443 l 1447 483 l 1487 443 q 1543 476 1512 464 q 1611 492 1574 488 l 1622 563 l 1677 549 l 1666 486 q 1712 475 1687 486 q 1765 441 1737 463 l 1807 494 l 1861 459 l 1802 399 q 1830 349 1820 376 q 1843 289 1841 321 l 1893 289 l 1900 237 m 1326 339 l 1258 323 q 1266 289 1263 307 q 1268 253 1268 271 q 1264 205 1268 229 q 1251 157 1260 182 l 1305 138 l 1283 81 l 1227 113 q 1177 56 1206 79 q 1109 17 1147 32 l 1125 -62 l 1061 -66 l 1050 1 q 982 6 1013 1 q 931 20 952 10 l 907 -52 l 836 -33 l 879 48 q 831 94 852 68 q 798 152 811 119 l 743 134 l 720 189 l 781 208 q 778 227 779 216 q 777 253 777 237 q 781 299 777 276 q 793 343 785 322 l 739 357 l 749 413 l 815 389 q 867 446 838 422 q 931 484 896 470 l 902 564 l 954 585 l 988 500 q 1007 503 999 502 q 1023 504 1016 504 q 1061 500 1042 504 q 1099 490 1080 497 l 1135 571 l 1192 543 l 1151 467 q 1200 427 1178 450 q 1240 372 1223 403 l 1319 396 l 1326 339 m 481 916 q 475 963 481 940 q 457 1007 469 985 l 412 955 l 370 986 l 419 1048 q 372 1074 396 1065 q 322 1083 347 1083 q 305 1082 315 1083 q 281 1077 294 1080 l 312 979 l 267 962 l 231 1055 q 177 994 195 1029 q 159 916 159 959 q 161 893 159 906 q 166 865 163 880 l 248 902 l 274 862 l 193 814 q 248 765 217 782 q 317 748 279 749 l 309 819 l 355 827 l 370 756 q 421 784 399 766 q 457 827 444 802 l 398 865 l 422 905 l 477 879 q 480 893 479 884 q 481 916 481 903 m 1189 268 q 1149 373 1189 328 q 1050 418 1109 418 q 997 406 1022 418 q 952 371 972 394 q 923 323 933 349 q 913 268 913 298 q 924 213 913 238 q 952 168 934 189 q 997 134 972 144 q 1050 123 1022 123 q 1149 166 1109 123 q 1189 268 1189 210 m 1717 265 q 1683 354 1717 316 q 1597 392 1648 392 q 1505 351 1542 392 q 1468 254 1468 310 q 1502 165 1468 203 q 1588 127 1536 127 q 1679 170 1642 127 q 1717 265 1717 212 z "},"":{"ha":1105,"x_min":0,"x_max":1070,"o":"m 1070 35 l 950 7 l 869 254 l 382 261 l 261 -69 l 0 111 l 511 1158 l 699 1174 l 1070 35 m 762 578 l 634 1034 l 459 509 l 762 578 m 829 374 l 789 492 l 425 401 l 403 347 l 829 374 m 327 446 l 302 477 q 216 306 254 396 q 151 116 178 216 l 213 90 q 255 272 227 182 q 327 446 284 361 m 863 1277 l 798 1211 l 593 1373 l 445 1204 l 325 1285 l 585 1479 l 863 1277 z "},"":{"ha":842,"x_min":96,"x_max":825,"o":"m 591 917 l 571 737 l 413 776 l 466 886 l 591 917 m 825 872 l 717 841 q 686 960 711 913 q 614 1030 661 1007 q 533 1053 589 1042 q 391 1070 477 1063 l 339 623 l 686 641 l 599 446 l 322 505 l 261 52 l 515 48 l 604 178 l 746 186 l 749 -30 l 96 7 l 134 715 l 224 710 l 239 768 l 135 770 l 140 852 l 239 844 l 250 917 l 144 917 l 147 997 l 246 989 l 260 1052 l 151 1057 l 157 1181 q 292 1170 224 1175 q 428 1161 360 1165 q 572 1134 509 1152 q 680 1088 635 1116 q 775 999 739 1053 q 825 872 811 945 m 716 1284 l 651 1218 l 446 1380 l 298 1211 l 178 1292 l 438 1486 l 716 1284 z "},"":{"ha":1105,"x_min":0,"x_max":1070,"o":"m 1070 35 l 950 7 l 869 254 l 382 261 l 261 -69 l 0 111 l 511 1158 l 699 1174 l 1070 35 m 762 578 l 634 1034 l 459 509 l 762 578 m 829 374 l 789 492 l 425 401 l 403 347 l 829 374 m 327 446 l 302 477 q 216 306 254 396 q 151 116 178 216 l 213 90 q 255 272 227 182 q 327 446 284 361 m 833 1410 l 587 1209 l 533 1263 l 719 1535 l 833 1410 z "},"":{"ha":842,"x_min":96,"x_max":825,"o":"m 591 917 l 571 737 l 413 776 l 466 886 l 591 917 m 825 872 l 717 841 q 686 960 711 913 q 614 1030 661 1007 q 533 1053 589 1042 q 391 1070 477 1063 l 339 623 l 686 641 l 599 446 l 322 505 l 261 52 l 515 48 l 604 178 l 746 186 l 749 -30 l 96 7 l 134 715 l 224 710 l 239 768 l 135 770 l 140 852 l 239 844 l 250 917 l 144 917 l 147 997 l 246 989 l 260 1052 l 151 1057 l 157 1181 q 292 1170 224 1175 q 428 1161 360 1165 q 572 1134 509 1152 q 680 1088 635 1116 q 775 999 739 1053 q 825 872 811 945 m 755 1309 q 726 1240 755 1270 q 657 1211 697 1211 q 586 1240 616 1211 q 557 1309 557 1269 q 586 1379 557 1350 q 657 1408 616 1408 q 726 1379 697 1408 q 755 1309 755 1350 m 382 1309 q 352 1240 382 1269 q 281 1211 322 1211 q 212 1240 241 1211 q 182 1309 182 1270 q 212 1379 182 1350 q 281 1408 241 1408 q 352 1379 322 1408 q 382 1309 382 1350 z "},"":{"ha":842,"x_min":96,"x_max":825,"o":"m 591 917 l 571 737 l 413 776 l 466 886 l 591 917 m 825 872 l 717 841 q 686 960 711 913 q 614 1030 661 1007 q 533 1053 589 1042 q 391 1070 477 1063 l 339 623 l 686 641 l 599 446 l 322 505 l 261 52 l 515 48 l 604 178 l 746 186 l 749 -30 l 96 7 l 134 715 l 224 710 l 239 768 l 135 770 l 140 852 l 239 844 l 250 917 l 144 917 l 147 997 l 246 989 l 260 1052 l 151 1057 l 157 1181 q 292 1170 224 1175 q 428 1161 360 1165 q 572 1134 509 1152 q 680 1088 635 1116 q 775 999 739 1053 q 825 872 811 945 m 537 1267 l 484 1215 l 237 1415 l 353 1539 l 537 1267 z "},"":{"ha":456,"x_min":104,"x_max":595,"o":"m 456 1086 q 377 778 409 909 q 330 564 346 648 q 293 297 306 432 q 277 26 279 162 l 116 8 q 107 147 110 76 q 104 293 104 218 q 123 692 104 481 q 180 1133 142 902 l 456 1086 m 350 938 l 326 969 q 240 803 278 893 q 172 608 201 712 l 233 581 q 279 765 250 675 q 350 938 308 854 m 595 1377 l 350 1176 l 296 1230 l 481 1501 l 595 1377 z "},"":{"ha":456,"x_min":85,"x_max":623,"o":"m 456 1086 q 377 778 409 909 q 330 564 346 648 q 293 297 306 432 q 277 26 279 162 l 116 8 q 107 147 110 76 q 104 293 104 218 q 123 692 104 481 q 180 1133 142 902 l 456 1086 m 350 938 l 326 969 q 240 803 278 893 q 172 608 201 712 l 233 581 q 279 765 250 675 q 350 938 308 854 m 623 1257 l 558 1192 l 353 1354 l 205 1185 l 85 1265 l 345 1459 l 623 1257 z "},"":{"ha":456,"x_min":84,"x_max":657,"o":"m 456 1086 q 377 778 409 909 q 330 564 346 648 q 293 297 306 432 q 277 26 279 162 l 116 8 q 107 147 110 76 q 104 293 104 218 q 123 692 104 481 q 180 1133 142 902 l 456 1086 m 350 938 l 326 969 q 240 803 278 893 q 172 608 201 712 l 233 581 q 279 765 250 675 q 350 938 308 854 m 657 1289 q 628 1220 657 1249 q 559 1191 599 1191 q 488 1220 517 1191 q 458 1289 458 1249 q 488 1358 458 1329 q 559 1388 517 1388 q 628 1358 599 1388 q 657 1289 657 1329 m 283 1289 q 254 1220 283 1249 q 183 1191 224 1191 q 114 1220 143 1191 q 84 1289 84 1249 q 114 1358 84 1329 q 183 1388 143 1388 q 254 1358 224 1388 q 283 1289 283 1329 z "},"":{"ha":456,"x_min":104,"x_max":456,"o":"m 456 1086 q 377 778 409 909 q 330 564 346 648 q 293 297 306 432 q 277 26 279 162 l 116 8 q 107 147 110 76 q 104 293 104 218 q 123 692 104 481 q 180 1133 142 902 l 456 1086 m 350 938 l 326 969 q 240 803 278 893 q 172 608 201 712 l 233 581 q 279 765 250 675 q 350 938 308 854 m 410 1242 l 357 1190 l 111 1390 l 226 1514 l 410 1242 z "},"":{"ha":1068,"x_min":69,"x_max":999,"o":"m 754 1373 l 509 1172 l 454 1225 l 640 1497 l 754 1373 m 999 580 q 968 378 999 473 q 876 202 938 284 q 723 68 808 113 q 533 23 637 23 q 345 68 430 23 q 192 202 260 113 q 100 378 130 283 q 69 580 69 473 q 99 779 69 686 q 189 951 130 872 q 340 1080 255 1037 q 528 1123 425 1123 q 718 1080 632 1123 q 872 951 804 1037 q 967 779 935 872 q 999 580 999 686 m 852 516 q 852 534 852 525 q 852 553 852 543 l 746 545 l 734 599 l 842 616 q 817 700 833 661 q 777 772 801 739 l 687 664 l 648 696 l 727 827 q 640 878 688 861 q 535 893 593 894 l 576 730 l 528 713 l 471 879 q 378 825 420 861 q 301 737 336 789 l 412 614 l 372 568 l 268 675 q 236 577 246 625 q 227 486 226 530 l 228 460 l 348 452 l 348 393 l 233 399 q 249 332 238 366 q 277 264 260 298 l 370 348 l 408 313 l 313 213 q 377 151 342 176 q 454 114 412 127 l 469 248 l 517 241 l 514 104 l 522 104 q 605 117 564 104 q 686 159 646 130 l 608 310 l 654 337 l 734 203 q 778 260 759 231 q 810 320 797 289 l 697 418 l 727 448 l 832 386 q 847 447 842 414 q 852 516 852 479 z "},"":{"ha":1068,"x_min":69,"x_max":999,"o":"m 999 580 q 968 378 999 473 q 876 202 938 284 q 723 68 808 113 q 533 23 637 23 q 345 68 430 23 q 192 202 260 113 q 100 378 130 283 q 69 580 69 473 q 99 779 69 686 q 189 951 130 872 q 340 1080 255 1037 q 528 1123 425 1123 q 718 1080 632 1123 q 872 951 804 1037 q 967 779 935 872 q 999 580 999 686 m 852 516 q 852 534 852 525 q 852 553 852 543 l 746 545 l 734 599 l 842 616 q 817 700 833 661 q 777 772 801 739 l 687 664 l 648 696 l 727 827 q 640 878 688 861 q 535 893 593 894 l 576 730 l 528 713 l 471 879 q 378 825 420 861 q 301 737 336 789 l 412 614 l 372 568 l 268 675 q 236 577 246 625 q 227 486 226 530 l 228 460 l 348 452 l 348 393 l 233 399 q 249 332 238 366 q 277 264 260 298 l 370 348 l 408 313 l 313 213 q 377 151 342 176 q 454 114 412 127 l 469 248 l 517 241 l 514 104 l 522 104 q 605 117 564 104 q 686 159 646 130 l 608 310 l 654 337 l 734 203 q 778 260 759 231 q 810 320 797 289 l 697 418 l 727 448 l 832 386 q 847 447 842 414 q 852 516 852 479 m 791 1255 l 726 1190 l 522 1352 l 373 1183 l 253 1263 l 513 1457 l 791 1255 z "},"":{"ha":1068,"x_min":69,"x_max":999,"o":"m 999 580 q 968 378 999 473 q 876 202 938 284 q 723 68 808 113 q 533 23 637 23 q 345 68 430 23 q 192 202 260 113 q 100 378 130 283 q 69 580 69 473 q 99 779 69 686 q 189 951 130 872 q 340 1080 255 1037 q 528 1123 425 1123 q 718 1080 632 1123 q 872 951 804 1037 q 967 779 935 872 q 999 580 999 686 m 852 516 q 852 534 852 525 q 852 553 852 543 l 746 545 l 734 599 l 842 616 q 817 700 833 661 q 777 772 801 739 l 687 664 l 648 696 l 727 827 q 640 878 688 861 q 535 893 593 894 l 576 730 l 528 713 l 471 879 q 378 825 420 861 q 301 737 336 789 l 412 614 l 372 568 l 268 675 q 236 577 246 625 q 227 486 226 530 l 228 460 l 348 452 l 348 393 l 233 399 q 249 332 238 366 q 277 264 260 298 l 370 348 l 408 313 l 313 213 q 377 151 342 176 q 454 114 412 127 l 469 248 l 517 241 l 514 104 l 522 104 q 605 117 564 104 q 686 159 646 130 l 608 310 l 654 337 l 734 203 q 778 260 759 231 q 810 320 797 289 l 697 418 l 727 448 l 832 386 q 847 447 842 414 q 852 516 852 479 m 604 1242 l 550 1189 l 304 1389 l 419 1514 l 604 1242 z "},"":{"ha":1042,"x_min":103,"x_max":939,"o":"m 939 484 q 830 123 939 243 q 502 3 721 3 q 318 31 395 3 q 193 113 241 58 q 125 243 148 164 q 103 430 103 323 q 124 695 103 519 q 144 961 144 872 q 136 1062 144 1019 q 111 1135 127 1105 l 168 1161 q 218 1021 199 1099 q 243 847 237 942 q 247 735 245 817 q 248 519 248 653 q 252 378 248 436 q 265 288 256 320 q 323 186 284 220 q 422 152 363 152 q 539 176 492 152 q 614 248 587 199 q 643 335 633 282 q 652 460 652 388 q 652 492 652 473 q 650 535 651 511 q 649 580 650 562 q 649 608 649 598 l 753 616 l 746 696 l 648 692 l 644 768 l 741 773 l 739 852 l 644 852 l 641 931 l 739 924 l 739 997 l 641 1006 l 637 1086 l 919 1059 q 933 638 928 782 q 939 484 939 494 m 512 566 q 487 506 512 531 q 428 481 463 481 q 369 506 393 481 q 345 566 345 532 q 369 625 345 600 q 428 650 393 650 q 487 626 463 650 q 512 566 512 601 m 673 1373 l 427 1172 l 373 1225 l 559 1497 l 673 1373 z "},"":{"ha":1042,"x_min":103,"x_max":939,"o":"m 939 484 q 830 123 939 243 q 502 3 721 3 q 318 31 395 3 q 193 113 241 58 q 125 243 148 164 q 103 430 103 323 q 124 695 103 519 q 144 961 144 872 q 136 1062 144 1019 q 111 1135 127 1105 l 168 1161 q 218 1021 199 1099 q 243 847 237 942 q 247 735 245 817 q 248 519 248 653 q 252 378 248 436 q 265 288 256 320 q 323 186 284 220 q 422 152 363 152 q 539 176 492 152 q 614 248 587 199 q 643 335 633 282 q 652 460 652 388 q 652 492 652 473 q 650 535 651 511 q 649 580 650 562 q 649 608 649 598 l 753 616 l 746 696 l 648 692 l 644 768 l 741 773 l 739 852 l 644 852 l 641 931 l 739 924 l 739 997 l 641 1006 l 637 1086 l 919 1059 q 933 638 928 782 q 939 484 939 494 m 512 566 q 487 506 512 531 q 428 481 463 481 q 369 506 393 481 q 345 566 345 532 q 369 625 345 600 q 428 650 393 650 q 487 626 463 650 q 512 566 512 601 m 747 1253 l 682 1187 l 477 1350 l 328 1181 l 208 1261 l 469 1455 l 747 1253 z "},"":{"ha":1042,"x_min":103,"x_max":939,"o":"m 939 484 q 830 123 939 243 q 502 3 721 3 q 318 31 395 3 q 193 113 241 58 q 125 243 148 164 q 103 430 103 323 q 124 695 103 519 q 144 961 144 872 q 136 1062 144 1019 q 111 1135 127 1105 l 168 1161 q 218 1021 199 1099 q 243 847 237 942 q 247 735 245 817 q 248 519 248 653 q 252 378 248 436 q 265 288 256 320 q 323 186 284 220 q 422 152 363 152 q 539 176 492 152 q 614 248 587 199 q 643 335 633 282 q 652 460 652 388 q 652 492 652 473 q 650 535 651 511 q 649 580 650 562 q 649 608 649 598 l 753 616 l 746 696 l 648 692 l 644 768 l 741 773 l 739 852 l 644 852 l 641 931 l 739 924 l 739 997 l 641 1006 l 637 1086 l 919 1059 q 933 638 928 782 q 939 484 939 494 m 512 566 q 487 506 512 531 q 428 481 463 481 q 369 506 393 481 q 345 566 345 532 q 369 625 345 600 q 428 650 393 650 q 487 626 463 650 q 512 566 512 601 m 567 1242 l 513 1189 l 267 1389 l 382 1514 l 567 1242 z "},"":{"ha":429,"x_min":52,"x_max":337,"o":"m 337 -78 l 52 -41 l 157 619 l 284 619 l 337 -78 m 256 272 q 244 308 256 296 q 208 320 233 320 q 171 308 183 320 q 159 272 159 296 q 171 235 159 248 q 208 223 183 223 q 244 235 233 223 q 256 272 256 248 m 256 88 q 238 132 256 114 q 193 151 220 151 q 150 132 168 151 q 132 88 132 114 q 150 44 132 62 q 193 26 168 26 q 238 44 220 26 q 256 88 256 62 z "},"":{"ha":711,"x_min":86,"x_max":625,"o":"m 625 779 l 559 713 l 355 876 l 206 707 l 86 787 l 347 981 l 625 779 z "},"":{"ha":748,"x_min":86,"x_max":661,"o":"m 661 913 q 652 838 661 873 q 627 776 644 804 q 578 724 607 741 q 511 707 549 707 q 393 778 442 707 q 315 848 343 848 q 268 838 288 848 q 235 807 248 827 q 221 775 229 798 q 203 717 213 752 l 86 772 q 170 927 121 876 q 284 979 220 979 q 344 971 317 979 q 395 948 372 964 q 420 926 406 941 q 452 890 434 911 q 477 866 466 874 q 498 859 488 859 q 529 869 519 859 q 538 901 538 880 q 536 924 538 911 q 530 955 534 938 l 656 976 q 660 944 659 960 q 661 913 661 928 z "},"":{"ha":748,"x_min":163,"x_max":571,"o":"m 571 724 l 163 734 l 163 824 l 571 869 l 571 724 z "},"":{"ha":748,"x_min":68,"x_max":690,"o":"m 690 935 q 656 840 684 882 q 577 765 628 798 q 481 721 532 736 q 375 707 431 707 q 269 721 319 707 q 176 764 219 734 q 100 839 127 796 q 68 935 73 882 l 228 955 q 283 883 243 907 q 388 859 323 859 q 429 866 408 859 q 475 887 451 873 q 515 920 501 903 q 530 955 529 937 l 690 935 z "},"":{"ha":748,"x_min":220,"x_max":500,"o":"m 500 836 q 459 736 500 777 q 360 696 418 696 q 261 736 302 696 q 220 836 220 777 q 261 935 220 894 q 360 976 302 976 q 459 935 418 976 q 500 836 500 894 z "},"":{"ha":466,"x_min":86,"x_max":379,"o":"m 379 838 q 337 735 379 777 q 233 692 294 692 q 130 734 173 692 q 86 838 86 777 q 130 941 86 899 q 233 983 173 983 q 337 940 294 983 q 379 838 379 897 m 298 834 q 274 892 298 868 q 216 916 250 916 q 158 892 182 916 q 134 834 134 868 q 158 777 134 800 q 216 753 182 753 q 274 777 250 753 q 298 834 298 800 z "},"":{"ha":1040,"x_min":467,"x_max":680,"o":"m 680 -241 l 467 -282 l 473 -231 l 536 -216 l 536 -178 l 477 -190 l 481 -154 l 533 -147 l 533 -111 l 484 -117 l 488 -76 l 538 -71 l 540 -37 l 492 -40 l 504 75 l 612 66 l 680 -241 z "},"":{"ha":748,"x_min":173,"x_max":654,"o":"m 654 921 l 343 713 l 301 741 l 332 862 l 224 783 l 173 824 l 312 1156 l 439 1083 l 370 910 l 533 1042 l 654 921 z "},"":{"ha":748,"x_min":142,"x_max":612,"o":"m 612 -212 l 502 -401 l 142 -201 l 319 35 l 398 -3 l 288 -173 l 370 -218 l 422 -132 l 484 -159 l 446 -250 l 492 -270 l 540 -176 l 612 -212 z "},"":{"ha":711,"x_min":81,"x_max":619,"o":"m 619 890 l 360 696 l 81 899 l 147 964 l 351 801 l 500 971 l 619 890 z "},"":{"ha":950,"x_min":38,"x_max":951,"o":"m 951 186 q 909 91 951 130 q 783 33 867 52 q 649 15 735 22 q 439 5 563 7 q 253 -4 326 2 q 151 -23 181 -11 l 166 212 q 126 170 145 192 q 88 123 106 147 l 38 157 q 96 247 62 202 q 175 339 130 292 l 190 552 l 96 559 l 102 675 l 199 679 l 208 806 l 107 814 l 114 928 l 216 924 l 224 1059 l 119 1070 l 121 1175 l 509 1147 l 386 497 q 505 549 449 532 q 611 566 561 566 q 628 566 619 566 q 644 564 636 566 l 619 433 q 504 411 570 433 q 357 347 439 389 l 317 132 l 345 133 q 410 131 372 134 q 498 124 449 128 q 590 117 552 119 q 652 115 628 115 q 812 145 759 115 q 866 236 866 175 q 861 280 866 256 q 844 330 855 303 l 895 358 q 937 265 923 308 q 951 186 951 222 z "},"":{"ha":574,"x_min":10,"x_max":595,"o":"m 595 416 l 526 315 q 464 343 502 331 q 375 363 427 356 l 332 0 l 117 21 l 128 83 l 212 71 l 215 195 l 119 201 l 124 258 l 215 256 l 216 368 q 119 349 165 363 q 33 313 73 334 l 10 367 q 107 425 55 399 q 218 467 159 450 l 220 559 l 113 566 l 119 634 l 221 616 l 221 727 l 119 739 l 128 794 l 223 796 l 224 913 l 114 919 l 127 983 l 224 972 l 228 1083 l 111 1092 l 119 1161 l 471 1161 l 391 486 q 511 467 460 484 q 595 416 562 450 z "},"":{"ha":815,"x_min":58,"x_max":773,"o":"m 773 938 q 709 767 773 831 q 538 703 644 703 q 457 713 494 703 q 388 746 419 724 q 336 804 353 770 q 319 880 319 838 q 332 943 319 916 q 371 989 345 970 q 424 1015 395 1006 q 490 1024 454 1024 q 533 1019 513 1024 q 569 1002 553 1013 q 596 971 587 988 q 606 931 606 954 q 581 877 606 899 q 522 855 556 855 q 486 863 500 855 q 463 886 471 870 q 474 884 468 885 q 485 884 480 884 q 520 892 509 884 q 532 919 532 901 q 519 946 532 937 q 483 955 507 955 q 452 950 467 955 q 426 937 437 946 q 406 914 413 927 q 399 885 399 901 q 432 810 399 835 q 530 786 465 786 q 633 830 593 786 q 672 938 672 873 q 654 1007 672 977 q 601 1060 636 1038 q 536 1088 572 1079 q 459 1097 500 1097 q 368 1084 409 1097 q 294 1047 326 1072 q 242 982 260 1020 q 224 895 224 944 q 257 799 224 846 q 355 709 290 753 q 476 627 416 667 q 597 545 536 586 q 694 419 662 488 q 727 270 727 350 q 700 135 727 195 q 619 33 673 76 q 506 -27 569 -6 q 367 -48 444 -48 q 256 -37 307 -48 q 163 -4 205 -26 q 84 65 111 24 q 58 161 58 106 q 103 295 58 244 q 230 347 148 347 q 290 337 263 347 q 340 310 317 328 q 376 265 364 291 q 388 208 388 239 q 360 121 388 150 q 275 92 332 92 q 222 110 245 92 q 199 155 199 127 q 211 194 199 181 q 247 207 223 207 q 253 207 250 207 q 260 206 256 206 q 248 193 252 200 q 243 180 243 186 q 252 160 243 166 q 275 154 260 154 q 301 165 293 154 q 310 199 310 176 q 303 228 310 215 q 281 250 296 240 q 253 262 269 258 q 221 267 238 267 q 151 240 174 267 q 127 161 127 213 q 141 106 127 130 q 183 66 155 83 q 235 45 206 52 q 296 38 263 38 q 372 52 337 38 q 433 96 406 66 q 473 159 460 124 q 486 236 486 193 q 459 331 486 281 q 375 437 431 382 q 273 535 325 487 q 170 632 221 583 q 87 748 115 691 q 59 861 59 806 q 87 1004 59 942 q 172 1109 116 1067 q 291 1165 223 1147 q 443 1184 358 1184 q 561 1170 505 1184 q 663 1125 616 1155 q 746 1043 718 1090 q 773 938 773 996 m 707 1386 l 448 1192 l 169 1395 l 235 1461 l 439 1297 l 588 1468 l 707 1386 z "},"":{"ha":611,"x_min":0,"x_max":625,"o":"m 625 890 l 366 696 l 87 899 l 153 964 l 357 801 l 507 971 l 625 890 m 550 521 q 526 437 550 465 q 452 410 501 410 q 386 426 408 410 q 364 476 364 443 q 373 506 364 492 q 399 528 382 519 l 419 514 q 412 504 414 509 q 409 494 409 498 q 417 474 409 480 q 441 467 425 467 q 473 478 463 467 q 483 511 483 488 q 474 543 483 528 q 446 567 465 557 q 415 579 432 575 q 377 583 397 583 q 331 577 351 583 q 292 557 310 570 q 262 524 272 543 q 253 479 253 504 q 271 433 253 456 q 325 388 290 410 q 422 326 389 347 q 458 303 456 305 q 512 237 494 273 q 530 159 530 201 q 508 56 530 102 q 443 -24 487 9 q 353 -72 403 -56 q 244 -88 303 -88 q 170 -79 205 -88 q 102 -52 135 -70 q 42 -7 68 -33 q 0 54 17 20 l 50 100 q 127 14 81 42 q 231 -15 172 -15 q 319 17 285 -15 q 353 100 353 48 q 338 166 353 134 q 292 229 323 199 q 234 279 263 254 q 176 330 205 304 q 130 395 145 361 q 114 466 114 429 q 134 547 114 511 q 191 610 153 583 q 266 645 224 634 q 355 656 307 656 q 427 649 395 656 q 485 628 460 642 q 534 583 518 610 q 550 521 550 556 m 186 213 q 162 154 186 178 q 104 130 138 130 q 45 155 70 130 q 21 213 21 179 q 45 271 21 247 q 104 296 70 296 q 162 271 138 296 q 186 213 186 247 z "},"":{"ha":978,"x_min":0,"x_max":978,"o":"m 281 812 l 260 632 l 100 670 l 152 781 l 281 812 m 978 1047 l 923 930 l 784 935 l 735 869 l 859 822 l 784 730 l 669 781 l 601 692 l 701 642 l 642 538 l 526 597 l 260 248 l 859 286 l 899 12 l 0 33 l 657 937 l 119 954 l 161 1177 l 978 1047 m 374 149 q 362 183 374 172 q 329 195 351 195 q 295 183 307 195 q 284 149 284 172 q 295 114 284 125 q 329 102 307 102 q 362 114 351 102 q 374 149 374 125 m 580 147 q 563 189 580 172 q 521 206 545 206 q 479 189 497 206 q 460 147 460 172 q 479 105 460 123 q 521 88 497 88 q 563 105 545 88 q 580 147 580 123 m 770 144 q 759 178 770 166 q 725 190 748 190 q 691 178 703 190 q 679 144 679 166 q 691 110 679 121 q 725 99 703 99 q 759 110 748 99 q 770 144 770 121 m 865 1356 l 606 1162 l 328 1364 l 393 1430 l 597 1267 l 747 1437 l 865 1356 z "},"":{"ha":784,"x_min":26,"x_max":801,"o":"m 801 505 q 789 469 801 481 q 753 457 777 457 q 717 469 729 457 q 705 505 705 481 q 717 541 705 529 q 753 553 729 553 q 789 541 777 553 q 801 505 801 529 m 650 343 q 639 308 650 319 q 602 296 627 296 q 566 308 578 296 q 553 343 553 319 q 566 379 553 367 q 602 391 578 391 q 639 379 627 391 q 650 343 650 367 m 701 619 l 180 30 l 654 58 l 642 -86 l 26 -56 l 340 521 l 40 504 l 88 650 l 701 619 m 500 182 q 489 145 500 157 q 452 134 477 134 q 415 145 428 134 q 403 182 403 157 q 415 218 403 205 q 452 230 428 230 q 489 218 477 230 q 500 182 500 205 m 467 570 l 412 591 q 372 426 398 506 q 309 270 347 346 l 329 243 q 408 394 373 312 q 467 570 442 476 m 660 890 l 401 696 l 122 899 l 188 964 l 392 801 l 541 971 l 660 890 z "},"":{"ha":581,"x_min":213,"x_max":368,"o":"m 368 541 l 213 547 l 213 1235 l 368 1251 l 368 541 m 368 -471 l 213 -479 l 213 267 l 368 241 l 368 -471 m 343 941 q 331 977 343 965 q 294 989 319 989 q 258 977 271 989 q 246 941 246 965 q 258 905 246 917 q 294 893 271 893 q 331 905 319 893 q 343 941 343 917 z "},"":{"ha":994,"x_min":23,"x_max":924,"o":"m 924 629 q 861 374 924 488 q 669 175 797 261 q 441 62 570 109 q 154 -12 313 15 l 185 486 q 137 454 161 471 q 90 416 113 436 l 23 570 q 102 606 60 589 q 193 635 145 622 l 228 1210 q 517 1158 395 1193 q 717 1072 639 1124 q 872 892 821 1003 q 924 629 924 781 m 715 629 l 715 697 l 618 701 l 609 789 l 703 793 l 699 855 l 599 865 l 576 1062 q 506 1089 551 1075 q 396 1118 460 1103 l 403 677 q 488 686 450 682 q 555 690 526 689 l 555 634 q 475 616 513 626 q 403 593 437 606 l 410 121 q 505 149 456 130 q 606 199 553 169 l 612 456 l 703 460 l 711 530 l 614 533 l 616 623 l 715 629 z "},"":{"ha":862,"x_min":42,"x_max":865,"o":"m 865 1031 l 841 900 q 789 939 814 924 q 739 959 763 954 q 751 873 747 919 q 755 779 755 828 q 748 655 755 744 q 727 425 741 566 l 642 413 l 635 351 l 722 358 l 715 296 l 632 282 l 619 224 l 711 236 l 705 165 l 623 157 l 619 100 l 699 104 l 694 47 l 483 20 l 497 123 q 402 77 451 92 q 301 62 353 62 q 116 134 190 62 q 42 316 42 205 q 155 567 42 459 q 410 675 267 675 q 491 664 454 675 q 559 632 528 653 q 571 754 567 703 q 574 836 574 804 q 572 888 574 864 q 566 931 570 912 q 493 880 529 912 q 425 801 458 847 l 381 832 q 451 938 413 893 q 532 1013 488 983 q 490 1052 515 1038 q 433 1065 465 1065 q 302 1024 366 1065 q 178 902 238 983 l 135 933 q 197 1037 161 989 q 281 1122 233 1084 q 389 1184 334 1163 q 502 1204 444 1204 q 619 1170 569 1204 q 703 1068 669 1136 l 711 1068 q 786 1059 747 1068 q 865 1031 824 1050 m 523 416 q 515 477 523 449 q 490 532 507 506 q 446 575 471 560 q 389 589 421 589 q 322 571 353 589 q 265 515 291 552 q 232 445 242 481 q 221 370 221 409 q 230 308 221 337 q 254 254 238 279 q 298 211 273 224 q 355 197 323 197 q 423 215 392 197 q 479 271 454 234 q 512 340 502 304 q 523 416 523 376 m 420 397 q 390 329 420 358 q 320 299 359 299 q 271 319 291 299 q 250 370 250 340 q 281 437 250 408 q 350 467 311 467 q 402 450 385 467 q 420 397 420 432 z "},"":{"ha":962,"x_min":23,"x_max":1023,"o":"m 113 979 q 101 946 113 957 q 68 935 90 935 q 34 946 45 935 q 23 979 23 957 q 34 1013 23 1002 q 68 1024 45 1024 q 101 1013 90 1024 q 113 979 113 1002 m 183 846 q 172 812 183 823 q 138 801 161 801 q 105 812 117 801 q 94 846 94 823 q 105 880 94 869 q 138 892 117 892 q 172 880 161 892 q 183 846 183 869 m 263 707 q 252 672 263 684 q 218 661 241 661 q 184 672 196 661 q 173 707 173 684 q 184 740 173 728 q 218 751 196 751 q 252 740 241 751 q 263 707 263 728 m 1023 1201 q 904 1155 957 1192 q 812 1052 852 1118 q 879 1080 848 1071 q 931 1089 909 1089 q 957 1087 942 1089 q 992 1083 972 1086 l 975 1028 l 962 1028 q 772 940 857 1028 q 622 673 687 852 q 593 589 603 620 q 583 550 584 557 q 577 414 583 550 q 557 5 570 277 l 441 -20 l 403 597 l 113 1090 l 351 1182 l 542 687 q 629 904 589 814 q 703 1046 669 994 q 844 1197 767 1147 q 1009 1248 920 1248 l 1023 1201 m 347 568 q 335 534 347 545 q 301 522 323 522 q 268 534 279 522 q 256 568 256 545 q 268 601 256 590 q 301 612 279 612 q 335 601 323 612 q 347 568 347 590 m 795 1377 l 549 1177 l 495 1230 l 681 1502 l 795 1377 z "},"":{"ha":958,"x_min":81,"x_max":900,"o":"m 190 684 q 178 647 190 659 q 142 635 166 635 q 105 647 117 635 q 92 684 92 659 q 105 720 92 707 q 142 732 117 732 q 178 720 166 732 q 190 684 190 707 m 900 574 q 880 455 900 509 q 819 357 859 401 q 724 289 777 312 q 608 267 671 267 q 534 276 569 267 q 468 305 498 286 q 414 354 436 326 q 381 419 392 382 l 357 -37 l 236 -68 l 230 -3 l 140 -23 l 130 88 l 227 102 l 203 793 l 88 776 l 81 897 l 199 912 l 199 1147 q 333 1154 271 1152 q 444 1158 394 1157 l 425 923 q 453 924 439 924 q 481 924 467 924 q 645 903 572 924 q 774 842 718 882 q 869 728 838 795 q 900 574 900 661 m 193 528 q 181 492 193 504 q 145 479 170 479 q 109 492 121 479 q 97 528 97 504 q 109 564 97 552 q 145 576 121 576 q 181 564 170 576 q 193 528 193 552 m 199 370 q 187 334 199 346 q 151 322 175 322 q 115 334 127 322 q 102 370 102 346 q 115 407 102 395 q 151 419 127 419 q 187 407 175 419 q 199 370 199 395 m 201 203 q 189 166 201 178 q 152 154 176 154 q 116 166 128 154 q 104 203 104 178 q 116 239 104 227 q 152 251 128 251 q 189 239 176 251 q 201 203 201 227 m 763 559 q 742 671 763 623 q 679 753 721 720 q 588 797 641 783 q 468 812 536 812 q 442 811 456 812 q 413 810 428 810 l 395 580 q 464 673 420 642 q 571 705 508 705 q 618 692 602 705 q 634 656 634 680 q 624 631 634 641 q 593 616 614 621 q 541 601 561 608 q 515 591 522 595 q 485 553 495 577 q 474 494 474 528 q 513 403 474 437 q 608 368 552 368 q 675 383 646 368 q 725 429 704 398 q 753 487 743 455 q 763 559 763 519 m 652 494 q 641 457 652 469 q 604 444 629 444 q 568 457 580 444 q 555 494 555 469 q 568 530 555 517 q 604 542 580 542 q 641 530 629 542 q 652 494 652 517 z "},"":{"ha":832,"x_min":62,"x_max":794,"o":"m 794 296 q 774 171 794 227 q 715 69 755 115 q 620 -3 674 21 q 498 -26 566 -26 q 326 39 391 -26 q 261 213 261 105 q 274 291 261 255 q 313 358 288 328 q 374 407 340 391 q 450 422 408 422 q 484 412 473 422 q 495 379 495 401 q 485 349 495 361 q 454 333 474 338 q 404 319 422 326 q 378 309 385 313 q 348 265 358 293 q 337 195 337 237 q 349 139 337 164 q 385 95 361 114 q 434 67 407 77 q 492 58 460 58 q 570 74 536 58 q 626 123 604 90 q 656 190 646 152 q 666 274 666 227 q 602 438 666 373 q 439 504 538 504 q 362 487 397 504 q 298 434 326 469 q 256 365 272 402 q 236 284 241 328 l 159 -408 l 62 -429 l 90 1101 l 385 1154 l 268 484 q 367 592 302 552 q 507 632 432 632 q 628 606 574 632 q 722 529 682 581 q 776 423 758 481 q 794 296 794 365 m 542 206 q 529 167 542 180 q 488 154 515 154 q 448 167 461 154 q 434 206 434 180 q 450 244 434 228 q 488 260 467 260 q 526 244 509 260 q 542 206 542 228 m 298 1047 l 149 1019 l 135 173 l 155 236 q 194 388 176 298 q 230 590 213 477 l 298 1047 m 260 951 q 250 920 260 930 q 218 910 239 910 q 187 920 198 910 q 176 951 176 930 q 187 983 176 972 q 218 994 198 994 q 250 983 239 994 q 260 951 260 972 m 239 803 q 230 775 239 784 q 203 766 221 766 q 176 775 185 766 q 166 803 166 784 q 176 830 166 821 q 203 839 185 839 q 230 830 221 839 q 239 803 239 821 m 220 670 q 213 650 220 656 q 192 644 206 644 q 172 650 178 644 q 165 670 165 656 q 172 690 165 684 q 192 697 178 697 q 213 690 206 697 q 220 670 220 684 z "},"":{"ha":682,"x_min":43,"x_max":646,"o":"m 646 648 l 637 509 l 58 576 l 43 648 l 646 648 m 593 602 l 306 616 l 306 590 l 576 552 l 593 602 z "},"":{"ha":396,"x_min":23,"x_max":320,"o":"m 320 1182 l 284 488 l 182 476 l 123 1067 l 45 1048 l 23 1113 l 320 1182 m 268 997 l 220 1002 q 194 888 202 941 q 186 789 186 835 l 186 766 l 212 776 q 230 890 216 835 q 268 997 244 945 z "},"":{"ha":580,"x_min":5,"x_max":536,"o":"m 536 460 l 5 490 q 79 666 25 579 q 220 836 133 752 q 308 944 279 892 q 337 1042 337 996 q 328 1076 337 1061 q 301 1103 319 1091 q 267 1118 285 1113 q 230 1123 250 1123 q 183 1118 205 1123 q 143 1103 161 1114 q 110 1073 121 1091 q 98 1031 98 1055 q 111 986 98 1002 q 151 971 124 971 q 191 981 178 971 q 203 1012 203 991 q 202 1022 203 1017 q 197 1035 200 1028 q 239 1014 224 1028 q 253 979 253 1000 q 243 947 253 960 q 214 924 233 933 q 181 912 199 916 q 144 909 164 909 q 97 915 118 909 q 59 935 76 921 q 31 969 41 950 q 22 1013 22 989 q 42 1079 22 1050 q 100 1129 62 1108 q 169 1154 132 1147 q 246 1161 205 1161 q 340 1151 298 1161 q 414 1120 382 1141 q 471 1057 452 1095 q 490 971 490 1020 q 470 901 490 937 q 408 830 449 866 q 325 768 366 799 q 243 707 283 738 q 164 635 195 669 q 123 571 134 602 l 502 629 l 536 460 m 448 1004 q 439 1026 448 1019 q 413 1034 431 1034 q 389 1026 397 1034 q 381 1004 381 1019 q 389 982 381 989 q 413 975 397 975 q 439 982 431 975 q 448 1004 448 989 m 426 912 q 415 940 426 930 q 382 950 405 950 q 350 940 361 950 q 339 912 339 930 q 350 883 339 892 q 382 873 361 873 q 415 883 405 873 q 426 912 426 892 m 345 838 q 337 859 345 852 q 312 867 329 867 q 286 859 295 867 q 277 838 277 852 q 286 815 277 822 q 312 808 295 808 q 337 815 329 808 q 345 838 345 822 z "},"":{"ha":659,"x_min":12,"x_max":616,"o":"m 616 639 l 606 599 l 559 606 q 528 556 547 579 q 481 514 508 533 l 512 467 l 471 439 l 437 490 q 372 469 408 476 q 296 463 336 463 l 284 406 l 231 416 l 248 467 q 195 481 219 471 q 151 509 171 492 l 99 471 l 66 500 l 123 535 q 100 566 111 547 q 79 609 90 585 l 24 599 l 12 634 l 73 642 q 69 661 70 652 q 68 679 68 670 l 102 686 q 128 629 109 654 q 176 585 146 604 q 235 558 204 567 q 299 550 267 550 q 353 558 329 550 q 399 583 377 567 q 433 624 422 601 q 444 675 444 646 q 390 791 444 752 q 228 832 336 831 l 477 1075 l 109 1017 l 73 1170 l 563 1149 l 595 1085 l 375 869 q 411 867 396 869 q 434 864 426 866 l 471 900 l 507 876 l 476 848 q 513 820 497 836 q 542 784 530 804 l 593 806 l 611 777 l 557 751 q 572 691 570 718 q 568 646 574 665 l 616 639 z "},"":{"ha":1196,"x_min":3,"x_max":1192,"o":"m 300 1182 l 264 488 l 161 476 l 102 1067 l 24 1048 l 3 1113 l 300 1182 m 867 1201 l 301 -147 l 95 54 l 716 1222 l 867 1201 m 1192 1 l 660 31 q 734 207 680 120 q 875 376 788 293 q 963 485 934 433 q 992 583 992 536 q 983 617 992 602 q 956 644 975 632 q 922 659 940 654 q 885 664 905 664 q 838 659 860 664 q 798 644 817 654 q 765 614 776 632 q 753 572 753 596 q 766 527 753 543 q 806 512 779 512 q 846 522 833 512 q 859 553 859 532 q 857 563 859 557 q 852 576 855 569 q 894 555 880 569 q 908 519 908 541 q 898 488 908 501 q 869 465 888 474 q 837 453 854 457 q 799 450 819 450 q 752 456 773 450 q 714 476 731 462 q 686 510 696 491 q 677 554 677 530 q 697 620 677 591 q 755 670 717 649 q 824 695 787 688 q 901 702 861 702 q 996 692 954 702 q 1069 661 1038 682 q 1126 598 1107 635 q 1145 512 1145 561 q 1125 442 1145 477 q 1063 371 1104 407 q 980 309 1021 340 q 898 248 939 279 q 820 176 850 210 q 778 112 789 142 l 1157 170 l 1192 1 m 248 997 l 199 1002 q 174 888 182 941 q 166 789 166 835 l 166 766 l 191 776 q 210 890 196 835 q 248 997 224 945 m 1103 545 q 1095 567 1103 559 q 1068 574 1086 574 q 1044 567 1053 574 q 1036 545 1036 559 q 1044 523 1036 530 q 1068 515 1053 515 q 1095 523 1086 515 q 1103 545 1103 530 m 526 511 q 512 552 526 538 q 471 566 498 566 q 430 552 444 566 q 416 511 416 538 q 432 473 416 488 q 471 457 448 457 q 509 473 492 457 q 526 511 526 488 m 1081 453 q 1070 481 1081 471 q 1038 491 1060 491 q 1005 481 1016 491 q 994 453 994 471 q 1005 424 994 433 q 1038 414 1016 414 q 1070 424 1060 414 q 1081 453 1081 433 m 1000 378 q 992 400 1000 393 q 967 408 984 408 q 941 400 950 408 q 932 378 932 393 q 941 356 932 363 q 967 349 950 349 q 992 356 984 349 q 1000 378 1000 363 m 444 317 q 422 368 444 347 q 371 389 400 389 q 319 368 341 389 q 298 317 298 347 q 319 266 298 288 q 371 244 341 244 q 422 266 400 244 q 444 317 444 288 m 345 79 q 319 140 345 114 q 258 166 293 166 q 197 140 222 166 q 171 79 171 114 q 197 20 171 45 q 258 -5 222 -5 q 319 20 293 -5 q 345 79 345 45 z "},"":{"ha":1258,"x_min":3,"x_max":1266,"o":"m 300 1182 l 264 488 l 161 476 l 102 1067 l 24 1048 l 3 1113 l 300 1182 m 897 1201 l 331 -147 l 125 54 l 746 1222 l 897 1201 m 1059 496 q 1044 459 1059 471 q 1000 447 1029 447 q 959 461 978 447 q 941 496 941 475 q 959 534 941 519 q 1000 549 978 549 q 1041 534 1023 549 q 1059 496 1059 519 m 1266 166 l 1109 135 l 1100 -38 l 1043 -41 l 1043 120 l 998 113 l 1004 -145 l 937 -161 l 925 97 l 763 64 l 605 110 l 626 156 l 690 138 l 707 172 l 640 193 l 656 232 l 722 213 l 735 252 l 671 270 l 686 310 l 743 293 l 757 331 l 702 346 l 831 668 l 917 654 l 823 234 l 920 234 l 915 328 l 991 342 l 993 232 l 1043 232 l 1043 399 l 1123 400 l 1114 231 l 1251 229 l 1266 166 m 248 997 l 199 1002 q 174 888 182 941 q 166 789 166 835 l 166 766 l 191 776 q 210 890 196 835 q 248 997 224 945 m 556 511 q 542 552 556 538 q 500 566 528 566 q 459 552 473 566 q 446 511 446 538 q 462 473 446 488 q 500 457 478 457 q 539 473 522 457 q 556 511 556 488 m 473 317 q 452 368 473 347 q 401 389 430 389 q 349 368 371 389 q 328 317 328 347 q 349 266 328 288 q 401 244 371 244 q 452 266 430 244 q 473 317 473 288 m 374 79 q 349 140 374 114 q 288 166 323 166 q 227 140 252 166 q 201 79 201 114 q 227 20 201 45 q 288 -5 252 -5 q 349 20 323 -5 q 374 79 374 45 z "},"":{"ha":1471,"x_min":3,"x_max":1506,"o":"m 608 639 l 597 599 l 551 606 q 519 556 539 579 q 473 514 500 533 l 504 467 l 463 439 l 429 490 q 364 469 399 476 q 288 463 328 463 l 276 406 l 223 416 l 239 467 q 187 481 211 471 q 142 509 163 492 l 91 471 l 58 500 l 115 535 q 92 566 102 547 q 71 609 81 585 l 16 599 l 3 634 l 64 642 q 61 661 62 652 q 60 679 60 670 l 94 686 q 120 629 101 654 q 168 585 138 604 q 227 558 196 567 q 291 550 258 550 q 345 558 321 550 q 391 583 369 567 q 425 624 414 601 q 436 675 436 646 q 382 791 436 752 q 220 832 328 831 l 469 1075 l 101 1017 l 64 1170 l 555 1149 l 587 1085 l 367 869 q 403 867 388 869 q 426 864 418 866 l 463 900 l 499 876 l 468 848 q 505 820 489 836 q 534 784 522 804 l 585 806 l 603 777 l 549 751 q 564 691 562 718 q 559 646 566 665 l 608 639 m 1154 1201 l 588 -147 l 382 54 l 1003 1222 l 1154 1201 m 1299 496 q 1284 459 1299 471 q 1240 447 1270 447 q 1199 461 1218 447 q 1181 496 1181 475 q 1199 534 1181 519 q 1240 549 1218 549 q 1281 534 1263 549 q 1299 496 1299 519 m 1506 166 l 1349 135 l 1340 -38 l 1283 -41 l 1283 120 l 1238 113 l 1244 -145 l 1177 -161 l 1165 97 l 1003 64 l 845 110 l 866 156 l 930 138 l 947 172 l 880 193 l 896 232 l 962 213 l 975 252 l 911 270 l 926 310 l 983 293 l 997 331 l 942 346 l 1072 668 l 1157 654 l 1063 234 l 1160 234 l 1155 328 l 1232 342 l 1233 232 l 1283 232 l 1283 399 l 1363 400 l 1354 231 l 1491 229 l 1506 166 m 813 511 q 799 552 813 538 q 758 566 785 566 q 716 552 730 566 q 703 511 703 538 q 719 473 703 488 q 758 457 735 457 q 796 473 779 457 q 813 511 813 488 m 730 317 q 709 368 730 347 q 658 389 687 389 q 606 368 628 389 q 585 317 585 347 q 606 266 585 288 q 658 244 628 244 q 709 266 687 244 q 730 317 730 288 m 631 79 q 606 140 631 114 q 545 166 580 166 q 484 140 509 166 q 458 79 458 114 q 484 20 458 45 q 545 -5 509 -5 q 606 20 580 -5 q 631 79 631 45 z "},"":{"ha":824,"x_min":43,"x_max":737,"o":"m 737 217 q 640 -306 737 -132 q 348 -481 543 -481 q 181 -456 258 -481 q 43 -382 105 -432 l 75 -323 q 177 -380 120 -361 q 301 -399 233 -399 q 348 -396 326 -399 q 393 -388 371 -394 q 371 -390 382 -389 q 350 -391 361 -391 q 252 -374 298 -391 q 165 -326 206 -358 q 99 -249 121 -291 q 75 -155 77 -206 q 127 -221 102 -193 q 176 -263 153 -248 q 240 -293 205 -283 q 317 -302 275 -302 q 493 -175 431 -302 q 566 206 555 -48 q 525 146 546 172 q 483 104 505 121 l 507 43 l 466 8 l 439 78 q 394 64 418 68 q 343 64 370 61 l 323 -12 l 261 3 l 291 75 q 235 104 260 85 q 189 154 209 124 l 130 109 l 85 157 l 165 203 q 147 256 154 228 q 137 315 140 284 l 71 291 l 50 345 l 132 368 q 130 383 131 375 q 130 399 130 391 q 131 428 130 409 q 135 474 133 446 l 43 474 l 50 538 l 140 525 l 147 580 l 261 588 q 240 483 247 532 q 233 392 233 434 q 241 309 233 347 q 267 241 250 271 q 319 185 288 203 q 393 166 351 166 q 514 219 474 166 q 554 379 554 273 q 549 457 554 416 q 532 543 543 498 l 715 585 q 731 392 726 484 q 737 217 737 300 m 625 909 l 379 708 l 325 762 l 511 1034 l 625 909 z "},"":{"ha":750,"x_min":125,"x_max":609,"o":"m 609 446 l 436 313 l 334 479 l 170 326 l 125 366 l 283 562 l 152 764 l 235 817 l 377 690 l 481 825 l 586 748 l 446 610 l 609 446 z "},"":{"ha":682,"x_min":43,"x_max":646,"o":"m 646 648 l 637 509 l 58 576 l 43 648 l 646 648 m 593 602 l 306 616 l 306 590 l 576 552 l 593 602 z "},"":{"ha":862,"x_min":43,"x_max":819,"o":"m 819 363 l 734 340 q 737 313 736 327 q 739 282 739 298 q 725 191 739 236 q 684 102 711 146 q 620 25 656 55 q 542 -20 584 -5 l 561 -100 l 498 -116 l 486 -37 q 451 -42 467 -40 q 425 -43 435 -43 q 336 -31 379 -43 q 254 7 294 -18 q 184 68 212 34 q 140 144 155 102 l 56 117 l 43 175 l 121 192 q 112 240 115 217 q 109 282 109 263 q 142 429 109 363 q 241 547 175 495 l 195 618 l 248 654 l 292 578 q 356 600 323 593 q 425 608 389 608 q 608 555 534 608 q 720 396 682 502 l 803 433 l 819 363 m 549 282 q 541 361 549 325 q 514 427 532 397 q 463 480 492 463 q 393 498 433 498 q 323 480 354 498 q 272 426 293 463 q 246 360 254 396 q 237 282 237 323 q 246 202 237 238 q 271 136 254 165 q 323 82 292 100 q 393 64 353 64 q 464 82 433 64 q 515 136 494 100 q 540 202 531 165 q 549 282 549 238 z "}}}
